<?xml version="1.0" encoding="UTF-8" standalone="no"?>
<svg
   xmlns:dc="http://purl.org/dc/elements/1.1/"
   xmlns:cc="http://creativecommons.org/ns#"
   xmlns:rdf="http://www.w3.org/1999/02/22-rdf-syntax-ns#"
   xmlns:svg="http://www.w3.org/2000/svg"
   xmlns="http://www.w3.org/2000/svg"
   xmlns:sodipodi="http://sodipodi.sourceforge.net/DTD/sodipodi-0.dtd"
   xmlns:inkscape="http://www.inkscape.org/namespaces/inkscape"
   viewBox="0 0 1000 1000"
   version="1.1"
   id="svg500"
   sodipodi:docname="slide_02.svg"
   width="1000"
   height="1000"
   inkscape:version="0.92.3 (2405546, 2018-03-11)">
  <metadata
     id="metadata504">
    <rdf:RDF>
      <cc:Work
         rdf:about="">
        <dc:format>image/svg+xml</dc:format>
        <dc:type
           rdf:resource="http://purl.org/dc/dcmitype/StillImage" />
        <dc:title>Welcome screens</dc:title>
      </cc:Work>
    </rdf:RDF>
  </metadata>
  <sodipodi:namedview
     pagecolor="#ffffff"
     bordercolor="#666666"
     borderopacity="1"
     objecttolerance="10"
     gridtolerance="10"
     guidetolerance="10"
     inkscape:pageopacity="0"
     inkscape:pageshadow="2"
     inkscape:window-width="762"
     inkscape:window-height="705"
     id="namedview502"
     showgrid="false"
     inkscape:zoom="0.19184498"
     inkscape:cx="431.00705"
     inkscape:cy="621.75113"
     inkscape:window-x="604"
     inkscape:window-y="30"
     inkscape:window-maximized="0"
     inkscape:current-layer="svg500" />
  <defs
     id="defs9">
    <style
       id="style2">.cls-1{fill:#0098aa;}.cls-2{fill:#20c8e1;}.cls-3{opacity:0.62;fill:url(#Degradado_sin_nombre_6);}.cls-4{opacity:0.14;}.cls-5{fill:#606060;}.cls-6{fill:#00353e;}.cls-7{fill:#037f8e;}.cls-8{fill:#00606c;}.cls-9{fill:#e3b996;}.cls-10{fill:#c6a384;}.cls-11{fill:#f49500;}.cls-12{fill:#daa978;}.cls-13{fill:#27211f;}.cls-14,.cls-27{fill:#fff;}.cls-15{fill:#3e2128;}.cls-16{fill:none;stroke:#986943;}.cls-16,.cls-27{stroke-miterlimit:10;}.cls-17{fill:#351c1b;}.cls-18{fill:#fdc403;}.cls-19{fill:#fed701;}.cls-20{fill:#cb8a2d;}.cls-21{fill:#f39513;}.cls-22{fill:#e6d900;}.cls-23{fill:#0ddb00;}.cls-24{fill:#150000;}.cls-25{fill:#5b95a3;}.cls-26{fill:#3e6b75;}.cls-27{stroke:#a1a3a6;}.cls-28{fill:#b87214;}</style>
    <linearGradient
       id="Degradado_sin_nombre_6"
       x1="-149.42999"
       y1="958.96002"
       x2="-641.53998"
       y2="947.77002"
       gradientUnits="userSpaceOnUse">
      <stop
         offset="0"
         stop-color="#fff"
         stop-opacity="0"
         id="stop4" />
      <stop
         offset="1"
         stop-color="#fff"
         id="stop6" />
    </linearGradient>
  </defs>
  <title
     id="title11">Welcome screens</title>
  <g
     id="g752"
     transform="translate(197.13513,20.303366)">
    <g
       transform="translate(-235.9322,-580.0339)"
       data-name="Capa 1"
       id="Capa_1">
      <ellipse
         style="fill:#0098aa"
         id="ellipse13"
         ry="27"
         rx="201.5"
         cy="1450"
         cx="552.5"
         class="cls-1" />
    </g>
    <g
       transform="translate(-235.9322,-580.0339)"
       data-name="Capa 3"
       id="Capa_3">
      <path
         style="fill:#20c8e1"
         inkscape:connector-curvature="0"
         id="path16"
         d="m 810.7,939.2 c 0,149.51 -270.7,466.38 -270.7,460.72 0,-0.38 -270.7,-311.22 -270.7,-460.72 0,-149.5 121.19,-270.7 270.7,-270.7 149.51,0 270.7,121.2 270.7,270.7 z"
         class="cls-2" />
      <path
         style="fill:#0098aa"
         inkscape:connector-curvature="0"
         id="path18"
         d="m 792.23,939.2 c 0,139.3 -252.23,442.25 -252.23,442.25 0,0 -252.23,-302.95 -252.23,-442.25 C 287.77,799.9 400.7,687 540,687 c 139.3,0 252.23,112.9 252.23,252.2 z"
         class="cls-1" />
    </g>
    <g
       transform="translate(-235.9322,-580.0339)"
       data-name="Capa 2"
       id="Capa_2">
      <polygon
         style="opacity:0.62000002;fill:url(#Degradado_sin_nombre_6)"
         id="polygon21"
         points="67.42,905.05 98.18,1023.42 -513.39,990.26 -532.65,961.03 "
         class="cls-3" />
      <g
         style="opacity:0.13999999"
         class="cls-4"
         id="e57aQw.tif">
        <path
           style="fill:#606060"
           inkscape:connector-curvature="0"
           id="path23"
           d="m 507.87,728.56 91.73,79.1 c -14.55,1.1 -26.12,2.43 -37.71,2.76 -19.93,0.58 -39.89,0.19 -59.81,0.9 -9.35,0.33 -12.36,-3.07 -12.21,-12.29 0.41,-24.36 0,-48.73 -0.09,-73.1 0.19,-6.85 1,-12.32 8.94,-4.71 2.81,2.7 6.09,4.91 9.15,7.34 z m -5,54.36 c 3,5.47 -5.72,18.35 8.78,16.8 13.65,-1.46 27.26,-1.08 40.84,-2.09 2.93,-0.22 7,0.85 8,-2.88 0.81,-3.27 -2.68,-5.3 -5,-7.22 q -15.27,-12.63 -30.73,-25 c -16.81,-13.39 -16.87,-13.35 -20.28,8.12 -0.67,3.88 -1.07,7.82 -1.63,12.26 z"
           class="cls-5" />
        <path
           style="fill:#606060"
           inkscape:connector-curvature="0"
           id="path25"
           d="m 127.42,720.12 q 0.21,-1.15 0.49,-2.29 c 22.37,-14.93 40.53,-14.18 58.81,2.42 12.06,22 9.69,45.5 5.91,68.71 -3,18.57 -8,36.83 -12.1,55.23 q 0,6 0.08,11.93 l -9.83,0.11 -0.58,-8.25 c 13.45,-30.57 16.44,-62.8 13.55,-95.52 -2.59,-29.38 -20.56,-39.76 -47.72,-29.09 -1.03,-5.95 -5.93,-1.67 -8.61,-3.25 z"
           class="cls-5" />
        <path
           style="fill:#606060"
           inkscape:connector-curvature="0"
           id="path27"
           d="m 928.81,739.42 c -3.15,29.57 1.85,58.87 2.91,88.31 l -23.83,-1.11 a 572.38,572.38 0 0 0 2.77,-76.39 c -0.29,-8 2.5,-11.49 10.3,-11.28 z"
           class="cls-5" />
        <path
           style="fill:#606060"
           inkscape:connector-curvature="0"
           id="path29"
           d="m 306,867 18.56,-0.29 h 5.67 c 17.84,0.18 35.66,0.45 53.25,4 q 0,6.8 0,13.59 c -24,2.53 -48,1.58 -72,1.25 A 51.17,51.17 0 0 0 306,867 Z"
           class="cls-5" />
        <path
           style="fill:#606060"
           inkscape:connector-curvature="0"
           id="path31"
           d="m 256,768.13 -3.24,-47.61 c 1,-4.85 0.53,-12.09 6.81,-12.07 6.28,0.02 5.77,7.23 6.73,12.1 2.83,15.31 2,30.61 -0.08,45.91 -3.69,-1.05 -6.98,0.22 -10.22,1.67 z"
           class="cls-5" />
        <path
           style="fill:#606060"
           inkscape:connector-curvature="0"
           id="path33"
           d="M 276.8,768.93 C 272.53,753 269.67,737 274,720.57 c 3,-2.79 1.55,-9.89 7.45,-9.35 4.53,0.42 3.65,6.41 6.14,9.31 -0.09,7.45 -0.49,14.91 -0.2,22.34 0.36,9.4 -0.43,18.25 -7.76,25.2 z"
           class="cls-5" />
        <path
           style="fill:#606060"
           inkscape:connector-curvature="0"
           id="path35"
           d="m 879,736.46 c -3.78,13 -11.59,24.79 -11.19,39 l -11,-11.79 c 3.28,-8.73 6.67,-17.43 5.94,-27 5.48,-10.22 1.38,-20.4 -0.13,-30.58 -0.52,-3.47 -1.62,-7.39 3.09,-8.69 3.17,-0.88 4.68,1.47 5.27,4.36 -6.45,13.05 -0.51,27 -3,40.37 -0.64,1.37 -1.29,2.73 -1.86,4.13 0,0.09 0.57,0.45 0.88,0.68 l 1.24,-4.63 c 9.12,-8.05 1.11,-20.52 7.53,-29.27 3.23,7.45 2.88,15.49 3.23,23.42 z"
           class="cls-5" />
        <path
           style="fill:#606060"
           inkscape:connector-curvature="0"
           id="path37"
           d="m 295.52,765.78 c -3.62,-15 -2,-30.23 -2.52,-45.37 6.17,-7.75 10.41,-6.22 13.11,2.72 -1,14.3 2.44,28.87 -2.57,42.94 z"
           class="cls-5" />
        <path
           style="fill:#606060"
           inkscape:connector-curvature="0"
           id="path39"
           d="m 844,775.85 c 1.69,-6.78 0.25,-13.5 -0.33,-20.24 5.67,-14.75 2.15,-29.94 1.86,-44.95 0,-1.16 -3.3,-2.27 -5.06,-3.4 1.56,-4.16 1.06,-11.2 7.89,-9.5 5.72,1.43 3.43,7 2.28,11.16 -2,7.29 -1.76,14.68 -1.06,22.1 l 6,32.53 C 852,768 850.43,774.18 844,775.85 Z"
           class="cls-5" />
        <path
           style="fill:#606060"
           inkscape:connector-curvature="0"
           id="path41"
           d="m 840.47,707.27 c 1.76,1.13 5,2.23 5.06,3.4 0.29,15 3.81,30.2 -1.86,44.95 l 0.16,-0.28 c 0.09,-2.25 -0.16,-4.34 -2.63,-5.32 v 0 l -2,-4.87 -3.9,-8.76 c 0.95,-9.84 -0.65,-20.14 5.17,-29.12 z"
           class="cls-5" />
        <path
           style="fill:#606060"
           inkscape:connector-curvature="0"
           id="path43"
           d="m 855.57,763.57 -6,-32.53 c 5.81,-1.52 6.84,8.24 13.14,5.56 0.73,9.61 -2.66,18.31 -5.94,27 l -0.62,0.34 z"
           class="cls-5" />
        <path
           style="fill:#606060"
           inkscape:connector-curvature="0"
           id="path45"
           d="m 875.72,713 c -6.43,8.75 1.59,21.21 -7.53,29.27 l -0.25,-0.18 c 2.49,-13.35 -3.45,-27.32 3,-40.38 l -0.22,0.28 2.41,4.69 a 6.1,6.1 0 0 1 2.59,6.32 z"
           class="cls-5" />
        <path
           style="fill:#606060"
           inkscape:connector-curvature="0"
           id="path47"
           d="m 668.35,739.24 q 0.06,-4 0.12,-8 c 4.7,-4.35 8.68,-12.84 15.91,-2.79 l -0.94,1 c -9.02,-2.88 -10.61,5.67 -15.09,9.79 z"
           class="cls-5" />
        <path
           style="fill:#606060"
           inkscape:connector-curvature="0"
           id="path49"
           d="m 689.18,738.91 -2.27,3.38 a 14.13,14.13 0 0 1 -2.43,-0.08 l -0.68,-0.68 -0.37,-12.14 0.94,-1 c 5.39,1.8 4.31,6.52 4.81,10.52 z"
           class="cls-5" />
        <path
           style="fill:#606060"
           inkscape:connector-curvature="0"
           id="path51"
           d="M 873.12,706.65 870.71,702 c 2.19,0.81 2.06,2.85 2.41,4.65 z"
           class="cls-5" />
        <path
           style="fill:#606060"
           inkscape:connector-curvature="0"
           id="path53"
           d="m 899.42,1015.57 c -7.73,-5.66 -3.38,-15.7 -2.88,-20.58 3,-28.95 2.76,-58 4.6,-86.93 0.8,-12.58 0.32,-25.24 0.35,-37.87 0,-7.35 2.62,-10.78 10.93,-11.12 33.67,-1.38 33.39,-1.67 35.41,32.67 2.32,39.3 5.18,78.57 7.81,117.85 z m 40.94,-147.13 c -2.85,7.93 -5,13.65 -7,19.45 -10.1,30.08 -21.63,59.64 -25.4,91.61 -3.34,28.38 0.48,32.11 27.93,24.67 8.81,-2.39 9.46,-7.44 9.27,-14.6 -1,-38.86 -1.91,-77.73 -2.88,-116.6 0.02,-0.74 -0.58,-1.48 -1.91,-4.53 z"
           class="cls-5" />
        <path
           style="fill:#606060"
           inkscape:connector-curvature="0"
           id="path55"
           d="m 692.37,986.34 c 1,-1.34 2.15,-3.92 3,-3.83 17.14,1.78 16.24,-9.67 15.71,-21 -0.14,-3.07 -0.49,-6.24 0.09,-9.2 2.87,-14.61 -0.73,-23.54 -17.85,-22.47 -6.12,0.38 -8.84,-4.78 -11.15,-9.65 -1.71,-7.29 2,-13.81 2.92,-20.73 10.45,-4.49 20.94,-0.05 31.34,0.3 14.94,0.5 29.77,3.55 44.71,4.64 11.14,0.82 10.74,7.9 10.7,15.86 0,8.41 -2.56,13.64 -12.12,13.31 -8.78,-0.3 -17.58,-0.07 -27.74,-0.08 6.87,11.34 5.12,22.85 5.06,34 0,8.1 0.92,14.25 11.05,13.74 5.56,-0.28 8,2.73 8,8.11 l -34.91,0.11 C 712,985.16 701.92,988 692.37,986.34 Z"
           class="cls-5" />
        <path
           style="fill:#606060"
           inkscape:connector-curvature="0"
           id="path57"
           d="m 593.55,938.72 c -8.66,-5.75 -5.86,-15.69 -8.27,-23.63 -2.67,-8.77 -5.82,-13.68 -16.46,-14.32 A 201.67,201.67 0 0 0 518.88,904 c -10.69,2 -16.88,6.55 -19,18 -1,5.65 0.72,13.93 -7.5,16.91 0,-12.84 -0.56,-25.72 0.3,-38.51 0.93,-13.69 5.43,-24.83 19.6,-31.93 8.95,-4.48 15.47,-12.35 25.57,-3.49 a 2.68,2.68 0 0 0 2.55,0.18 c 13.2,-10.12 25.48,-0.76 38.45,0.83 13.69,1.68 15.7,8.8 15.5,19.63 -0.3,17.71 -0.53,35.38 -0.8,53.1 z"
           class="cls-5" />
        <path
           style="fill:#606060"
           inkscape:connector-curvature="0"
           id="path59"
           d="m 438.72,777.93 c 6.88,14.8 0,29.59 -0.79,44.2 -2,33.94 -6.15,67.75 -9.52,101.61 -0.57,5.7 -1.56,11.36 -2.45,17 -0.65,4.14 -3,6.2 -7.36,5.8 -4.5,-0.41 -6.25,-3.39 -6,-7.28 0.47,-6.6 2.15,-13.15 2.23,-19.73 0.56,-45.19 1.45,-90.39 -0.36,-135.58 l 6.66,-3.63 z"
           class="cls-5" />
        <path
           style="fill:#606060"
           inkscape:connector-curvature="0"
           id="path61"
           d="m 855,1255 -8.81,3 c 0.46,-4.38 -3.46,-6.16 -5.42,-9.11 0.17,-12.24 0.38,-24.49 0.5,-36.73 0.11,-10.94 0.06,-21.89 0.2,-32.83 0.06,-4.45 1.87,-7.74 6.91,-7.74 4,0 5.74,1.8 3.87,5.84 -4.5,11.47 -5.55,22.73 2.08,33.45 0.26,4.22 -1.32,8.6 1.56,13.63 4.64,-5 9.57,-9.34 13.16,-14.59 2.14,-3.13 9.82,-7.12 3.25,-11 -4.7,-2.8 -11.69,-0.54 -15,5.76 -1,1.86 -1.72,3.86 -2.57,5.8 q 0.2,-12 0.41,-23.93 l 4.21,-0.49 c 16.59,1.2 33.26,-2 49.83,0.83 q -0.18,5.28 -0.35,10.56 c -5.53,0.44 -12.45,-1.25 -12.14,8 -7.24,1.55 -5.51,7 -4.39,11.4 2.44,9.47 1.68,19 1.63,28.56 0,7.5 -2.88,9.1 -8.09,2.82 0,-7.52 0.41,-15.06 0,-22.56 -0.27,-4.57 2.72,-11.91 -2.33,-13.12 -6,-1.43 -8.52,6.48 -12,10.67 -3,3.59 -0.93,7.51 1.79,10.79 3.4,4.1 6.87,8.15 7.92,13.61 l -12.39,3.1 c -0.93,-5.68 -2.22,-12.66 -9,-12.22 -7.11,0.47 -5.37,7.44 -4.93,12.54 z"
           class="cls-5" />
        <path
           style="fill:#606060"
           inkscape:connector-curvature="0"
           id="path63"
           d="m 899.42,1015.57 56.23,-6 c 11.51,11.42 13.36,26.23 14.13,41.27 0.26,5.1 -4.07,7.64 -8.05,9.68 a 147.44,147.44 0 0 1 -53.17,15.5 c -8.91,0.87 -14.42,-2.32 -15.69,-11.77 -2,-15.1 -0.83,-30 1.65,-44.93 0.48,-2.74 2.98,-2.87 4.9,-3.75 z m 47.68,27.07 a 66.27,66.27 0 0 0 -7.92,0.6 c -9.09,1.76 -18.18,3.39 -27.18,5.76 -4.64,1.21 -11.71,1.33 -9.55,9.5 2,7.41 7.17,9.61 14.29,7.52 11,-3.23 22,-6.32 32.9,-10 4.14,-1.4 11.36,-1.12 10.44,-7.65 -0.98,-6.95 -7.72,-5.78 -12.98,-5.72 z m -39.94,-23.57 c 6.44,12.27 29.15,22 40.49,17.79 6.84,-2.55 9.36,-7.53 8.49,-14.63 -0.94,-7.69 -6.4,-7.31 -11.88,-6.79 -12.26,1.15 -24.59,2.4 -37.11,3.64 z"
           class="cls-5" />
        <path
           style="fill:#606060"
           inkscape:connector-curvature="0"
           id="path65"
           d="m 477.28,1276.65 c 45.29,-3.42 90.67,-2 136,-2.42 6.68,-0.06 13.22,-0.94 18.39,-5.89 l 1.16,-0.19 1.18,0.07 c 2.91,19.58 2.91,19.6 -17,19.6 -35.77,0 -71.55,0 -107.32,0.06 -4.77,0 -9.77,-1 -14.2,1.84 l -22.18,0.19 c 0.69,-4.61 -0.87,-9.91 3.97,-13.26 z"
           class="cls-5" />
        <path
           style="fill:#606060"
           inkscape:connector-curvature="0"
           id="path67"
           d="m 291.91,1143.76 c -17.32,-0.13 -18,-0.76 -18,-18 0,-1.33 0,-2.66 0,-4 0.09,-32.52 0.07,-32.68 -31.57,-28 -8.86,1.3 -17.37,2 -26.26,-0.23 -8.16,-2.08 -14.09,0.66 -13.95,10.52 0,1.33 -0.07,2.66 -0.12,4 -1.14,35.62 -1.33,35.81 -35.86,35.66 q 0,-4 0,-7.93 c 30,1.18 30.51,1.15 30.09,-29.16 -0.18,-12.83 2.3,-19.85 16.23,-25.32 22,-8.64 41.9,-7.52 62.5,1.64 5.92,2.63 6.47,8.45 6.61,13.53 a 287.57,287.57 0 0 1 -0.91,30.53 c -0.66,8.38 1.5,13.13 10.9,11.57 z"
           class="cls-5" />
        <path
           style="fill:#606060"
           inkscape:connector-curvature="0"
           id="path69"
           d="m 345.91,1077.31 c -17.64,-0.24 -35.35,0.59 -52.7,-3.58 -3.24,-0.78 -8.23,-0.71 -8.74,-4.61 -0.72,-5.5 5.12,-5.58 8.49,-6.26 a 180.36,180.36 0 0 1 44.69,-3.81 c 14.09,0.7 28.17,1.71 42.27,2.18 6.67,0.22 11.41,1.9 11.11,9.62 -0.29,7.38 -5.94,6.4 -10.67,6.44 -11.49,0.1 -22.97,0.02 -34.45,0.02 z"
           class="cls-5" />
        <path
           style="fill:#606060"
           inkscape:connector-curvature="0"
           id="path71"
           d="m 852.24,1177.41 c 1.87,-4 0.1,-5.84 -3.87,-5.84 -5,0 -6.86,3.29 -6.91,7.74 -0.14,10.94 -0.1,21.89 -0.2,32.83 -0.12,12.25 -0.33,24.49 -0.5,36.74 -15.74,0.22 -31.42,3.53 -47.22,0.95 -0.2,-7 -0.57,-14.09 -0.57,-21.14 0,-21.29 6.25,-25.18 25.41,-15.26 4,2 6.87,1.86 9.49,-0.58 4,-3.75 -0.1,-6.3 -2.31,-8.64 -10.12,-10.7 -22.45,-7.64 -34.63,-5.29 6.23,-11.18 20.32,-12.55 33.55,-3.37 3,2.06 5,7.54 9.63,4.58 3.12,-2 1.59,-6.51 1.75,-9.94 a 51,51 0 0 0 0,-9.23 c -1.51,-11.12 4.28,-13.24 14,-13.09 11.53,0.18 10.06,6.91 8.85,14.28 -0.2,1.22 0.4,2.57 0.63,3.87 l -4.22,0.48 c -1.22,-2.97 0.01,-6.67 -2.88,-9.09 z m -16.83,51.64 c -1.06,-2.26 0.53,-12.86 -2.44,-11.31 -11.46,5.95 -19.56,-0.49 -29,-3.53 -2.78,-0.9 -5.86,2.6 -6.72,5.53 -2.13,7.31 -2.95,14.84 1.53,21.72 4.79,7.36 10.45,9.82 16.66,1.58 2.32,-3.08 4,-5.85 8.38,-3.11 10.48,6.63 13.32,2.07 11.59,-10.88 z"
           class="cls-5" />
        <path
           style="fill:#606060"
           inkscape:connector-curvature="0"
           id="path73"
           d="m 802.88,762.36 c -5.62,1.81 -10.39,4.39 -10.35,11.36 -5,-0.68 -11,-11.57 -14.76,1 -1.13,3.81 -1.86,9.6 3.22,11.53 8.06,3.06 8.59,-4.92 11.54,-9.19 a 28.75,28.75 0 0 1 -0.69,15.19 l -18.65,-0.15 c 2,-12.34 2.39,-23.32 -14.21,-26.3 -4.51,-0.81 -9.67,-6.37 -9.65,-11.39 0.02,-5.02 6.64,-6.41 10.94,-8 11.38,-4.19 22.79,-8.89 35.34,-3.76 4.71,1.93 8.63,4.26 10.49,9.21 -9.66,1.82 -20,-1 -30.55,3.52 9.38,5.69 20.54,-2.94 27.33,6.98 z"
           class="cls-5" />
        <path
           style="fill:#606060"
           inkscape:connector-curvature="0"
           id="path75"
           d="m 438.72,777.93 -17.57,2.43 C 424.09,773.67 431,776 436,774 c 5.51,-2.12 5.85,-5.74 5.55,-10.38 -0.35,-5.49 -4.15,-5.92 -8.37,-6 a 53.12,53.12 0 0 0 -21.92,4 c -11.54,4.82 -15.6,16.48 -8.95,23.4 l -18.59,7.45 c 2.52,-6.48 -0.78,-11.5 -3,-17.44 -3.27,-8.78 -3.65,-18.63 -5.26,-28 13.33,1.24 26.23,5.81 39.81,5.1 l 26.44,-0.15 c 7.2,14.02 6.36,21.26 -2.99,25.95 z"
           class="cls-5" />
        <path
           style="fill:#606060"
           inkscape:connector-curvature="0"
           id="path77"
           d="m 191.63,938.93 c -0.09,29.66 -0.08,59.32 -0.37,89 -0.05,5.28 2.07,13.72 -6.29,13.38 -7.3,-0.3 -6.33,-8.41 -6.4,-14 -0.37,-29.66 -0.56,-59.32 -0.81,-89 z"
           class="cls-5" />
        <path
           style="fill:#606060"
           inkscape:connector-curvature="0"
           id="path79"
           d="m 675.63,842.91 c 1.9,-5.11 6.19,-4 10.07,-3.84 17.66,0.5 35.31,1.07 53,1.48 9.48,0.22 17.23,3.31 16.93,14.06 -0.29,10 -7.66,12.51 -16.73,12.64 -16.78,0.26 -33.55,1.11 -50.31,1.82 -4.51,0.19 -9,0.75 -10.87,-4.78 z m 63.09,5.32 c -17.47,-6.8 -35.42,-5.37 -53.1,-4.17 -6.43,0.43 -3.78,7.81 -4,12.29 -0.12,2.94 0,7.29 4.34,6.59 17.99,-2.86 36.87,-2.35 52.76,-14.71 z"
           class="cls-5" />
        <path
           style="fill:#606060"
           inkscape:connector-curvature="0"
           id="path81"
           d="m 277.12,944.1 c 0.61,10.54 3.55,20.38 7.77,30.09 5.55,12.77 3.72,25.58 -2.26,37.91 -2.09,-10.71 1.53,-22.32 -4.63,-32.52 1.65,9.27 -0.29,18.26 -0.94,27.29 -0.3,4.09 -1.7,9 3.73,11.41 -1.62,2.89 -3.63,5.58 -7.22,3.11 -3.59,-2.47 -2.2,-6.43 -1.32,-9.74 4.63,-17.29 1.29,-33.67 -5.39,-52.36 -6.71,17.62 -11.09,32.94 -7.4,49.64 1,4.37 4.67,10.95 -1.91,12.53 -7.61,1.83 -6.6,-6.26 -8.19,-10.87 5,1.58 6.12,-1.08 6.06,-5.41 -0.11,-8.82 0.11,-17.64 -0.09,-26.45 -0.09,-4.11 1.55,-9.24 -4.61,-10.89 3.67,-7.48 3.2,-15.77 4.67,-23.69 1.21,1.14 2.84,2.06 3.56,3.45 5,9.74 9.72,9 14.66,0 0.75,-1.41 2.31,-2.36 3.51,-3.5 z"
           class="cls-5" />
        <path
           style="fill:#606060"
           inkscape:connector-curvature="0"
           id="path83"
           d="m 773.18,792.07 18.65,0.15 c 0.69,25.2 1.2,50.4 2.21,75.59 0.24,6 2.08,12 -7,12.27 -8.49,0.23 -7.06,-6.11 -7.25,-11.23 -0.79,-21.64 -1.83,-43.29 -2.05,-64.94 -0.05,-5.02 -2.23,-8.22 -4.56,-11.84 z"
           class="cls-5" />
        <path
           style="fill:#606060"
           inkscape:connector-curvature="0"
           id="path85"
           d="m 982.42,850.54 c 2,-23.78 -6.12,-45 -5,-66.91 0.44,-8.57 -1.33,-22.49 7.37,-22.6 9.49,-0.12 7.44,13.82 7.66,22.07 a 183.28,183.28 0 0 1 -4.17,43.75 c -2.68,12.44 -0.48,25.56 1.1,38.35 0.43,3.51 1.94,9.46 -3.87,9.47 -5,0 -2.81,-5.5 -3,-8.63 -0.33,-5.75 -0.09,-11.52 -0.09,-15.5 z"
           class="cls-5" />
        <path
           style="fill:#606060"
           inkscape:connector-curvature="0"
           id="path87"
           d="m 367.39,964.09 -5.19,-0.55 -3,-0.78 C 355,946.99 344.66,933.31 343.4,916.58 a 38.07,38.07 0 0 1 2.4,-17.49 l 18.66,48.54 16.76,-47.3 c 7,24 -6.11,42.47 -8.6,62.43 z"
           class="cls-5" />
        <path
           style="fill:#606060"
           inkscape:connector-curvature="0"
           id="path89"
           d="m 237.1,1250 c -18,0.53 -35.84,-3 -53.85,-0.66 -4.74,0.62 -9.84,0.57 -13.21,-4.09 l 3.2,-1.23 c 2.57,-6.18 7.35,-7.11 13.63,-7.19 19.45,-0.26 39,1.53 58.34,-1.29 6.68,1.43 13.34,3.89 20,4 7.49,0.12 9.87,3.39 9.93,9.95 -12.69,-3.49 -25.3,3.23 -38.04,0.51 z"
           class="cls-5" />
        <path
           style="fill:#606060"
           inkscape:connector-curvature="0"
           id="path91"
           d="m 990.71,1043 c -4.81,-1.1 -5.46,-3 -5.35,-4.6 2,-30.29 -7.54,-59.87 -5.45,-90.13 0.43,-6.27 -1.26,-15.61 7.37,-15.78 7.4,-0.15 7.4,9.26 7.47,14.85 a 283.49,283.49 0 0 1 -3.51,49 c -2.41,14.87 -0.53,30.52 -0.53,46.66 z"
           class="cls-5" />
        <path
           style="fill:#606060"
           inkscape:connector-curvature="0"
           id="path93"
           d="m 758.4,1098.36 c 15,-0.85 30.42,4.3 45.09,-4.43 4,-2.37 11.63,-2.89 15.74,2.73 2.21,3 3.91,6.61 1.61,11 -3.83,7.37 -12.32,6.91 -16.24,5.32 -26.06,-10.54 -53.2,-3 -79.57,-6.32 -4,-0.5 -10.94,1.54 -10.79,-4.25 0.15,-5.79 7,-3.4 11,-3.56 8.38,-0.34 16.79,0.06 25.18,0.16 2.9,2.59 5.28,-1.01 7.98,-0.65 z"
           class="cls-5" />
        <path
           style="fill:#606060"
           inkscape:connector-curvature="0"
           id="path95"
           d="m 114.25,1087.13 0.41,-4.89 c 4.85,-0.55 4.85,-4.06 4.77,-7.7 -0.15,-7.84 -0.24,-15.69 -0.35,-23.53 q 0.24,-0.71 0.45,-1.43 l 34.95,1.81 c 1.16,13.11 -3.68,23.82 -13.11,32.69 z"
           class="cls-5" />
        <path
           style="fill:#606060"
           inkscape:connector-curvature="0"
           id="path97"
           d="m 908.77,1197.38 q 0.17,-5.28 0.35,-10.56 c 16.18,-1.84 32.21,-6 48.69,-3 6.26,1.14 13.47,2.16 12.69,10.41 -0.66,7 -7.21,8.25 -13.26,8.31 -16.35,0.18 -32.84,1.46 -48.47,-5.16 z"
           class="cls-5" />
        <path
           style="fill:#606060"
           inkscape:connector-curvature="0"
           id="path99"
           d="m 721.23,989.49 34.91,-0.11 c 1.43,1.15 5.44,1.76 3.25,4 -5.43,5.52 -3,11.71 -2.91,17.78 l -0.71,4.71 c -19.16,0.17 -38.31,0.39 -57.47,0.46 -3.69,0 -8.36,1 -8.45,-5.18 19.76,3.88 39,3.88 57.64,-7.21 -12.59,-3 -25,-2.16 -36.83,-4.32 -8.88,-1.62 -15.06,-0.14 -20.42,6.59 a 15.56,15.56 0 0 0 -1.31,-14 2.19,2.19 0 0 0 0.39,-2.36 l 0.27,-0.57 a 41.1,41.1 0 0 0 31.64,0.21 z"
           class="cls-5" />
        <path
           style="fill:#606060"
           inkscape:connector-curvature="0"
           id="path101"
           d="m 790.92,1198.91 c 12.18,-2.35 24.51,-5.41 34.63,5.29 2.21,2.34 6.33,4.89 2.31,8.64 -2.62,2.44 -5.53,2.63 -9.49,0.58 -19.16,-9.92 -25.39,-6 -25.41,15.26 0,7 0.37,14.09 0.57,21.14 l -13.34,0.67 c 0,-8.87 0.29,-17.74 -0.05,-26.6 -0.39,-10.16 5.44,-17.41 10.78,-24.98 z"
           class="cls-5" />
        <path
           style="fill:#606060"
           inkscape:connector-curvature="0"
           id="path103"
           d="m 200.7,901.58 c 4,-7.13 10.28,-5.37 16.22,-3.81 5.94,1.56 8.06,6.29 8.57,11.95 0.12,1.31 0.09,2.63 0.16,3.95 1.12,23 -0.58,24.83 -23.47,25 l -0.16,-8.18 z"
           class="cls-5" />
        <path
           style="fill:#606060"
           inkscape:connector-curvature="0"
           id="path105"
           d="m 448.87,1017.55 c -3.74,-20 -2.48,-40.34 -3.2,-60.53 -0.34,-9.63 1.21,-19.57 -0.7,-28.84 -2.58,-12.52 3.92,-10.29 8.79,-9.72 v 99.21 z"
           class="cls-5" />
        <path
           style="fill:#606060"
           inkscape:connector-curvature="0"
           id="path107"
           d="m 868.72,1250.7 12.39,-3.1 4.68,0.6 c 5.21,6.28 8.06,4.68 8.09,-2.82 0,-9.53 0.81,-19.09 -1.63,-28.56 -1.12,-4.36 -2.85,-9.86 4.39,-11.4 1,10.5 2.68,21 2.76,31.52 0.06,8.48 2.6,12.36 11.41,11 a 45.08,45.08 0 0 1 7.91,0 c 2.66,0.07 5.61,0.06 5.94,3.63 0.44,4.75 -3.27,4.3 -6.26,4.54 -8.08,0.64 -17.5,-3 -21.79,8.56 -1.16,3.15 -7.21,3.34 -9.44,0.83 -7.78,-8.76 -16.69,-11.37 -27.79,-8 -1.11,0.34 -2.92,-1.65 -4.4,-2.56 q -0.08,-2 -0.17,-4 z"
           class="cls-5" />
        <path
           style="fill:#606060"
           inkscape:connector-curvature="0"
           id="path109"
           d="m 401.32,1023 c 10.26,9.38 16.55,18.19 16.6,30.65 0,12.75 0.25,25.52 1.13,38.23 0.66,9.6 -5,9.38 -11.62,9.11 -6,-0.24 -12.88,1.46 -11.81,-8.71 2.38,-22.41 -1.08,-45.41 5.7,-69.28 z m -1.94,50.16 c 0,6.7 -0.25,12 0.07,17.27 0.27,4.43 3.58,5.6 7.49,5.7 3.91,0.1 7.49,-0.64 7.91,-5.09 1.22,-12.81 1.24,-25.58 -3.83,-37.77 -0.84,-2 -1.89,-4.13 -4.44,-4.4 -3.52,-0.36 -4,2.63 -5.24,4.88 -3.68,6.67 -1.21,13.9 -1.96,19.41 z"
           class="cls-5" />
        <path
           style="fill:#606060"
           inkscape:connector-curvature="0"
           id="path111"
           d="m 200.7,901.58 1.32,29 c -11.87,-1.59 -21,-9.48 -31.85,-13.57 l -0.36,-18.14 c 10.49,-1.39 21.45,-7.87 30.89,2.71 z"
           class="cls-5" />
        <path
           style="fill:#606060"
           inkscape:connector-curvature="0"
           id="path113"
           d="m 127.42,720.12 c 2.69,1.58 7.58,-2.7 8.62,3.25 l -0.24,-0.19 -2.12,2.55 c -11.41,18 -9.81,38.6 -11.83,58.49 -5.86,9.16 1.24,20.42 -4.82,29.55 -6.39,-25.11 -9.63,-50.22 -0.23,-75.37 3.32,-1.45 2.57,-4.52 2.82,-7.19 l 0.19,-0.37 c 2.29,-0.89 2,-3.1 2.45,-4.89 l 0.23,-0.41 2.53,-2.6 v 0 c 1.56,-0.23 2.61,-1 2.65,-2.7 z"
           class="cls-5" />
        <path
           style="fill:#606060"
           inkscape:connector-curvature="0"
           id="path115"
           d="m 237.1,1250 c 12.74,2.73 25.35,-4 38.09,-0.52 -5,13 -16.25,8.47 -25.66,9.06 -3.74,0.24 -9.67,-4.25 -10.32,2.85 -0.53,5.86 4.42,7.61 9.93,6.54 5.82,5.26 11.74,2.51 17.64,0.19 l 10.6,0.07 L 277,1279 c -4.88,6.31 -10.3,11.79 -19.14,12.53 -2.12,-4.3 5.3,-8 1,-11.8 -3.33,-3 -7.47,0.69 -11.26,0 -12.11,-6.85 -16.82,-16.34 -10.5,-29.73 z"
           class="cls-5" />
        <path
           style="fill:#606060"
           inkscape:connector-curvature="0"
           id="path117"
           d="m 169.81,898.83 q 0.18,9.07 0.36,18.15 l -1.7,19 c -21,0.26 -28.77,-10.17 -21.5,-30.34 4.14,-11.5 14.84,-5.64 22.84,-6.81 z"
           class="cls-5" />
        <path
           style="fill:#606060"
           inkscape:connector-curvature="0"
           id="path119"
           d="m 840.68,1069.2 c -9.68,7.42 -21.43,6.73 -32.49,7.45 -16.55,1.08 -33.2,0.73 -49.81,1 a 4.21,4.21 0 0 0 -2.06,0 l 0.63,-9.7 c 14.4,-2.29 28.92,-1.31 43.36,-1 13.45,0.21 27.17,-2.79 40.37,2.25 z"
           class="cls-5" />
        <path
           style="fill:#606060"
           inkscape:connector-curvature="0"
           id="path121"
           d="m 402.34,785 c -6.66,-6.93 -2.6,-18.58 8.95,-23.4 a 53.12,53.12 0 0 1 21.92,-4 c 4.21,0.11 8,0.54 8.37,6 0.29,4.64 0,8.26 -5.55,10.38 -5,1.92 -11.93,-0.36 -14.87,6.32 l -6.67,3.7 z"
           class="cls-5" />
        <path
           style="fill:#606060"
           inkscape:connector-curvature="0"
           id="path123"
           d="m 162.34,1210.29 c -0.74,-34 -0.74,-34.11 32.86,-34.23 32.23,-0.11 64.46,0.09 96.69,0.15 -4.08,3.83 -9.16,2.34 -13.84,2.37 -22.82,0.13 -45.65,0 -68.48,0 9,2 18.1,1.86 27.15,2.06 4.13,0.09 9.27,-1.23 10.42,5.16 l -7.56,-0.09 a 7,7 0 0 0 -8.13,-0.45 c -16.56,-0.54 -33.14,-0.82 -49.68,-1.71 -10.18,-0.55 -13.37,4.2 -12.05,13.47 -6.87,1.98 -2.08,10.44 -7.38,13.27 z"
           class="cls-5" />
        <path
           style="fill:#606060"
           inkscape:connector-curvature="0"
           id="path125"
           d="m 878,1107.35 c 8.3,-0.78 16.65,-2.55 24.68,1.39 -2.25,6.52 4.62,13 0,19.54 -1.17,-1.28 -2.29,-2.61 -3.52,-3.83 -6.77,-6.72 -14.4,-8.14 -22.58,-2.94 -6.44,4.09 -8.48,10.27 -5.07,17.1 4.27,8.55 12,9.3 20.34,7.26 1.68,-0.41 3.33,-0.95 5,-1.43 -3,11.87 -12.53,6.44 -19.54,7.13 -7.64,0.76 -8.48,-5.14 -10.43,-10.85 -3.26,-9.56 0.26,-19.27 -1.92,-28.7 v 0 c 4.89,-0.23 10.65,2.24 13.04,-4.67 z"
           class="cls-5" />
        <path
           style="fill:#606060"
           inkscape:connector-curvature="0"
           id="path127"
           d="m 907.89,826.62 23.83,1.11 c 1.44,13.5 -5.15,16.57 -17.66,15.76 -18,-1.16 -36.18,-0.69 -54.26,-0.24 -7.27,0.18 -9.62,-2.24 -8.13,-9.09 1.2,-5.52 -3,-14.34 9.09,-12.64 15.64,2.2 31.41,3.48 47.13,5.1 z m -52.48,13.6 c 22.76,0 43.62,0.06 64.48,0 3.34,0 6.22,-1.32 6,-5.38 -0.22,-4.06 -3.58,-4.39 -6.71,-4.62 -11.39,-0.83 -22.88,-2.89 -34.16,-2.09 -9.79,0.67 -21.31,-0.43 -29.61,12.08 z"
           class="cls-5" />
        <path
           style="fill:#606060"
           inkscape:connector-curvature="0"
           id="path129"
           d="m 745.27,1298.43 -5.5,-0.09 c -0.43,-11 2.74,-21.93 -7.8,-31.57 -4.65,-4.25 -7.66,-16 5.67,-19.29 6.5,-1.62 6.63,-8 7.11,-13 0.77,-7.9 0.45,-15.9 0.59,-23.86 l 5,-1.13 c 0.24,13.87 -4.2,27.51 -2,41.47 -1.55,0.74 -3,1.94 -4.66,2.15 -3.94,0.52 -8.68,-0.09 -8,6 0.64,5.94 5.54,4.15 9.27,4.69 9.38,1.36 17.58,-0.65 24.29,-7.61 l 2.86,2 c -1.22,5.75 -4.47,10.55 -10.44,10.35 -15.28,-0.53 -17.64,8.27 -16.4,20.52 0.19,3.15 -0.02,6.27 0.01,9.37 z"
           class="cls-5" />
        <path
           style="fill:#606060"
           inkscape:connector-curvature="0"
           id="path131"
           d="m 291.91,1143.76 -0.38,-5.19 c -0.69,-8.64 3.05,-12.71 12,-12.36 11.73,0.45 23.89,-1.26 32.76,9.39 3.15,3.78 4.7,6 0,10.6 -8,7.87 -30.93,14.65 -40.32,10.37 -6.09,-2.77 -1.92,-8.79 -4.06,-12.81 z m 21.53,-13.36 c -3.38,0 -4.72,0.13 -6,0 -10.74,-1.21 -12.53,4.78 -11.91,13.78 0.52,7.53 4.32,7.64 9.79,5.71 8.22,-2.9 19.31,-1.84 20.94,-14.08 0.35,-2.61 -2.74,-4.38 -5.58,-4.75 -3.09,-0.42 -6.19,-0.57 -7.23,-0.66 z"
           class="cls-5" />
        <path
           style="fill:#606060"
           inkscape:connector-curvature="0"
           id="path133"
           d="m 855.57,763.57 0.58,0.4 0.62,-0.34 11,11.79 a 16.86,16.86 0 0 0 0.6,2.57 c 2.7,6.69 9.38,14.08 1.33,20.25 -6.54,5 -15.66,3.63 -22.64,0 -8.7,-4.5 -6.16,-12.49 -3.18,-19.81 a 7.72,7.72 0 0 0 0.08,-2.62 c 6.47,-1.63 8.04,-7.81 11.61,-12.24 z m 1.59,34.43 c 2,-0.61 4.17,-1.9 4.31,-5 0.14,-3.1 -1.3,-5.05 -4.56,-5 a 4.38,4.38 0 0 0 -4.32,4.09 c -0.45,2.91 0.47,5.21 4.57,5.91 z"
           class="cls-5" />
        <path
           style="fill:#606060"
           inkscape:connector-curvature="0"
           id="path135"
           d="m 750.29,1209.52 -5,1.13 -8.48,0.6 c -13,0.58 -6.56,10.72 -8,16.8 -1,4 -1.35,8 -6.43,8.44 -2.81,0.27 -4.73,-0.95 -6,-3.87 a 25.63,25.63 0 0 1 18.25,-35.25 l 10,0.53 5.34,2.91 z"
           class="cls-5" />
        <path
           style="fill:#606060"
           inkscape:connector-curvature="0"
           id="path137"
           d="m 902.73,1128.28 c 4.6,-6.52 -2.27,-13 0,-19.54 6.21,2.38 8,7.17 7.77,13.42 -0.28,9.07 -0.15,18.14 -0.2,27.22 l -0.52,0.63 0.43,0.69 -5,4.34 c -10.69,3.51 -21.68,1.85 -32.53,1.57 -4.52,-0.12 -9.36,-2.66 -9.69,-7.44 -0.87,-12.4 -3.64,-25.05 2,-37.15 2.19,9.43 -1.34,19.14 1.92,28.7 1.95,5.71 2.79,11.61 10.43,10.85 7,-0.7 16.54,4.74 19.54,-7.14 l 0.59,-0.49 c 1.52,0.07 2.16,-0.72 2.1,-2.18 2.82,-4.09 3.55,-8.66 3.16,-13.48 z"
           class="cls-5" />
        <path
           style="fill:#606060"
           inkscape:connector-curvature="0"
           id="path139"
           d="m 117.34,1032.39 5.1,-1.22 a 1.52,1.52 0 0 1 -0.2,1.35 c 10.64,7.58 21.17,1 31.74,-0.24 10.08,3.75 3.87,12.59 5.89,18.86 l -5.38,0.26 -34.95,-1.81 c -6.96,-4.94 -5.87,-10.9 -2.2,-17.2 z"
           class="cls-5" />
        <path
           style="fill:#606060"
           inkscape:connector-curvature="0"
           id="path141"
           d="m 870.51,936.46 -4.74,86.6 c -7.22,-28.45 -4,-57.22 -5.85,-85.75 z"
           class="cls-5" />
        <path
           style="fill:#606060"
           inkscape:connector-curvature="0"
           id="path143"
           d="m 779.35,1125.82 c 13.28,-0.17 26.56,-0.39 39.83,-0.46 2.73,0 6,0.78 6,3.89 0,3.11 -3.21,4 -5.94,4.05 -11.07,0.24 -22.15,0.54 -33.22,0.37 -10.23,-0.16 -20.35,0.36 -30.34,2.67 l -7.7,0.3 a 6.39,6.39 0 0 1 -1.09,-1.32 c -6.14,-4 -14.75,1.11 -21.88,-6.07 19.05,-3.56 37.05,1.13 54.34,-3.43 z"
           class="cls-5" />
        <path
           style="fill:#606060"
           inkscape:connector-curvature="0"
           id="path145"
           d="m 295.52,765.78 8,0.29 c 5.84,19.93 1.54,40.17 1.79,60.27 0,2.54 -1.27,5.83 -4.5,5.42 -4.09,-0.53 -5.38,-4 -5.38,-7.85 q 0.03,-29.06 0.09,-58.13 z"
           class="cls-5" />
        <path
           style="fill:#606060"
           inkscape:connector-curvature="0"
           id="path147"
           d="m 796.18,1004 q 0,-13.25 0,-26.51 l 5.55,-1.11 23.28,-0.27 5.53,0.28 q -0.07,13.55 -0.13,27.11 l -7.94,0.29 a 14.31,14.31 0 0 0 -10.55,0 l -7.75,0.88 -3.24,-0.5 z m 26,-14.49 c -0.51,-4.61 -3.62,-6.91 -7.89,-6.71 -4.27,0.2 -7.47,2.6 -7.21,7.47 0.26,4.87 3.2,7 7.78,6.77 4.58,-0.23 7.09,-2.75 7.31,-7.55 z"
           class="cls-5" />
        <path
           style="fill:#606060"
           inkscape:connector-curvature="0"
           id="path149"
           d="m 276.8,768.93 2.78,-0.84 c 5.68,2.69 6.24,7.65 6.33,13.19 0.32,18.84 0.92,37.68 1.41,56.52 l -15.73,0.6 q 0.27,-11.83 0.54,-23.67 l 3,14.47 c 8.18,-17.72 9.06,-35.22 5.17,-56.12 -4.76,7.42 -2.64,12.46 -3.56,17.09 -1.12,5.64 3.09,12.5 -3.68,16.89 2.83,-12.56 -1.13,-25.78 3.74,-38.13 z"
           class="cls-5" />
        <path
           style="fill:#606060"
           inkscape:connector-curvature="0"
           id="path151"
           d="m 772,1258.26 -2.86,-2 c -12.28,0.42 -10.15,-9 -11.11,-16.3 l 0.69,-11.09 7.66,-0.06 c 0.37,3.89 0.9,7.78 1.08,11.69 0.4,8.32 4.44,11.82 12.74,10 l 13.34,-0.68 c 15.8,2.58 31.48,-0.73 47.22,-0.95 2,2.95 5.87,4.73 5.41,9.11 l -10.62,-2 a 1.75,1.75 0 0 0 -2,-0.18 l -5.83,0.81 c -13.48,-0.35 -27,-1.36 -40.42,0.56 -5.3,-3.17 -10.17,0.96 -15.3,1.09 z"
           class="cls-5" />
        <path
           style="fill:#606060"
           inkscape:connector-curvature="0"
           id="path153"
           d="m 840.68,1069.2 c -13.2,-5 -26.92,-2 -40.37,-2.32 -14.44,-0.3 -29,-1.28 -43.36,1 a 2.14,2.14 0 0 1 0.09,-2.5 l 1.45,-6.4 -0.2,-0.84 c 27.17,1.33 54.35,2.6 81.52,4.12 2.54,0.14 7.14,-1.43 7.13,3.2 -0.02,2.67 -3.63,3.32 -6.26,3.74 z"
           class="cls-5" />
        <path
           style="fill:#606060"
           inkscape:connector-curvature="0"
           id="path155"
           d="m 690.24,1006.19 c 5.36,-6.73 11.53,-8.21 20.42,-6.59 11.85,2.16 24.25,1.29 36.83,4.32 -18.61,11.09 -37.88,11.09 -57.64,7.21 z"
           class="cls-5" />
        <path
           style="fill:#606060"
           inkscape:connector-curvature="0"
           id="path157"
           d="m 298.17,1176.33 a 104,104 0 0 1 10.52,0 c 16,1.5 18.74,5 18.67,23.4 -7.58,12.23 -5,25.53 -4.68,40.33 3.87,-8.83 -1.41,-17.38 4.22,-24.16 l 1,21.16 -1.05,7.94 -2.87,0.57 -9.46,-0.6 q -0.11,-2.51 -0.21,-5 c 3.7,-0.23 4.85,-2.17 4.76,-5.83 -0.18,-7.22 0.14,-14.44 0.26,-21.66 l -0.35,-10.11 c 2.1,-7.56 2.12,-14.09 -7.82,-15.63 a 17.44,17.44 0 0 0 -13,-0.11 l -0.44,-0.31 z"
           class="cls-5" />
        <path
           style="fill:#606060"
           inkscape:connector-curvature="0"
           id="path159"
           d="m 375.49,747 c 1.61,9.39 2,19.24 5.26,28 2.21,5.94 5.51,11 3,17.44 -9.92,4.81 -14.29,1.48 -15,-9.32 -0.65,-9.64 -2.43,-19.21 -3.84,-28.8 -1.46,-9.76 3.09,-10.57 10.58,-7.32 z"
           class="cls-5" />
        <path
           style="fill:#606060"
           inkscape:connector-curvature="0"
           id="path161"
           d="m 326.89,1215.86 c -5.63,6.78 -0.35,15.33 -4.22,24.16 -0.35,-14.8 -2.9,-28.11 4.68,-40.33 l 5,0.23 8.1,2.69 -0.09,-0.12 c 9.4,8.64 11.49,19.81 11,31.87 l -0.36,-0.11 -12.85,2.67 -0.15,-0.22 c 0,-5.12 0.71,-10.37 -0.17,-15.34 -1.05,-5.81 -3.32,-11.65 -10.94,-5.5 z"
           class="cls-5" />
        <path
           style="fill:#606060"
           inkscape:connector-curvature="0"
           id="path163"
           d="m 734.68,1197.37 a 25.63,25.63 0 0 0 -18.25,35.25 c 1.24,2.92 3.16,4.13 6,3.87 5.07,-0.48 5.45,-4.43 6.43,-8.44 1.47,-6.07 -5,-16.22 8,-16.8 -1.2,5.93 -6,10.69 -5,17.4 1.28,8.77 -3.4,11.3 -11.62,11.3 -8.95,0 -9.85,-5.12 -9.73,-12 0.1,-5.6 1.19,-12.15 -7.75,-12.08 l -0.72,-4.46 c 4.73,-3.69 2.57,-9.75 4.79,-15 3.43,1 5.38,9.71 10.4,1.29 4.32,-7.28 11.47,-6.7 17.45,-0.33 z"
           class="cls-5" />
        <path
           style="fill:#606060"
           inkscape:connector-curvature="0"
           id="path165"
           d="m 255.41,941.22 c -5.58,-8.59 -0.08,-31.91 8.82,-37 a 5,5 0 0 1 3.61,-0.46 c 10.08,3.45 15.7,27.46 8.76,37.07 l -5.36,-8.42 c -0.64,-4.45 0.84,-11.79 -4.37,-11.94 -6.61,-0.19 -5.85,6.89 -5.52,12 -4.09,1.53 -5.89,4.53 -5.94,8.75 z"
           class="cls-5" />
        <path
           style="fill:#606060"
           inkscape:connector-curvature="0"
           id="path167"
           d="m 125,1098.43 -5.41,-0.07 c -6.53,-1.49 -4.82,-6.88 -5.31,-11.23 l 27.13,-3 18.33,0.82 c 1.49,9.88 -2.09,14.54 -12.7,13.56 -7.32,-0.71 -14.72,-0.11 -22.04,-0.08 z"
           class="cls-5" />
        <path
           style="fill:#606060"
           inkscape:connector-curvature="0"
           id="path169"
           d="m 265.52,770.9 q 0.53,33.14 1.06,66.27 c 0.05,3.42 1.21,7.78 -4.07,8.07 -6,0.34 -7,-4 -6.93,-8.9 q 0.23,-32.52 0.4,-65 z m -3,54.75 v -49.23 l -3.82,0.13 c -1.06,15.54 -1.83,31.09 3.83,49.09 z"
           class="cls-5" />
        <path
           style="fill:#606060"
           inkscape:connector-curvature="0"
           id="path171"
           d="m 180.61,856.12 q 0,-6 -0.08,-11.93 c 11.07,2.21 21.75,-3.34 32.81,-1.62 4.23,0.66 10.26,-0.56 10.87,5.06 0.72,6.63 -6,7.25 -10.42,7.6 -11.02,0.85 -22.12,0.66 -33.18,0.89 z"
           class="cls-5" />
        <path
           style="fill:#606060"
           inkscape:connector-curvature="0"
           id="path173"
           d="m 215.89,1047 c 0,-15.13 0.2,-30.26 0,-45.39 -0.16,-10.12 -0.81,-20.24 -1.51,-30.34 -0.22,-3.26 0.47,-5.17 4,-5.08 1.76,0 3.54,0.23 3.46,2.74 q -1.22,39.06 -2.43,78.13 z"
           class="cls-5" />
        <path
           style="fill:#606060"
           inkscape:connector-curvature="0"
           id="path175"
           d="m 362.71,1200.3 3.72,0.19 c 2.27,2.52 4.23,0.43 6.28,-0.41 3.89,10.49 1.63,21.36 1.69,32 0.05,9.82 -8.18,1.9 -11.7,4.56 a 7.87,7.87 0 0 0 -1.15,-2.3 z"
           class="cls-5" />
        <path
           style="fill:#606060"
           inkscape:connector-curvature="0"
           id="path177"
           d="m 702.7,1058.77 c 14.8,-4.47 30.07,-0.73 45,-2.57 a 16.14,16.14 0 0 1 2.28,10.63 l -1.81,2.6 c -9.66,-4.19 -19.85,-1.79 -29.8,-2.45 -6.37,-0.44 -13.6,0.56 -15.67,-8.21 z"
           class="cls-5" />
        <path
           style="fill:#606060"
           inkscape:connector-curvature="0"
           id="path179"
           d="m 168.47,936 1.7,-19 c 10.81,4.08 20,12 31.85,13.56 q 0.08,4.08 0.16,8.18 l -10.55,0.21 -13.87,-0.61 z"
           class="cls-5" />
        <path
           style="fill:#606060"
           inkscape:connector-curvature="0"
           id="path181"
           d="m 859.88,906.75 c -0.92,-6.47 -1.26,-13.1 -2.91,-19.38 -1.75,-6.68 0.38,-10.66 6.82,-11 7.28,-0.39 12.23,3.92 10.94,11.39 -1.17,6.81 -4.43,13.25 -6.77,19.86 z"
           class="cls-5" />
        <path
           style="fill:#606060"
           inkscape:connector-curvature="0"
           id="path183"
           d="m 117,813.76 c 6.06,-9.12 -1,-20.39 4.82,-29.54 a 406.62,406.62 0 0 0 5.35,52.85 c 0.77,4.59 1.55,8.68 6,11 l -1.16,8.12 c -3.14,-1.52 -9.45,0.92 -8.89,-5.15 1.26,-13.04 -5.65,-24.61 -6.12,-37.28 z"
           class="cls-5" />
        <path
           style="fill:#606060"
           inkscape:connector-curvature="0"
           id="path185"
           d="m 702.7,1058.77 c 2.07,8.78 9.28,7.78 15.7,8.2 9.95,0.66 20.14,-1.74 29.8,2.45 a 21.92,21.92 0 0 1 2.33,0.15 2.52,2.52 0 0 1 -0.07,2.35 c -15.89,4.67 -31.82,3.87 -47.76,0.34 -3.76,-0.83 -8.86,-1.22 -9,-5.94 -0.2,-5.11 4.3,-7 9,-7.55 z"
           class="cls-5" />
        <path
           style="fill:#606060"
           inkscape:connector-curvature="0"
           id="path187"
           d="m 748,1136.64 7.7,-0.3 c -3,21.39 0,43.32 -5.7,64.47 l -5.34,-2.91 c 1.63,-20.39 4.42,-40.72 3.34,-61.26 z"
           class="cls-5" />
        <path
           style="fill:#606060"
           inkscape:connector-curvature="0"
           id="path189"
           d="m 801.05,963 c -6.84,-12.94 -6.55,-13.43 7.59,-13 0.87,0 1.75,-0.06 2.63,0 6.5,0.24 13.89,-1.2 19.09,1.53 2.27,1.19 0.07,10.92 -0.1,16.78 Q 817.72,954.21 801.05,963 Z"
           class="cls-5" />
        <path
           style="fill:#606060"
           inkscape:connector-curvature="0"
           id="path191"
           d="m 354.05,989.66 c 1.39,2.7 3,5.32 4.13,8.12 3.68,9 0.62,15.94 -7.87,19.43 -8,3.29 -14.34,-1.44 -16.72,-8.57 -2.55,-7.63 -0.31,-14.78 8.81,-17.54 2.1,-0.64 4.13,-1.47 6.2,-2.21 z m -7.12,23.29 c 4.8,-0.39 7.12,-2.68 7.39,-7.55 0.3,-5.34 -1.74,-8.79 -7.05,-9.08 -5,-0.27 -8.64,2.31 -8.44,7.82 0.17,5.01 3.33,7.86 8.1,8.81 z"
           class="cls-5" />
        <path
           style="fill:#606060"
           inkscape:connector-curvature="0"
           id="path193"
           d="m 298.17,1176.33 q -0.23,5 -0.45,9.93 l -5.35,-0.2 a 73.09,73.09 0 0 0 -42,-0.07 l -3.26,-0.16 c -1.15,-6.38 -6.3,-5.07 -10.43,-5.16 -9,-0.2 -18.1,-0.07 -27.15,-2.06 22.83,0 45.65,0.1 68.48,0 4.68,0 9.76,1.46 13.84,-2.37 z"
           class="cls-5" />
        <path
           style="fill:#606060"
           inkscape:connector-curvature="0"
           id="path195"
           d="m 675.63,842.91 2,21.39 c -15.5,3.1 -19.75,-9.15 -28.3,-21.4 z"
           class="cls-5" />
        <path
           style="fill:#606060"
           inkscape:connector-curvature="0"
           id="path197"
           d="m 159.7,1084.91 -18.33,-0.82 c 9.43,-8.87 14.27,-19.58 13.11,-32.69 l 5.38,-0.26 c 0.66,11.26 1.82,22.52 -0.16,33.77 z"
           class="cls-5" />
        <path
           style="fill:#606060"
           inkscape:connector-curvature="0"
           id="path199"
           d="m 380.06,981.64 c 1.68,3.08 3,6.35 6.79,7.73 10.71,3.9 13.34,11.48 7.78,20.93 -3.93,6.67 -10.94,7.83 -17.37,3.69 -9.77,-6.28 -9.12,-14.21 -1.89,-22.32 7.53,-0.55 0.11,-8.1 4.69,-10.03 z m 11.41,20.86 c -0.2,-4.85 -2.63,-8 -7.91,-8.12 -5.28,-0.12 -8.16,3 -8.19,8 -0.03,5 2.5,8.36 7.86,8.45 5.36,0.09 7.87,-2.93 8.24,-8.33 z"
           class="cls-5" />
        <path
           style="fill:#606060"
           inkscape:connector-curvature="0"
           id="path201"
           d="m 694.52,776.6 c 0.63,2.3 3.95,4.52 1.31,6.93 -5.06,4.63 -34.85,4.23 -40.37,-0.47 -2.14,-1.82 -6.13,-3.41 -4.77,-6.92 1.36,-3.51 5.51,-0.93 8.25,-1.88 2.68,4.9 6.91,5.23 11.68,4 6.33,0.53 12.74,2 18.64,-1.85 z"
           class="cls-5" />
        <path
           style="fill:#606060"
           inkscape:connector-curvature="0"
           id="path203"
           d="m 162.34,1210.29 c 5.3,-2.83 0.51,-11.29 7.39,-13.24 1.92,14.87 5.2,29.67 2.8,44.81 -7.69,0.17 -9.29,-5.6 -11,-11.27 z"
           class="cls-5" />
        <path
           style="fill:#606060"
           inkscape:connector-curvature="0"
           id="path205"
           d="m 250.71,967.84 c 6.16,1.66 4.52,6.78 4.61,10.89 0.2,8.81 0,17.63 0.09,26.45 0.06,4.33 -1,7 -6.06,5.41 -7.84,-14.51 -5.84,-28.72 1.36,-42.75 z"
           class="cls-5" />
        <path
           style="fill:#606060"
           inkscape:connector-curvature="0"
           id="path207"
           d="m 407.37,1263.79 a 13.58,13.58 0 0 1 -0.93,2.25 c -11.2,3.14 -22.38,3.89 -33.51,-0.34 a 5.58,5.58 0 0 0 -0.86,-1.85 v -16.2 c 7.55,11.56 16.29,12.91 25.41,10.29 6.3,-1.81 7.31,2.76 9.89,5.85 z"
           class="cls-5" />
        <path
           style="fill:#606060"
           inkscape:connector-curvature="0"
           id="path209"
           d="m 796.18,1004 4.78,0.14 1.39,2.64 1.86,-2.14 7.75,-0.88 c 3.51,2.48 7,2.66 10.55,0 l 7.94,-0.29 c 1.95,7.66 -0.24,12.05 -8.94,11.68 a 86.4,86.4 0 0 0 -13.29,0.15 c -8.73,0.99 -12.16,-3.16 -12.04,-11.3 z"
           class="cls-5" />
        <path
           style="fill:#606060"
           inkscape:connector-curvature="0"
           id="path211"
           d="m 924,1147.16 c 21,-0.31 42.09,-0.19 63,-3.19 l 1.39,13.39 -24.62,-0.74 -0.53,-4.34 c 2.12,-1.1 5.34,1 6.8,-2.16 -15.31,-2.31 -30.97,2.34 -46.04,-2.96 z"
           class="cls-5" />
        <path
           style="fill:#606060"
           inkscape:connector-curvature="0"
           id="path213"
           d="m 758.95,1223.55 c 0,-4.42 0.09,-8.84 -0.18,-13.24 -0.72,-11.43 -0.6,-22.29 14.85,-24.86 -0.69,9.5 4.78,19.81 -5.29,28.28 -2.07,1.74 -1.44,6.69 -2,10.16 -2.44,-1.32 -4.86,-1.89 -7.38,-0.34 z m 3.15,-9.13 c 2.11,-5.4 5.57,-10.75 2.26,-18 -4.65,6.07 -2.15,12.22 -2.26,18 z"
           class="cls-5" />
        <path
           style="fill:#606060"
           inkscape:connector-curvature="0"
           id="path215"
           d="m 361.42,1247.52 3.15,13.39 -0.19,0.17 c -4.6,-0.31 -7.29,1.55 -8.26,6.32 -1.22,6 -5.88,7.08 -11.08,6.46 -5.2,-0.62 -8.58,-3.12 -10.55,-8.35 -2.26,-6 0.11,-12.16 -1.57,-18.06 h 4.13 q 0.65,0.25 1.31,0.48 c 2.13,6.8 -6.66,19.86 6.64,19.52 11.35,-0.29 4,-12.51 5.37,-19.36 q 0.68,-0.26 1.35,-0.56 z"
           class="cls-5" />
        <path
           style="fill:#606060"
           inkscape:connector-curvature="0"
           id="path217"
           d="m 758,1240 c 1,7.3 -1.17,16.72 11.11,16.3 -6.71,7 -14.91,9 -24.29,7.61 -3.73,-0.54 -8.62,1.25 -9.27,-4.69 -0.66,-6.12 4.08,-5.51 8,-6 1.62,-0.21 3.11,-1.41 4.66,-2.15 7.29,-0.23 7.24,-6.83 9.79,-11.07 z"
           class="cls-5" />
        <path
           style="fill:#606060"
           inkscape:connector-curvature="0"
           id="path219"
           d="m 362.71,1200.3 q -0.59,17 -1.18,34.06 h -10.19 c 0.5,-12.06 -1.58,-23.22 -11,-31.87 9.18,-1.14 11,6.51 15.47,14.42 0.38,-6.08 0.51,-10.06 0.91,-14 0.44,-4.2 2.42,-5.37 5.99,-2.61 z"
           class="cls-5" />
        <path
           style="fill:#606060"
           inkscape:connector-curvature="0"
           id="path221"
           d="m 255.41,941.22 c 0.05,-4.21 1.85,-7.24 5.94,-8.67 l 9.89,-0.11 5.36,8.42 q 0.25,1.62 0.51,3.24 c -1.19,1.15 -2.76,2.09 -3.51,3.48 -4.94,9.08 -9.67,9.77 -14.66,0 -0.71,-1.39 -2.35,-2.31 -3.56,-3.45 q 0.01,-1.44 0.03,-2.91 z"
           class="cls-5" />
        <path
           style="fill:#606060"
           inkscape:connector-curvature="0"
           id="path223"
           d="m 787.35,1257.13 c 13.45,-1.92 26.94,-0.91 40.42,-0.56 -17.96,12.43 -28.35,12.56 -40.42,0.56 z"
           class="cls-5" />
        <path
           style="fill:#606060"
           inkscape:connector-curvature="0"
           id="path225"
           d="m 683.43,729.4 q 0.19,6.07 0.38,12.14 l -0.83,1.52 1.5,-0.85 a 14.13,14.13 0 0 0 2.43,0.08 q -0.29,4.17 -0.57,8.35 c -4.29,-3.34 -8.72,-5.39 -13.74,-1.35 l -4.34,4.7 c -0.8,-4.92 -4.67,-9.87 0.1,-14.75 4.47,-4.12 6.06,-12.67 15.07,-9.84 z"
           class="cls-5" />
        <path
           style="fill:#606060"
           inkscape:connector-curvature="0"
           id="path227"
           d="m 685.11,899.48 c -0.93,6.91 -4.64,13.44 -2.92,20.73 -9.54,4.84 -11.85,-4.44 -16.29,-8.77 -4.44,-4.33 1.64,-5.53 3.46,-7.78 4.14,-5.13 8.29,-11.18 15.75,-4.18 z"
           class="cls-5" />
        <path
           style="fill:#606060"
           inkscape:connector-curvature="0"
           id="path229"
           d="m 801.05,963 q 16.67,-8.8 29.2,5.28 l 0.31,8.11 -5.53,-0.28 L 818.8,962 c -3.48,9.64 -14.72,5.53 -17,14.32 l -5.55,1.11 c -1.19,-5.71 2.32,-9.9 4.8,-14.43 z"
           class="cls-5" />
        <path
           style="fill:#606060"
           inkscape:connector-curvature="0"
           id="path231"
           d="m 273,807.06 c 6.77,-4.39 2.55,-11.25 3.68,-16.89 0.92,-4.63 -1.2,-9.67 3.56,-17.09 3.89,20.9 3,38.39 -5.17,56.12 l -3,-14.47 z"
           class="cls-5" />
        <path
           style="fill:#606060"
           inkscape:connector-curvature="0"
           id="path233"
           d="m 127.45,1029.12 c -2,-10.42 11.46,-15.43 9,-26.34 3.44,9 10.6,16.14 10,26.28 z"
           class="cls-5" />
        <path
           style="fill:#606060"
           inkscape:connector-curvature="0"
           id="path235"
           d="m 779.35,1125.82 c -17.29,4.56 -35.29,-0.12 -54.3,3.44 7.13,7.18 15.75,2.06 21.88,6.07 -6.64,0.18 -13.28,0.45 -19.91,0.5 -4.23,0 -9.67,1.51 -10.18,-5.17 -0.6,-7.93 5.81,-5 9.41,-5 17.75,-0.2 35.41,0.05 53.1,0.16 z"
           class="cls-5" />
        <path
           style="fill:#606060"
           inkscape:connector-curvature="0"
           id="path237"
           d="m 672.6,749.29 c 5,-4 9.45,-2 13.74,1.35 0.69,9.3 8.56,16.33 8.19,26 l -5.27,-0.19 c -2.22,-6.67 -3.56,-13.76 -9,-19.8 L 674,767.33 Z"
           class="cls-5" />
        <path
           style="fill:#606060"
           inkscape:connector-curvature="0"
           id="path239"
           d="m 924,1147.16 c 15,5.3 30.71,0.66 46,3 -1.46,3.14 -4.67,1.06 -6.79,2.16 -3.92,0.42 -7.84,1.17 -11.77,1.2 -13.82,0.13 -28,4.94 -41.29,-2.78 l -0.43,-0.69 0.52,-0.63 z"
           class="cls-5" />
        <path
           style="fill:#606060"
           inkscape:connector-curvature="0"
           id="path241"
           d="m 132.08,856.19 1.16,-8.12 c 12.33,4.64 24.64,-0.16 37,-0.1 l 0.58,8.25 z"
           class="cls-5" />
        <path
           style="fill:#606060"
           inkscape:connector-curvature="0"
           id="path243"
           d="m 401.08,1199.1 v 53.64 c -6.08,-20.05 -5,-36.76 -3.95,-53.46 z"
           class="cls-5" />
        <path
           style="fill:#606060"
           inkscape:connector-curvature="0"
           id="path245"
           d="m 306,867 a 51.17,51.17 0 0 1 5.46,18.59 c -5.08,0.23 -12.12,4.71 -14.19,-2.92 C 295.46,876.12 297.28,869 306,867 Z"
           class="cls-5" />
        <path
           style="fill:#606060"
           inkscape:connector-curvature="0"
           id="path247"
           d="m 859.88,906.75 8.08,0.87 c 5,9.25 -4,19.73 2.55,28.84 l -10.59,0.85 Q 859.9,922 859.88,906.75 Z"
           class="cls-5" />
        <path
           style="fill:#606060"
           inkscape:connector-curvature="0"
           id="path249"
           d="m 634,1268.22 -1.18,-0.07 -1.16,0.19 c 0,0 -0.16,-0.86 -0.16,-0.85 -1,-4.77 -4.13,-10 2.71,-13.16 l 12.1,0.55 c 6,4 8.82,7.94 -0.81,10.72 -3.73,1.08 -7.63,1.76 -11.5,2.62 z"
           class="cls-5" />
        <path
           style="fill:#606060"
           inkscape:connector-curvature="0"
           id="path251"
           d="m 152.15,1144.49 c -1.44,-5.72 0.43,-11.1 2.14,-16.33 1.26,-3.84 3.59,-7.33 8.36,-3.22 -1.54,9.15 1.86,19.44 -6.59,27.73 z"
           class="cls-5" />
        <path
           style="fill:#606060"
           inkscape:connector-curvature="0"
           id="path253"
           d="m 161.53,1230.59 c 1.7,5.67 3.3,11.44 11,11.28 a 4.69,4.69 0 0 0 0.72,2.16 l -3.2,1.23 c -2.16,0 -4.68,-0.64 -6.39,0.24 -2.93,1.52 -4.78,11.33 -8.16,3.27 -1.73,-4.12 -7.56,-14.31 2.35,-19.33 0.82,-0.44 2.43,0.72 3.68,1.15 z"
           class="cls-5" />
        <path
           style="fill:#606060"
           inkscape:connector-curvature="0"
           id="path255"
           d="m 755.77,1015.86 0.71,-4.71 c 6.14,1.9 6,8.37 4.77,11.44 -4.22,10.57 -1.25,21.53 -3.4,32.07 l -4.37,-1.52 c -1.21,-12.55 1.13,-24.88 2.29,-37.28 z"
           class="cls-5" />
        <path
           style="fill:#606060"
           inkscape:connector-curvature="0"
           id="path257"
           d="m 672.6,749.29 q 0.69,9 1.38,18 l -3.36,10.94 c -4.77,1.24 -9,0.9 -11.68,-4 A 45.38,45.38 0 0 0 668.25,754 Z"
           class="cls-5" />
        <path
           style="fill:#606060"
           inkscape:connector-curvature="0"
           id="path259"
           d="m 372.07,1263.85 a 5.53,5.53 0 0 1 0.86,1.85 q -0.39,9.81 -0.78,19.62 l -10.25,-0.18 2.48,-24.06 0.19,-0.17 z"
           class="cls-5" />
        <path
           style="fill:#606060"
           inkscape:connector-curvature="0"
           id="path261"
           d="m 280.78,1018.28 c -5.43,-2.41 -4,-7.32 -3.73,-11.41 0.66,-9 2.59,-18 0.94,-27.29 6.16,10.2 2.54,21.81 4.63,32.52 z"
           class="cls-5" />
        <path
           style="fill:#606060"
           inkscape:connector-curvature="0"
           id="path263"
           d="m 753.48,1053.13 4.37,1.52 q 0.21,1.74 0.43,3.49 l 0.2,0.83 c -2.91,1.58 -1.92,4.05 -1.45,6.4 a 2.14,2.14 0 0 0 -0.09,2.5 l -0.63,9.71 -5.45,1 -0.41,-6.62 a 2.52,2.52 0 0 0 0.07,-2.36 l -0.52,-2.74 a 16.14,16.14 0 0 0 -2.28,-10.63 z"
           class="cls-5" />
        <path
           style="fill:#606060"
           inkscape:connector-curvature="0"
           id="path265"
           d="m 910.19,1150.69 c 13.3,7.72 27.46,2.9 41.29,2.78 3.93,0 7.85,-0.78 11.77,-1.2 q 0.26,2.17 0.53,4.34 c -19.54,0.39 -39.14,2.78 -58.55,-1.57 z"
           class="cls-5" />
        <path
           style="fill:#606060"
           inkscape:connector-curvature="0"
           id="path267"
           d="m 802.88,762.36 c -6.79,-9.92 -17.95,-1.29 -27.34,-7 10.53,-4.55 20.89,-1.7 30.55,-3.52 0.07,3.86 2.01,8.28 -3.21,10.52 z"
           class="cls-5" />
        <path
           style="fill:#606060"
           inkscape:connector-curvature="0"
           id="path269"
           d="m 127.45,1029.12 19,-0.05 7.52,3.21 c -10.57,1.25 -21.1,7.82 -31.74,0.24 z"
           class="cls-5" />
        <path
           style="fill:#606060"
           inkscape:connector-curvature="0"
           id="path271"
           d="m 380.06,981.64 c -4.58,1.93 2.84,9.48 -4.69,10 -0.28,-9.88 -8.43,-17.49 -8,-27.58 l 5.21,-1.32 z"
           class="cls-5" />
        <path
           style="fill:#606060"
           inkscape:connector-curvature="0"
           id="path273"
           d="m 119.09,1051 c 0.11,7.84 0.2,15.69 0.35,23.53 0.07,3.64 0.08,7.15 -4.77,7.7 -0.13,-8.58 -0.28,-17.16 -0.36,-25.74 -0.04,-3.15 0.23,-6.23 4.78,-5.49 z"
           class="cls-5" />
        <path
           style="fill:#606060"
           inkscape:connector-curvature="0"
           id="path275"
           d="m 354.05,989.66 -5.46,-0.77 c 2,-9.35 6.28,-17.74 10.6,-26.13 l 3,0.78 c 0.6,9.74 -3.36,18.06 -8.14,26.12 z"
           class="cls-5" />
        <path
           style="fill:#606060"
           inkscape:connector-curvature="0"
           id="path277"
           d="m 152.15,1144.49 3.91,8.18 c 8.45,-8.29 5.05,-18.58 6.59,-27.73 3.64,2.82 1.53,7.47 3.46,10.83 q 0,4 0,7.93 c -2.29,4.07 1.9,11.07 -4.12,12.85 -11.33,3.35 -10.64,-4.64 -9.84,-12.06 z"
           class="cls-5" />
        <path
           style="fill:#606060"
           inkscape:connector-curvature="0"
           id="path279"
           d="m 721.23,989.49 a 41.1,41.1 0 0 1 -31.63,-0.23 l 2.77,-2.93 c 9.55,1.67 19.63,-1.17 28.86,3.16 z"
           class="cls-5" />
        <path
           style="fill:#606060"
           inkscape:connector-curvature="0"
           id="path281"
           d="m 750.86,1078.55 5.45,-1 a 4.23,4.23 0 0 1 2.06,0 q 0,10.36 0,20.73 c -2.71,-0.32 -5.08,3.24 -8,0.67 z"
           class="cls-5" />
        <path
           style="fill:#606060"
           inkscape:connector-curvature="0"
           id="path283"
           d="m 441.74,751.92 -26.44,0.15 c 4.13,-7.36 15.78,-7.43 26.44,-0.15 z"
           class="cls-5" />
        <path
           style="fill:#606060"
           inkscape:connector-curvature="0"
           id="path285"
           d="m 383.47,884.31 q 0,-6.79 0,-13.59 c 4.92,1.41 13.2,-1.1 12.64,7.34 -0.48,6.62 -7.51,5.85 -12.64,6.25 z"
           class="cls-5" />
        <path
           style="fill:#606060"
           inkscape:connector-curvature="0"
           id="path287"
           d="m 351.34,1234.35 h 10.19 a 7.87,7.87 0 0 1 1.15,2.3 q -0.63,5.43 -1.26,10.85 h -9.7 q -0.37,-6.66 -0.74,-13.31 z"
           class="cls-5" />
        <path
           style="fill:#606060"
           inkscape:connector-curvature="0"
           id="path289"
           d="m 271.6,838.4 15.73,-0.6 c 0.22,5.85 -3.08,7.4 -8.34,7.47 -4.99,0.06 -7.43,-1.88 -7.39,-6.87 z"
           class="cls-5" />
        <path
           style="fill:#606060"
           inkscape:connector-curvature="0"
           id="path291"
           d="M 988.4,1157.35 987,1144 l 1.38,-7.21 c 2.2,6.94 9.39,13.94 0.02,20.56 z"
           class="cls-5" />
        <path
           style="fill:#606060"
           inkscape:connector-curvature="0"
           id="path293"
           d="m 878,1107.35 c -2.42,6.91 -8.18,4.45 -13,4.64 3.14,-4.99 8.33,-4.14 13,-4.64 z"
           class="cls-5" />
        <path
           style="fill:#606060"
           inkscape:connector-curvature="0"
           id="path295"
           d="m 758.95,1223.55 c 2.52,-1.58 4.94,-1 7.33,0.33 q 0,2.46 0.08,4.92 l -7.66,0.06 q 0.13,-2.66 0.25,-5.31 z"
           class="cls-5" />
        <path
           style="fill:#606060"
           inkscape:connector-curvature="0"
           id="path297"
           d="m 265.52,770.9 -9.53,0.42 c 0,-1.07 0,-2.13 0,-3.19 3.26,-1.45 6.55,-2.72 10.22,-1.68 z"
           class="cls-5" />
        <path
           style="fill:#606060"
           inkscape:connector-curvature="0"
           id="path299"
           d="m 340.45,1202.6 -8.1,-2.69 c 4.27,-3.8 6.91,-2.74 8.1,2.69 z"
           class="cls-5" />
        <path
           style="fill:#606060"
           inkscape:connector-curvature="0"
           id="path301"
           d="m 119.62,731.21 c -0.24,2.67 0.51,5.73 -2.82,7.19 z"
           class="cls-5" />
        <path
           style="fill:#606060"
           inkscape:connector-curvature="0"
           id="path303"
           d="m 841.19,750 c 2.47,1 2.72,3.07 2.63,5.32 -2.92,-0.74 -2.69,-3.06 -2.63,-5.32 z"
           class="cls-5" />
        <path
           style="fill:#606060"
           inkscape:connector-curvature="0"
           id="path305"
           d="m 839.16,745.15 2,4.87 c -2.16,-1.02 -1.93,-3.02 -2,-4.87 z"
           class="cls-5" />
        <path
           style="fill:#606060"
           inkscape:connector-curvature="0"
           id="path307"
           d="m 122.26,725.94 c -0.49,1.79 -0.16,4 -2.45,4.89 z"
           class="cls-5" />
        <path
           style="fill:#606060"
           inkscape:connector-curvature="0"
           id="path309"
           d="m 689.33,989.84 a 2.19,2.19 0 0 1 -0.39,2.36 10.8,10.8 0 0 1 -0.44,-1.82 c -0.02,-0.16 0.5,-0.38 0.83,-0.54 z"
           class="cls-5" />
        <path
           style="fill:#606060"
           inkscape:connector-curvature="0"
           id="path311"
           d="m 833.6,1255.76 a 1.75,1.75 0 0 1 2,0.18 c -0.82,1.2 -1.48,1.21 -2,-0.18 z"
           class="cls-5" />
        <path
           style="fill:#606060"
           inkscape:connector-curvature="0"
           id="path313"
           d="m 125,722.94 -2.53,2.6 z"
           class="cls-5" />
        <path
           style="fill:#606060"
           inkscape:connector-curvature="0"
           id="path315"
           d="m 127.64,720.25 c 0,1.73 -1.09,2.47 -2.65,2.7 z"
           class="cls-5" />
        <path
           style="fill:#606060"
           inkscape:connector-curvature="0"
           id="path317"
           d="m 868.18,742.23 -1.24,4.63 c -0.31,-0.23 -0.91,-0.59 -0.88,-0.68 0.57,-1.4 1.23,-2.76 1.86,-4.13 z"
           class="cls-5" />
        <path
           style="fill:#606060"
           inkscape:connector-curvature="0"
           id="path319"
           d="m 364.37,1261.07 -2.48,24.06 c -24.68,-0.44 -49.42,1.4 -74,-2.42 -3.95,-0.61 -8,-0.4 -10.89,-3.73 q 0.19,-5.41 0.37,-10.8 c 0,0 0.43,0.62 0.43,0.62 5.75,4.17 12,-11.27 17.43,0.37 3.37,7.29 9.45,5.22 14.75,4.45 6.26,-0.91 6.72,-6.32 6.38,-11.25 -0.5,-7.13 1.29,-12.95 7.62,-16.85 l 2.88,-0.57 6.06,2.5 c 1.67,5.9 -0.69,12 1.56,18.06 2,5.23 5.42,7.75 10.55,8.35 5.13,0.6 9.86,-0.46 11.08,-6.46 0.97,-4.78 3.66,-6.63 8.26,-6.33 z"
           class="cls-5" />
        <path
           style="fill:#606060"
           inkscape:connector-curvature="0"
           id="path321"
           d="m 374.37,1285.59 c 3.14,-0.64 6.17,-0.73 8.71,1.68 -4.13,6.2 -8.13,12.38 2.19,17 4.65,-2 -3,-11.08 5.42,-10.46 5,0.37 6,4.94 5.36,9.13 -1,7.06 -6.78,6 -11.43,5.71 -11.12,-0.75 -13.45,-6.24 -10.25,-23.06 z"
           class="cls-5" />
        <path
           style="fill:#606060"
           inkscape:connector-curvature="0"
           id="path323"
           d="m 584.6,933.41 c -11.44,3.94 -19.12,2.72 -26.6,2 -2.69,-0.26 -3.88,-3.75 -3.54,-6.31 0.57,-4.27 3.57,-1.88 5.95,-1.72 7.16,0.5 13.9,2.05 24.19,6.03 z"
           class="cls-5" />
        <path
           style="fill:#606060"
           inkscape:connector-curvature="0"
           id="path325"
           d="m 506.44,932.55 c 6.61,-1.59 13.21,-3.25 19.85,-4.73 2.15,-0.48 5.2,-2.92 5.95,1.59 0.53,3.18 0.35,6.46 -4,6.56 -7.14,0.16 -14.29,0 -21.43,0 z"
           class="cls-5" />
        <path
           style="fill:#606060"
           inkscape:connector-curvature="0"
           id="path327"
           d="m 541.43,943.81 c 5.65,9.56 4,19.15 2.07,28.78 z"
           class="cls-5" />
        <path
           style="fill:#606060"
           inkscape:connector-curvature="0"
           id="path329"
           d="m 537.84,997 -5.55,0.27 c -0.13,-4.1 -4.66,-4.72 -7,-7.7 14.6,-0.89 14.6,-0.89 12.55,7.43 z"
           class="cls-5" />
        <path
           style="fill:#606060"
           inkscape:connector-curvature="0"
           id="path331"
           d="m 537.75,975.56 c -3.48,3.53 -6.21,6.66 -8.53,3.89 -2.32,-2.77 1.76,-3.78 3.84,-4.62 0.94,-0.37 2.2,0.29 4.69,0.73 z"
           class="cls-5" />
        <path
           style="fill:#606060"
           inkscape:connector-curvature="0"
           id="path333"
           d="m 541.71,932.71 c 0.17,0.3 0.5,0.61 0.47,0.89 -0.03,0.28 -0.41,0.51 -0.64,0.76 0.05,-0.56 0.11,-1.1 0.17,-1.65 z"
           class="cls-5" />
        <path
           style="fill:#606060"
           inkscape:connector-curvature="0"
           id="path335"
           d="m 634.25,1254.32 c -6.84,3.16 -3.67,8.39 -2.71,13.16 -2.57,0 -5.4,0.76 -7.65,-0.08 -4.52,-1.69 -11.41,0.6 -12.88,-6.31 -0.39,-1.85 2.43,-6.31 3.38,-6.2 6.69,0.79 13.14,-9.08 19.86,-0.57 z"
           class="cls-5" />
        <path
           style="fill:#606060"
           inkscape:connector-curvature="0"
           id="path337"
           d="m 885.79,1248.19 -4.68,-0.6 c -1,-5.47 -4.52,-9.52 -7.92,-13.62 -2.72,-3.28 -4.81,-7.2 -1.79,-10.79 3.52,-4.19 6,-12.1 12,-10.67 5.05,1.2 2.06,8.55 2.33,13.12 0.47,7.5 0.09,15.04 0.06,22.56 z"
           class="cls-5" />
        <path
           style="fill:#606060"
           inkscape:connector-curvature="0"
           id="path339"
           d="m 854.67,1210.42 c 0.85,-1.94 1.57,-3.94 2.57,-5.8 3.36,-6.3 10.35,-8.56 15,-5.76 6.56,3.92 -1.11,7.91 -3.25,11 -3.59,5.24 -8.52,9.58 -13.16,14.59 -2.88,-5 -1.29,-9.41 -1.56,-13.63 z"
           class="cls-5" />
        <path
           style="fill:#606060"
           inkscape:connector-curvature="0"
           id="path341"
           d="m 854.32,1210.86 c -7.63,-10.72 -6.57,-22 -2.08,-33.45 2.89,2.42 1.66,6.12 2.84,9.08"
           class="cls-5" />
        <path
           style="fill:#606060"
           inkscape:connector-curvature="0"
           id="path343"
           d="m 868.72,1250.7 -13.91,0.32 c -0.44,-5.1 -2.18,-12.06 4.94,-12.54 6.75,-0.48 8.03,6.52 8.97,12.22 z"
           class="cls-5" />
        <path
           style="fill:#606060"
           inkscape:connector-curvature="0"
           id="path345"
           d="m 835.41,1229.05 c 1.74,12.91 -1.1,17.51 -11.57,10.88 -4.35,-2.75 -6.06,0 -8.38,3.11 -6.21,8.24 -11.87,5.78 -16.66,-1.58 -4.48,-6.88 -3.66,-14.41 -1.53,-21.72 0.85,-2.93 3.94,-6.43 6.72,-5.53 9.42,3 17.53,9.48 29,3.53 2.94,-1.54 1.36,9.05 2.42,11.31 z"
           class="cls-5" />
        <path
           style="fill:#606060"
           inkscape:connector-curvature="0"
           id="path347"
           d="m 274,1214.21 c -1.63,-0.56 -3.26,-1.62 -4.88,-1.6 -6.19,0.1 -15,-2.72 -15.93,6.51 -0.92,9 6.66,13 14.68,12.5 8.02,-0.5 12.92,4 18.34,8.28 -2.41,4.07 -2,7.56 2.11,10.31 -0.79,7.74 -7.68,12 -10.53,18.59 0,0 -0.44,-0.61 -0.43,-0.62 l -10.59,-0.07 c -5.79,-7.8 -11.63,-11.52 -17.64,-0.2 -5.51,1.08 -10.47,-0.68 -9.93,-6.54 0.65,-7.1 6.58,-2.61 10.32,-2.85 9.4,-0.59 20.63,3.89 25.66,-9.06 -0.06,-6.54 -2.44,-9.81 -9.93,-9.93 -6.7,-0.11 -13.36,-2.57 -20,-4 -4.43,-8.85 -8.86,-17.91 -0.1,-26.55 8.95,-8.82 19.78,-10.49 31.59,-6.69 3.59,0.8 8.45,0.7 6.88,6.44 -1.27,4.51 -4.44,7.11 -9.62,5.48 z"
           class="cls-5" />
        <path
           style="fill:#606060"
           inkscape:connector-curvature="0"
           id="path349"
           d="m 399.38,1073.16 c 0.75,-5.51 -1.72,-12.74 2,-19.41 1.24,-2.25 1.73,-5.24 5.24,-4.88 2.56,0.26 3.61,2.38 4.44,4.4 5.06,12.19 5,25 3.83,37.77 -0.42,4.45 -4.07,5.19 -7.91,5.09 -3.84,-0.1 -7.22,-1.27 -7.49,-5.7 -0.36,-5.27 -0.11,-10.58 -0.11,-17.27 z"
           class="cls-5" />
        <path
           style="fill:#606060"
           inkscape:connector-curvature="0"
           id="path351"
           d="m 135.79,723.17 -2.13,2.55 z"
           class="cls-5" />
        <path
           style="fill:#606060"
           inkscape:connector-curvature="0"
           id="path353"
           d="m 249.14,1267.92 c 6,-11.33 11.85,-7.6 17.64,0.2 -5.9,2.31 -11.78,5.06 -17.64,-0.2 z"
           class="cls-5" />
        <path
           style="fill:#606060"
           inkscape:connector-curvature="0"
           id="path355"
           d="m 239.58,1185.74 c -2.77,0.87 -5.5,1 -8.13,-0.45 a 7,7 0 0 1 8.13,0.45 z"
           class="cls-5" />
        <path
           style="fill:#606060"
           inkscape:connector-curvature="0"
           id="path357"
           d="m 855.41,840.21 c 8.3,-12.51 19.82,-11.41 29.59,-12.11 11.28,-0.8 22.76,1.25 34.16,2.09 3.13,0.23 6.47,0.43 6.71,4.62 0.24,4.19 -2.64,5.37 -6,5.38 -20.87,0.09 -41.71,0.03 -64.46,0.02 z"
           class="cls-5" />
        <path
           style="fill:#606060"
           inkscape:connector-curvature="0"
           id="path359"
           d="m 897.5,1143.94 c -0.13,-1.53 0.61,-2.23 2.1,-2.18 0.06,1.46 -0.6,2.24 -2.1,2.18 z"
           class="cls-5" />
        <path
           style="fill:#606060"
           inkscape:connector-curvature="0"
           id="path361"
           d="m 822.17,989.49 c -0.22,4.8 -2.74,7.34 -7.32,7.53 -4.58,0.19 -7.52,-2 -7.78,-6.77 -0.26,-4.77 3,-7.26 7.21,-7.47 4.21,-0.21 7.38,2.1 7.89,6.71 z"
           class="cls-5" />
        <path
           style="fill:#606060"
           inkscape:connector-curvature="0"
           id="path363"
           d="m 822.5,1003.77 c -3.53,2.63 -7,2.45 -10.55,0 a 14.31,14.31 0 0 1 10.55,0 z"
           class="cls-5" />
        <path
           style="fill:#606060"
           inkscape:connector-curvature="0"
           id="path365"
           d="m 804.2,1004.62 -1.86,2.14 -1.39,-2.64 z"
           class="cls-5" />
        <path
           style="fill:#606060"
           inkscape:connector-curvature="0"
           id="path367"
           d="m 757,1065.38 c -0.47,-2.35 -1.46,-4.82 1.45,-6.4 z"
           class="cls-5" />
        <path
           style="fill:#606060"
           inkscape:connector-curvature="0"
           id="path369"
           d="m 297.87,1234.11 q 0.14,-23.77 0.27,-47.54 a 17.45,17.45 0 0 1 13,0.11 c 0.75,6.14 -5,15.51 7.82,15.64 q 0.18,5.05 0.36,10.11 c -6.47,-0.32 -8.34,3.35 -8.32,9.13 0,4.84 -0.49,9.67 -0.77,14.51 l -11.39,0.86 z"
           class="cls-5" />
        <path
           style="fill:#606060"
           inkscape:connector-curvature="0"
           id="path371"
           d="m 277.8,1268.8 c 2.86,-6.57 9.74,-10.85 10.53,-18.59 l 9.47,0.4 c 0.15,3.05 0.38,6.1 0.44,9.16 0.08,4.11 0.18,8.05 5.8,8.36 6.37,0.35 6.67,-3.86 7,-8.56 0.31,-3.85 1.4,-7.63 2.14,-11.44 l 1.32,-3.2 9.46,0.59 c -6.34,3.91 -8.12,9.72 -7.63,16.85 0.34,4.93 -0.12,10.35 -6.38,11.25 -5.3,0.77 -11.38,2.83 -14.75,-4.45 -5.35,-11.64 -11.65,3.83 -17.4,-0.37 z"
           class="cls-5" />
        <path
           style="fill:#606060"
           inkscape:connector-curvature="0"
           id="path373"
           d="m 326.89,1215.86 c 7.62,-6.15 9.89,-0.31 10.91,5.49 0.88,5 0.17,10.22 0.17,15.34 l -10.05,0.33 z"
           class="cls-5" />
        <path
           style="fill:#606060"
           inkscape:connector-curvature="0"
           id="path375"
           d="m 310.25,1236.06 c 0.28,-4.84 0.78,-9.67 0.77,-14.51 0,-5.78 1.85,-9.45 8.32,-9.13 -0.12,7.22 -0.43,14.44 -0.26,21.66 0.09,3.67 -1.06,5.6 -4.76,5.83 z"
           class="cls-5" />
        <path
           style="fill:#606060"
           inkscape:connector-curvature="0"
           id="path377"
           d="m 310.25,1236.06 4.07,3.86 q 0.11,2.5 0.21,5 l -1.31,3.2 h -14 l -0.32,-11.19 z"
           class="cls-5" />
        <path
           style="fill:#606060"
           inkscape:connector-curvature="0"
           id="path379"
           d="m 319,1202.32 c -12.78,-0.13 -7.07,-9.5 -7.82,-15.64 9.92,1.55 9.9,8.07 7.82,15.64 z"
           class="cls-5" />
        <path
           style="fill:#606060"
           inkscape:connector-curvature="0"
           id="path381"
           d="m 327.92,1237 10.05,-0.33 0.15,0.21 -1.12,10.6 h -4.13 l -6.05,-2.5 z"
           class="cls-5" />
        <path
           style="fill:#606060"
           inkscape:connector-curvature="0"
           id="path383"
           d="m 337,1247.48 1.07,-10.57 12.85,-2.67 q 0.37,6.66 0.74,13.31 -0.66,0.3 -1.35,0.56 l -12,-0.16 q -0.61,-0.22 -1.31,-0.47 z"
           class="cls-5" />
        <path
           style="fill:#606060"
           inkscape:connector-curvature="0"
           id="path385"
           d="m 262.53,825.64 c -5.66,-18 -4.89,-33.55 -3.8,-49.1 l 3.82,-0.13 z"
           class="cls-5" />
        <path
           style="fill:#606060"
           inkscape:connector-curvature="0"
           id="path387"
           d="m 750,1066.83 0.52,2.74 a 22.28,22.28 0 0 0 -2.33,-0.15 z"
           class="cls-5" />
        <path
           style="fill:#606060"
           inkscape:connector-curvature="0"
           id="path389"
           d="m 292.36,1186.06 -42,-0.07 a 73.09,73.09 0 0 1 42,0.07 z"
           class="cls-5" />
        <path
           style="fill:#606060"
           inkscape:connector-curvature="0"
           id="path391"
           d="m 670.62,778.26 3.38,-10.93 6.3,-10.71 c 5.42,6 6.76,13.13 9,19.8 -5.94,3.81 -12.35,2.37 -18.68,1.84 z"
           class="cls-5" />
        <path
           style="fill:#606060"
           inkscape:connector-curvature="0"
           id="path393"
           d="m 762.1,1214.42 c 0.11,-5.79 -2.39,-11.94 2.26,-18 3.3,7.25 -0.15,12.58 -2.26,18 z"
           class="cls-5" />
        <path
           style="fill:#606060"
           inkscape:connector-curvature="0"
           id="path395"
           d="m 338.36,1248 12,0.16 c -1.33,6.84 6,19.06 -5.37,19.36 -13.29,0.3 -4.5,-12.76 -6.63,-19.52 z"
           class="cls-5" />
        <path
           style="fill:#606060"
           inkscape:connector-curvature="0"
           id="path397"
           d="m 684.48,742.21 -1.5,0.85 0.83,-1.52 z"
           class="cls-5" />
        <path
           style="fill:#606060"
           inkscape:connector-curvature="0"
           id="path399"
           d="m 274,1214.21 c 5.16,1.62 8.34,-1 9.57,-5.48 1.57,-5.74 -3.29,-5.64 -6.88,-6.44 2.61,-8.07 7.71,-4.93 10.91,-1.44 5.08,5.55 2.31,12.61 -1.37,17 -4.84,5.84 -9.12,1.15 -12.23,-3.64 z"
           class="cls-5" />
        <path
           style="fill:#606060"
           inkscape:connector-curvature="0"
           id="path401"
           d="m 298.86,1236.92 q 0.16,5.59 0.32,11.19 l -1.38,2.5 -9.47,-0.4 c -4.05,-2.75 -4.51,-6.23 -2.1,-10.3 3.09,-3.52 7.22,-5 11.64,-5.8 z"
           class="cls-5" />
        <path
           style="fill:#606060"
           inkscape:connector-curvature="0"
           id="path403"
           d="m 297.8,1250.61 1.38,-2.5 h 14 c -0.75,3.81 -1.84,7.6 -2.14,11.44 -0.37,4.7 -0.68,8.91 -7,8.56 -5.62,-0.31 -5.72,-4.25 -5.8,-8.36 -0.06,-3.04 -0.24,-6.09 -0.44,-9.14 z"
           class="cls-5" />
      </g>
      <rect
         style="fill:#00353e"
         id="rect406"
         height="24"
         width="5"
         y="1364"
         x="671"
         class="cls-6" />
      <rect
         style="fill:#00353e"
         id="rect408"
         height="24"
         width="5"
         y="1364"
         x="745"
         class="cls-6" />
      <rect
         style="fill:#00353e"
         id="rect410"
         height="7"
         width="79"
         y="1364"
         x="671"
         class="cls-6" />
      <polygon
         style="fill:#037f8e"
         id="polygon412"
         points="608,1468 598,1394 821,1395 812,1468 "
         class="cls-7" />
      <rect
         style="fill:#00606c"
         id="rect414"
         height="20"
         width="223"
         y="1392"
         x="598"
         class="cls-8" />
      <polygon
         style="fill:#037f8e"
         id="polygon416"
         points="598,1392 641,1379 805,1379 821,1392 "
         class="cls-7" />
      <path
         style="fill:#e3b996"
         inkscape:connector-curvature="0"
         id="path418"
         d="m 708.5,1340.79 c 0,0 -6.5,11.21 -13.5,14.21 -7,3 0,25 0,25 0,0 2,6 8,1 1,1 2,5 8,1 2,2 4,3 7,0 3,2 4,2 7,0 3,-2 4,-19 -1,-24 1,-1 2,-4 0,-5 -2,-1 0,-13 0,-13 z"
         class="cls-9" />
      <path
         style="fill:#e3b996"
         inkscape:connector-curvature="0"
         id="path420"
         d="m 409,1039 c 0,0 -4,-6 -14,-13 a 53.6,53.6 0 0 1 -22,-38 c -2,-18 -14,-38 -11,-40 3,-2 5,-3 9,5 -2,-3 -8,-12 -8,-15 0,-3 6,-13 14,9 -6,-12 -18,-25 -9,-28 9,-3 13,4 23,34 -2,-11 -17,-27 -5,-27 12,0 11,19 17,38 6,19 15,27 15,27 0,0 8,-8 7,-19 -1,-11 1,-26 11,-21 10,5 4,28 0,34 -4,6 -13.44,44.77 -13.44,44.77 z"
         class="cls-9" />
      <path
         style="fill:#c6a384"
         inkscape:connector-curvature="0"
         id="path422"
         d="m 384,989 c 0,0 -9.4,-33.94 -15.7,-40.47 a 18.49,18.49 0 0 1 -2,-3 c 0,0 4.7,3.47 6.7,6.47 2,3 12,30 11,37 z"
         class="cls-10" />
      <path
         style="fill:#c6a384"
         inkscape:connector-curvature="0"
         id="path424"
         d="m 390.91,983 c 0,0 -11.48,-39.41 -19.16,-47 a 21.39,21.39 0 0 1 -2.49,-3.5 c 0,0 5.79,4 8.23,7.53 2.44,3.53 14.65,34.84 13.42,42.97 z"
         class="cls-10" />
      <path
         style="fill:#c6a384"
         inkscape:connector-curvature="0"
         id="path426"
         d="m 397,979 c 0,0 -6.75,-32 -12,-44 -2,-2.39 -3,-7 -3,-7 0,0 1.56,2.52 4,6 2.44,3.48 12.22,36.87 11,45 z"
         class="cls-10" />
      <path
         style="fill:#c6a384"
         inkscape:connector-curvature="0"
         id="path428"
         d="m 418.68,991 c 0,0 -9.68,2 -12.68,10 -3,8 -2,8 -2,8 0,0 4.36,-14 14.68,-18 z"
         class="cls-10" />
      <path
         style="fill:#c6a384"
         inkscape:connector-curvature="0"
         id="path430"
         d="m 406,1001 c 0,0 -8.58,1.22 -11.24,6.11 -2.66,4.89 -1.76,4.89 -1.76,4.89 0,0 3.85,-8.56 13,-11 z"
         class="cls-10" />
      <path
         style="fill:#c6a384"
         inkscape:connector-curvature="0"
         id="path432"
         d="m 382,990 a 3.1,3.1 0 0 1 4,-2 7.58,7.58 0 0 0 -4,2 z"
         class="cls-10" />
      <path
         style="fill:#c6a384"
         inkscape:connector-curvature="0"
         id="path434"
         d="m 388,985 c 0,0 1.25,-5.44 5,-3.63 -1.25,0 -3.75,1.82 -5,3.63 z"
         class="cls-10" />
      <path
         style="fill:#c6a384"
         inkscape:connector-curvature="0"
         id="path436"
         d="m 395,981 c 0,0 1.25,-5.44 5,-3.63 -1.25,0 -3.75,1.82 -5,3.63 z"
         class="cls-10" />
      <polygon
         style="fill:#f49500"
         id="polygon438"
         points="539.92,1274.63 539.92,1203 539.92,1163.38 594.04,1142.33 621.1,1142.33 669.22,1160.37 723.34,1259.6 726.35,1331.76 732.36,1331.76 729.35,1343.79 702.29,1343.79 697.78,1330.26 700.79,1330.26 697.78,1267.12 661.7,1216 652,1234 609,1292 549,1368 536.91,1289.67 "
         class="cls-11" />
      <rect
         style="fill:#daa978"
         id="rect440"
         height="27.059999"
         width="30.07"
         y="1121.28"
         x="588.03003"
         class="cls-12" />
      <path
         style="fill:#e3b996"
         inkscape:connector-curvature="0"
         id="path442"
         d="m 518.87,1013 c 0,0 -12,-6 -21,-3 -9,3 -12,18 -3,36.08 9,18.08 21,24.06 30.07,12 0,12 15,69.16 69.16,72.17 54.16,3.01 54.12,-21 69.16,-72.17 0,-3 3,9 15,6 12,-3 21,-9 27.06,-39.09 6.06,-30.09 -9,-36.08 -24.06,-24.06 -6,-21 -12,-90.21 -12,-90.21 l -141.33,-12 -21,24.06 -0.5,83.53 z"
         class="cls-9" />
      <path
         style="fill:#27211f"
         inkscape:connector-curvature="0"
         id="path444"
         d="m 548.94,1034.08 c 0,0 15,-9 21,-12 -11.94,-6.08 -18,-3.08 -21,12 z"
         class="cls-13" />
      <path
         style="fill:#27211f"
         inkscape:connector-curvature="0"
         id="path446"
         d="m 609.08,1022 c 0,0 12,0 27.06,12 -6.02,-15 -15.04,-30 -27.06,-12 z"
         class="cls-13" />
      <path
         style="fill:#27211f"
         inkscape:connector-curvature="0"
         id="path448"
         d="m 594,980 c 0,0 24.06,-3 48.11,21 3,-6 3,-15 6,-15 3,0 -33.02,-27.1 -54.11,-6 z"
         class="cls-13" />
      <path
         style="fill:#27211f"
         inkscape:connector-curvature="0"
         id="path450"
         d="m 539.92,1001 -3,-12 c 0,0 6,-12 36.08,-6 3,3 -6,3 -6,3 0,0 -18.06,0 -27.08,15 z"
         class="cls-13" />
      <path
         style="fill:#ffffff"
         inkscape:connector-curvature="0"
         id="path452"
         d="m 636.14,1076.17 c -9,3 -54.12,12 -72.17,3 a 29.45,29.45 0 0 0 6.06,13.67 c 12.7,-0.12 39.52,-1.85 65.77,-13 a 21.07,21.07 0 0 0 0.34,-3.67 z"
         class="cls-14" />
      <path
         style="fill:#3e2128"
         inkscape:connector-curvature="0"
         id="path454"
         d="m 600.06,1103.24 c 27.79,-2.53 34.35,-15.66 35.74,-23.36 -26.25,11.13 -53.07,12.87 -65.77,13 4.97,6.12 13.97,11.82 30.03,10.36 z"
         class="cls-15" />
      <path
         style="fill:none;stroke:#986943;stroke-miterlimit:10"
         inkscape:connector-curvature="0"
         id="path456"
         d="m 585,1019 c 0,0 -21,42.1 -6,48.11 9,3 13.53,-1.5 15,0"
         class="cls-16" />
      <path
         style="fill:#f49500"
         inkscape:connector-curvature="0"
         id="path458"
         d="m 688,947 c 0,49.15 -41.36,-11 -93,-11 -51.64,0 -94,60.15 -94,11 0,-49.15 41.86,-89 93.5,-89 51.64,0 93.5,39.85 93.5,89 z"
         class="cls-11" />
      <polygon
         style="fill:#f49500"
         id="polygon460"
         points="406,1034 424,1026 472,1142 552,1164 552,1208 441,1148 "
         class="cls-11" />
      <path
         style="fill:#351c1b"
         inkscape:connector-curvature="0"
         id="path462"
         d="m 677.78,1028.12 -6.24,21.83 c -2,-21.69 -15.56,-40.85 -12.36,-62.81 2,-14 -5.12,-18.66 -17.17,-20.85 -25.81,-4.69 -51.69,-3.09 -77.56,-1.47 -9.66,0.6 -19.22,3.78 -28.82,3.79 -10,0 -13.18,3.29 -14.25,13.32 -2.32,21.7 -4.18,43.29 -2,65.89 -4.82,-2 -4.55,-6.57 -6.59,-9.48 -4.33,-21 -4.67,-42.27 -5.56,-63.54 -0.2,-4.83 0.45,-9.49 -5.68,-12.74 -23,-12.19 25.17,-71.53 37.1,-68 l 1.68,1.54 0.23,-3.31 c -3.13,-9.36 0.81,-11.85 9.34,-9.33 11.09,3.27 22.11,6.81 34.39,10.61 -3.13,-14.75 4.84,-12.57 13.92,-9.54 27.55,9.2 52.71,22.8 76.05,40 5.87,4.33 7.88,9.09 7.74,16.4 -0.55,29.26 -1.61,58.51 -4.22,87.69 z"
         class="cls-17" />
      <g
         id="rIaAge.tif">
        <path
           style="fill:#fdc403"
           inkscape:connector-curvature="0"
           id="path464"
           d="m 605.85,844.86 c 4.07,2.83 6.31,7.09 7.4,12.24 -2.1,5.63 -2.28,11.61 -3,17.5 -2.82,22 -3.16,44.38 -7.9,66.2 -1.84,8.46 -8.17,6.73 -13,7.29 -4.24,0.5 -7.28,-3.26 -7.81,-7.88 -1.69,-14.85 -2.31,-29.91 -4.57,-44.63 -1.92,-12.52 -1.35,-25.46 -4.64,-37.69 1.57,-8.65 4.36,-11.63 12,-12.78 1.32,-0.2 3,0.32 3.2,-2.1 z"
           class="cls-18" />
        <path
           style="fill:#fed701"
           inkscape:connector-curvature="0"
           id="path466"
           d="m 572.35,857.88 c 3.28,12.24 2.72,25.17 4.64,37.69 2.25,14.72 2.87,29.78 4.57,44.63 0.53,4.62 3.57,8.38 7.81,7.88 4.78,-0.56 11.12,1.17 13,-7.29 4.74,-21.81 5.08,-44.16 7.9,-66.2 0.75,-5.89 0.93,-11.88 3,-17.5 36.88,8.09 61,32.78 73.73,71.7 a 133.2,133.2 0 0 1 6.06,51.21 l -2.25,-0.19 c -3.77,0 -7,-2.93 -10.86,-2.41 -58.37,-12.75 -116.84,-11.24 -175.41,3.05 -4,0.8 -8.05,1.54 -11.57,4.19 l -1.6,0.83 c -3.96,-54.74 25.47,-114.69 80.98,-127.59 z"
           class="cls-19" />
        <path
           style="fill:#fdc403"
           inkscape:connector-curvature="0"
           id="path468"
           d="m 491.38,985.45 1.6,-0.83 c 4.78,0.51 9.25,-1.24 13.78,-2.65 18.24,-2.31 36.45,-4.66 54.77,-6.1 37.17,-2.92 74.12,-1.37 111,2.17 5.91,2.49 12,3.44 18.27,1.75 l 2.25,0.19 c 4.33,5.6 4.33,5.6 -4.56,11.9 -10.63,4.46 -21.62,6.21 -32.82,6.5 -16.69,0.57 -33.38,1.27 -50.07,1.66 -24.25,0.56 -48.49,0.9 -72.74,1.33 -10.52,-1.1 -21.18,-0.95 -31.46,-4 l -3.46,-1.18 -5.5,-3.44 c -1,-1.73 -3,-3 -2.22,-5.62 z"
           class="cls-18" />
        <path
           style="fill:#cb8a2d"
           inkscape:connector-curvature="0"
           id="path470"
           d="m 672.54,978 c -36.9,-3.53 -73.85,-5.09 -111,-2.17 -18.32,1.44 -36.53,3.78 -54.77,6.1 l -2.21,-1.53 c 58.56,-14.29 117,-15.8 175.41,-3.05 -2.39,2.19 -4.97,0.27 -7.43,0.65 z"
           class="cls-20" />
        <path
           style="fill:#f39513"
           inkscape:connector-curvature="0"
           id="path472"
           d="m 672.54,978 c 2.46,-0.41 5,1.5 7.42,-0.66 3.88,-0.52 7.09,2.37 10.86,2.41 -6.32,1.73 -12.38,0.77 -18.28,-1.75 z"
           class="cls-21" />
        <path
           style="fill:#f39513"
           inkscape:connector-curvature="0"
           id="path474"
           d="m 504.54,980.43 2.21,1.53 c -4.52,1.41 -9,3.16 -13.78,2.65 3.52,-2.61 7.56,-3.38 11.57,-4.18 z"
           class="cls-21" />
        <path
           style="fill:#fdc403"
           inkscape:connector-curvature="0"
           id="path476"
           d="m 675.63,884.87 a 10.44,10.44 0 0 1 0,7.91 c -2.61,2.06 -4.42,4.84 -6.47,7.41 -7.67,9.62 -14.25,20.09 -22.76,29 -3.3,3.48 -5.8,0.84 -8.23,-0.27 -2.15,-1 -2.51,-3.64 -1.43,-6 3.47,-7.51 7.51,-14.82 10.67,-22.43 2.69,-6.47 6.68,-12.43 8.64,-19.16 3.23,-3.64 5.4,-4.25 9.34,-2.61 0.68,0.28 1.33,1 2.12,-0.07 z"
           class="cls-18" />
        <path
           style="fill:#fdc403"
           inkscape:connector-curvature="0"
           id="path478"
           d="m 519.75,879.41 a 10.44,10.44 0 0 1 7.31,3 c 0.9,3.2 2.79,5.93 4.38,8.8 6,10.76 13.13,20.84 18.16,32.13 2,4.38 -1.44,5.68 -3.39,7.5 -1.73,1.61 -4.32,0.93 -6.07,-1 -5.62,-6.07 -10.83,-12.59 -16.65,-18.42 -5,-5 -8.94,-10.92 -14.41,-15.3 -2.13,-4.38 -1.86,-6.62 1.16,-9.63 0.52,-0.52 1.44,-0.84 0.74,-2 z"
           class="cls-18" />
      </g>
      <polygon
         style="fill:#e6d900"
         id="polygon481"
         points="691,973 691,985 705,981 710,950 "
         class="cls-22" />
      <path
         style="fill:#0ddb00"
         inkscape:connector-curvature="0"
         id="path483"
         d="m 687,1003 18,-22 c 0,0 -13.16,1.87 -11.58,-9.06 0.47,-3.25 -0.53,-2.25 -2.17,0.75 -3.87,7.11 -11.3,25.46 -11.3,25.46 0,0 -1.95,7.85 7.05,4.85 z"
         class="cls-23" />
      <path
         style="fill:#150000"
         inkscape:connector-curvature="0"
         id="path485"
         d="m 704,963 a 4.74,4.74 0 0 0 4,0 c 0.26,0 2,-13 2,-13 l -8,9.7 a 3.92,3.92 0 0 0 2,3.3 z"
         class="cls-24" />
      <rect
         style="fill:#5b95a3"
         id="rect487"
         ry="8.5"
         rx="8.5"
         height="25"
         width="17"
         y="1408"
         x="701"
         class="cls-25" />
      <rect
         style="fill:#3e6b75"
         id="rect489"
         ry="8.5"
         rx="8.5"
         height="17"
         width="17"
         y="1412"
         x="701"
         class="cls-26" />
      <ellipse
         style="fill:#5b95a3"
         id="ellipse491"
         ry="3"
         rx="8.5"
         cy="1421"
         cx="709.5"
         class="cls-25" />
      <rect
         style="fill:#ffffff;stroke:#a1a3a6;stroke-miterlimit:10"
         id="rect493"
         transform="rotate(-11.94,568.91279,1205.8671)"
         ry="2.3699999"
         rx="2.3699999"
         height="34"
         width="26"
         y="1189"
         x="556"
         class="cls-27" />
      <rect
         style="fill:#ffffff;stroke:#a1a3a6;stroke-miterlimit:10"
         id="rect495"
         transform="rotate(5.12,573.83743,1205.6028)"
         ry="2.3699999"
         rx="2.3699999"
         height="34"
         width="26"
         y="1189"
         x="561"
         class="cls-27" />
      <path
         style="fill:#b87214"
         inkscape:connector-curvature="0"
         id="path497"
         d="m 552,1202 c 0,0 21,3 41,0 -2,34 -4,39 -4,39 0,0 -18,10 -34,3 -1,-9 -3,-42 -3,-42 z"
         class="cls-28" />
    </g>
  </g>
</svg>
