<?xml version="1.0" encoding="UTF-8" standalone="no"?>
<svg
   xmlns:dc="http://purl.org/dc/elements/1.1/"
   xmlns:cc="http://creativecommons.org/ns#"
   xmlns:rdf="http://www.w3.org/1999/02/22-rdf-syntax-ns#"
   xmlns:svg="http://www.w3.org/2000/svg"
   xmlns="http://www.w3.org/2000/svg"
   xmlns:xlink="http://www.w3.org/1999/xlink"
   xmlns:sodipodi="http://sodipodi.sourceforge.net/DTD/sodipodi-0.dtd"
   xmlns:inkscape="http://www.inkscape.org/namespaces/inkscape"
   viewBox="0 0 1000 1000"
   version="1.1"
   id="svg97"
   sodipodi:docname="slide_04.svg"
   width="1000"
   height="1000"
   inkscape:version="0.92.3 (2405546, 2018-03-11)">
  <metadata
     id="metadata101">
    <rdf:RDF>
      <cc:Work
         rdf:about="">
        <dc:format>image/svg+xml</dc:format>
        <dc:type
           rdf:resource="http://purl.org/dc/dcmitype/StillImage" />
        <dc:title>Welcome screens</dc:title>
      </cc:Work>
    </rdf:RDF>
  </metadata>
  <sodipodi:namedview
     pagecolor="#ffffff"
     bordercolor="#666666"
     borderopacity="1"
     objecttolerance="10"
     gridtolerance="10"
     guidetolerance="10"
     inkscape:pageopacity="0"
     inkscape:pageshadow="2"
     inkscape:window-width="683"
     inkscape:window-height="705"
     id="namedview99"
     showgrid="false"
     inkscape:zoom="0.504"
     inkscape:cx="500"
     inkscape:cy="500"
     inkscape:window-x="683"
     inkscape:window-y="30"
     inkscape:window-maximized="0"
     inkscape:current-layer="svg97" />
  <defs
     id="defs42">
    <style
       id="style2">.cls-1{fill:none;}.cls-2{fill:#0077cd;}.cls-3{fill:#6ea7fd;}.cls-10,.cls-4,.cls-5,.cls-6,.cls-7,.cls-8,.cls-9{opacity:0.62;}.cls-4{fill:url(#Degradado_sin_nombre_7);}.cls-5{fill:url(#Degradado_sin_nombre_50);}.cls-6{fill:url(#Degradado_sin_nombre_64);}.cls-7{fill:url(#Degradado_sin_nombre_6);}.cls-8{fill:url(#Degradado_sin_nombre_6-2);}.cls-9{fill:url(#Degradado_sin_nombre_6-3);}.cls-10{fill:url(#Degradado_sin_nombre_6-4);}.cls-11,.cls-12,.cls-13,.cls-14,.cls-15,.cls-16,.cls-17{fill:#fff;}.cls-11{opacity:0.8;}.cls-12{opacity:0.57;}.cls-13{opacity:0.3;}.cls-14{opacity:0.67;}.cls-15{opacity:0.52;}.cls-16{opacity:0.53;}.cls-18{clip-path:url(#clip-path);}.cls-19{fill:#a7a9ac;}.cls-20{fill:#fefefe;}</style>
    <linearGradient
       id="Degradado_sin_nombre_7"
       x1="-28"
       y1="1066.5"
       x2="558"
       y2="1066.5"
       gradientUnits="userSpaceOnUse">
      <stop
         offset="0.3"
         stop-color="#fff"
         stop-opacity="0"
         id="stop4" />
      <stop
         offset="1"
         stop-color="#fff"
         id="stop6" />
    </linearGradient>
    <linearGradient
       id="Degradado_sin_nombre_50"
       x1="200.28"
       y1="620.44"
       x2="627.72998"
       y2="1202.6899"
       gradientUnits="userSpaceOnUse">
      <stop
         offset="0.35"
         stop-color="#fff"
         stop-opacity="0"
         id="stop9" />
      <stop
         offset="1"
         stop-color="#fff"
         id="stop11" />
    </linearGradient>
    <linearGradient
       id="Degradado_sin_nombre_64"
       x1="607.5"
       y1="587.89001"
       x2="607.5"
       y2="1182.8199"
       gradientUnits="userSpaceOnUse">
      <stop
         offset="0"
         stop-color="#fff"
         stop-opacity="0"
         id="stop14" />
      <stop
         offset="0.15"
         stop-color="#fff"
         stop-opacity="0.23"
         id="stop16" />
      <stop
         offset="0.32"
         stop-color="#fff"
         stop-opacity="0.46"
         id="stop18" />
      <stop
         offset="0.49"
         stop-color="#fff"
         stop-opacity="0.66"
         id="stop20" />
      <stop
         offset="0.64"
         stop-color="#fff"
         stop-opacity="0.81"
         id="stop22" />
      <stop
         offset="0.78"
         stop-color="#fff"
         stop-opacity="0.91"
         id="stop24" />
      <stop
         offset="0.91"
         stop-color="#fff"
         stop-opacity="0.98"
         id="stop26" />
      <stop
         offset="1"
         stop-color="#fff"
         id="stop28" />
    </linearGradient>
    <linearGradient
       id="Degradado_sin_nombre_6"
       x1="869.59003"
       y1="814.28003"
       x2="636.59998"
       y2="1188.83"
       gradientUnits="userSpaceOnUse">
      <stop
         offset="0"
         stop-color="#fff"
         stop-opacity="0"
         id="stop31" />
      <stop
         offset="1"
         stop-color="#fff"
         id="stop33" />
    </linearGradient>
    <linearGradient
       id="Degradado_sin_nombre_6-2"
       x1="935.60999"
       y1="1035.95"
       x2="472.98001"
       y2="1312.7"
       xlink:href="#Degradado_sin_nombre_6" />
    <linearGradient
       id="Degradado_sin_nombre_6-3"
       x1="992.33002"
       y1="1294.0601"
       x2="397.13"
       y2="1280.54"
       xlink:href="#Degradado_sin_nombre_6" />
    <linearGradient
       id="Degradado_sin_nombre_6-4"
       x1="155.77"
       y1="1287.1899"
       x2="688"
       y2="1287.1899"
       xlink:href="#Degradado_sin_nombre_6" />
    <clipPath
       id="clip-path">
      <path
         class="cls-1"
         d="m 1063,718 c 0,139.3 -523,658.45 -523,658.45 0,0 -252.23,-302.95 -252.23,-442.25 C 287.77,794.9 586.7,533 726,533 c 139.3,0 337,45.7 337,185 z"
         id="path39"
         inkscape:connector-curvature="0"
         style="fill:none" />
    </clipPath>
    <linearGradient
       inkscape:collect="always"
       xlink:href="#Degradado_sin_nombre_6"
       id="linearGradient103"
       gradientUnits="userSpaceOnUse"
       x1="869.59003"
       y1="814.28003"
       x2="636.59998"
       y2="1188.83" />
  </defs>
  <title
     id="title44">Welcome screens</title>
  <g
     id="g132"
     transform="translate(-81.355932,374.23729)">
    <g
       transform="translate(0,-920)"
       data-name="Capa 1"
       id="Capa_1">
      <ellipse
         style="fill:#0077cd"
         id="ellipse46"
         ry="27"
         rx="201.5"
         cy="1450"
         cx="552.5"
         class="cls-2" />
    </g>
    <g
       transform="translate(0,-920)"
       data-name="Capa 3"
       id="Capa_3">
      <path
         style="fill:#6ea7fd"
         inkscape:connector-curvature="0"
         id="path49"
         d="m 810.7,939.2 c 0,149.51 -270.7,466.38 -270.7,460.72 0,-0.38 -270.7,-311.22 -270.7,-460.72 0,-149.5 121.19,-270.7 270.7,-270.7 149.51,0 270.7,121.2 270.7,270.7 z"
         class="cls-3" />
      <path
         style="fill:#0077cd"
         inkscape:connector-curvature="0"
         id="path51"
         d="m 792.23,939.2 c 0,139.3 -252.23,442.25 -252.23,442.25 0,0 -252.23,-302.95 -252.23,-442.25 C 287.77,799.9 400.7,687 540,687 c 139.3,0 252.23,112.9 252.23,252.2 z"
         class="cls-2" />
    </g>
    <g
       transform="translate(0,-920)"
       data-name="Capa 2"
       id="Capa_2">
      <polygon
         style="opacity:0.62000002;fill:url(#Degradado_sin_nombre_7)"
         id="polygon54"
         points="-28,1045 -24,832 558,1277 517,1301 "
         class="cls-4" />
      <polygon
         style="opacity:0.62000002;fill:url(#Degradado_sin_nombre_50)"
         id="polygon56"
         points="68,606 261,501 567.18,1242.52 526.18,1266.52 "
         class="cls-5" />
      <polygon
         style="opacity:0.62000002;fill:url(#Degradado_sin_nombre_64)"
         id="polygon58"
         points="523,411 692,429 605,1113 567,1137 "
         class="cls-6" />
      <polygon
         style="opacity:0.62000002;fill:url(#linearGradient103)"
         id="polygon60"
         points="877,679 972,773 612.91,1224.85 557.91,1241.85 "
         class="cls-7" />
      <polygon
         style="opacity:0.62000002;fill:url(#Degradado_sin_nombre_6-2)"
         id="polygon62"
         points="1038,890 1042,1057 572,1296 551.33,1264.64 "
         class="cls-8" />
      <polygon
         style="opacity:0.62000002;fill:url(#Degradado_sin_nombre_6-3)"
         id="polygon64"
         points="1259,1237 1292,1364 549.74,1317.15 529.07,1285.79 "
         class="cls-9" />
      <polygon
         style="opacity:0.62000002;fill:url(#Degradado_sin_nombre_6-4)"
         id="polygon66"
         points="96.77,1350.69 63.77,1223.69 575.33,1265.58 596,1296.94 "
         class="cls-10" />
      <path
         style="opacity:0.8;fill:#ffffff"
         inkscape:connector-curvature="0"
         id="path68"
         d="m 369.39,847 a 128.35,128.35 0 0 0 -18.5,-2.75 q -7,-0.59 -14.1,-0.71 c -0.11,-5.51 -0.32,-11 -0.66,-16.54 a 233.55,233.55 0 0 0 -2.74,-25 233.55,233.55 0 0 0 -2.74,25 c -0.34,5.51 -0.55,11 -0.66,16.53 -5.37,0.06 -10.73,0.28 -16.1,0.73 a 129.87,129.87 0 0 0 -18.5,2.74 129.87,129.87 0 0 0 18.5,2.74 c 5.34,0.44 10.68,0.67 16,0.73 0,0.51 0,1 0,1.53 q 0,12.5 0.75,25 a 230.83,230.83 0 0 0 2.75,25 230.83,230.83 0 0 0 2.75,-25 q 0.77,-12.5 0.75,-25 c 0,-0.51 0,-1 0,-1.54 q 7,-0.13 14,-0.71 a 128.35,128.35 0 0 0 18.5,-2.75 z"
         class="cls-11" />
      <path
         style="opacity:0.56999972;fill:#ffffff"
         inkscape:connector-curvature="0"
         id="path70"
         d="m 664.58,704.15 a 111.66,111.66 0 0 0 -16.1,-2.39 q -6.13,-0.51 -12.27,-0.61 c -0.1,-4.8 -0.28,-9.59 -0.57,-14.39 a 203.19,203.19 0 0 0 -2.38,-21.76 203.19,203.19 0 0 0 -2.39,21.75 c -0.3,4.79 -0.48,9.58 -0.57,14.38 -4.67,0 -9.34,0.25 -14,0.64 a 113,113 0 0 0 -16.09,2.39 113,113 0 0 0 16.09,2.39 c 4.64,0.39 9.29,0.58 13.93,0.64 0,0.44 0,0.89 0,1.33 q 0,10.87 0.65,21.75 a 200.82,200.82 0 0 0 2.38,21.73 200.82,200.82 0 0 0 2.39,-21.75 q 0.67,-10.87 0.65,-21.75 c 0,-0.45 0,-0.89 0,-1.34 q 6.1,-0.11 12.19,-0.61 a 111.66,111.66 0 0 0 16.09,-2.4 z"
         class="cls-12" />
      <path
         style="opacity:0.3;fill:#ffffff"
         inkscape:connector-curvature="0"
         id="path72"
         d="m 833,1265.55 a 127.06,127.06 0 0 0 -18.31,-2.72 q -7,-0.58 -14,-0.7 c -0.11,-5.46 -0.32,-10.92 -0.65,-16.38 a 231.22,231.22 0 0 0 -2.72,-24.75 231.22,231.22 0 0 0 -2.72,24.75 c -0.34,5.45 -0.54,10.91 -0.65,16.36 -5.31,0.06 -10.62,0.28 -15.94,0.72 a 128.57,128.57 0 0 0 -18.32,2.72 128.57,128.57 0 0 0 18.32,2.72 c 5.28,0.44 10.57,0.67 15.85,0.72 0,0.5 0,1 0,1.51 q 0,12.37 0.74,24.75 a 228.52,228.52 0 0 0 2.72,24.75 228.52,228.52 0 0 0 2.72,-24.75 q 0.76,-12.37 0.74,-24.75 c 0,-0.51 0,-1 0,-1.53 q 6.94,-0.13 13.87,-0.7 a 127.06,127.06 0 0 0 18.35,-2.72 z"
         class="cls-13" />
      <path
         style="opacity:0.67000002;fill:#ffffff"
         inkscape:connector-curvature="0"
         id="path74"
         d="m 859.07,1127.8 a 82.14,82.14 0 0 0 -11.84,-1.76 q -4.51,-0.38 -9,-0.45 c -0.07,-3.53 -0.2,-7.06 -0.42,-10.59 a 149.47,149.47 0 0 0 -1.76,-16 149.47,149.47 0 0 0 -1.76,16 c -0.22,3.53 -0.35,7.05 -0.42,10.58 -3.43,0 -6.87,0.18 -10.3,0.47 a 83.12,83.12 0 0 0 -11.84,1.76 83.12,83.12 0 0 0 11.84,1.76 c 3.42,0.28 6.83,0.43 10.25,0.47 0,0.33 0,0.65 0,1 q 0,8 0.48,16 a 147.73,147.73 0 0 0 1.76,16 147.73,147.73 0 0 0 1.76,-16 q 0.49,-8 0.48,-16 c 0,-0.33 0,-0.66 0,-1 q 4.48,-0.08 9,-0.45 a 82.14,82.14 0 0 0 11.77,-1.79 z"
         class="cls-14" />
      <path
         style="opacity:0.56999972;fill:#ffffff"
         inkscape:connector-curvature="0"
         id="path76"
         d="m 860.58,868.15 a 111.66,111.66 0 0 0 -16.1,-2.39 q -6.13,-0.51 -12.27,-0.61 c -0.1,-4.8 -0.28,-9.59 -0.57,-14.39 a 203.19,203.19 0 0 0 -2.38,-21.76 203.19,203.19 0 0 0 -2.39,21.75 c -0.3,4.79 -0.48,9.58 -0.57,14.38 -4.67,0 -9.34,0.25 -14,0.64 a 113,113 0 0 0 -16.09,2.39 113,113 0 0 0 16.09,2.39 c 4.64,0.39 9.29,0.58 13.93,0.64 0,0.44 0,0.89 0,1.33 q 0,10.87 0.65,21.75 a 200.82,200.82 0 0 0 2.38,21.73 200.82,200.82 0 0 0 2.39,-21.75 q 0.67,-10.87 0.65,-21.75 c 0,-0.45 0,-0.89 0,-1.34 q 6.1,-0.11 12.19,-0.61 a 111.66,111.66 0 0 0 16.09,-2.4 z"
         class="cls-12" />
      <path
         style="opacity:0.56999972;fill:#ffffff"
         inkscape:connector-curvature="0"
         id="path78"
         d="m 932.11,941.2 a 71.87,71.87 0 0 0 -10.36,-1.54 q -3.95,-0.33 -7.89,-0.4 c -0.06,-3.09 -0.18,-6.18 -0.37,-9.26 a 130.79,130.79 0 0 0 -1.49,-14 130.79,130.79 0 0 0 -1.54,14 c -0.19,3.08 -0.31,6.17 -0.37,9.25 -3,0 -6,0.16 -9,0.41 a 72.73,72.73 0 0 0 -10.36,1.54 72.73,72.73 0 0 0 10.27,1.54 c 3,0.25 6,0.38 9,0.41 0,0.28 0,0.57 0,0.85 q 0,7 0.42,14 a 129.26,129.26 0 0 0 1.58,14 129.26,129.26 0 0 0 1.54,-14 q 0.43,-7 0.42,-14 c 0,-0.29 0,-0.58 0,-0.86 q 3.92,-0.07 7.85,-0.4 a 71.87,71.87 0 0 0 10.3,-1.54 z"
         class="cls-12" />
      <path
         style="opacity:0.51999996;fill:#ffffff"
         inkscape:connector-curvature="0"
         id="path80"
         d="m 256.92,893.05 a 88.56,88.56 0 0 0 -12.77,-1.9 q -4.86,-0.4 -9.73,-0.49 c -0.08,-3.8 -0.22,-7.61 -0.46,-11.41 a 161.15,161.15 0 0 0 -1.88,-17.25 161.15,161.15 0 0 0 -1.89,17.25 c -0.23,3.8 -0.38,7.6 -0.45,11.4 -3.7,0 -7.41,0.2 -11.11,0.5 a 89.61,89.61 0 0 0 -12.77,1.89 89.61,89.61 0 0 0 12.77,1.89 c 3.68,0.31 7.37,0.46 11,0.5 0,0.35 0,0.7 0,1.05 q 0,8.62 0.52,17.25 a 159.27,159.27 0 0 0 1.9,17.25 159.27,159.27 0 0 0 1.9,-17.25 q 0.53,-8.62 0.52,-17.25 c 0,-0.35 0,-0.71 0,-1.06 q 4.83,-0.09 9.67,-0.49 a 88.56,88.56 0 0 0 12.78,-1.88 z"
         class="cls-15" />
      <path
         style="opacity:0.52999998;fill:#ffffff"
         inkscape:connector-curvature="0"
         id="path82"
         d="m 169.36,1083.45 a 104,104 0 0 0 -15,-2.23 q -5.71,-0.47 -11.42,-0.57 c -0.09,-4.47 -0.26,-8.93 -0.53,-13.4 a 189.18,189.18 0 0 0 -2.21,-20.25 189.18,189.18 0 0 0 -2.22,20.25 c -0.27,4.46 -0.44,8.92 -0.53,13.39 -4.35,0 -8.69,0.23 -13,0.59 a 105.2,105.2 0 0 0 -15,2.22 105.2,105.2 0 0 0 15,2.22 c 4.32,0.36 8.65,0.54 13,0.59 0,0.41 0,0.82 0,1.24 q 0,10.12 0.6,20.25 a 187,187 0 0 0 2.15,20.25 187,187 0 0 0 2.23,-20.25 q 0.62,-10.12 0.6,-20.25 c 0,-0.42 0,-0.83 0,-1.25 q 5.68,-0.11 11.35,-0.57 a 104,104 0 0 0 14.98,-2.23 z"
         class="cls-16" />
      <path
         style="fill:#ffffff"
         inkscape:connector-curvature="0"
         id="path84"
         d="m 469.05,1086.53 a 4.7,4.7 0 0 1 -2.35,3.29 c -2.87,2.06 -5.75,4.12 -8.6,6.23 -2.16,1.6 -4,1.18 -5.05,-1.23 a 68.91,68.91 0 0 1 -4.36,-14.33 6.36,6.36 0 0 0 -2.14,-4 c -1.14,-0.95 -0.82,-2.2 0.68,-2.87 4,-1.77 7.93,-3.51 11.89,-5.27 1.49,-0.66 2.94,-1.4 4.45,-2 a 7.54,7.54 0 0 1 1.95,-0.25 4.19,4.19 0 0 0 1.21,-0.12 q 12.36,-5.5 24.7,-11.05 l 4.67,-2.11 c 1.81,-0.82 2.59,-0.58 3.5,1.12 0.63,1.18 1.25,2.36 1.89,3.53 a 0.88,0.88 0 0 1 -0.1,1.21 2.59,2.59 0 0 0 -0.49,1.16 c -0.14,0.62 -0.45,1 -1.1,0.94 -0.87,-0.06 -1.38,0.27 -1.45,1.21 a 1,1 0 0 1 -1.16,1 1.15,1.15 0 0 0 -1.39,1.18 1,1 0 0 1 -1.15,1 1.1,1.1 0 0 0 -1.37,1.09 1.08,1.08 0 0 1 -1.26,1.06 1.07,1.07 0 0 0 -1.25,1.06 1.06,1.06 0 0 1 -1.24,1.08 1.08,1.08 0 0 0 -1.32,1.08 1.06,1.06 0 0 1 -1.24,1.07 1,1 0 0 0 -1.25,1 1.11,1.11 0 0 1 -1.31,1.11 1.09,1.09 0 0 0 -1.25,1.07 1.14,1.14 0 0 1 -1.33,1.09 1,1 0 0 0 -1.16,0.95 1.19,1.19 0 0 1 -1.41,1.2 0.94,0.94 0 0 0 -1.1,0.93 1.2,1.2 0 0 1 -1.46,1.22 0.91,0.91 0 0 0 -1.08,0.94 1.18,1.18 0 0 1 -1.45,1.22 0.86,0.86 0 0 0 -1,0.85 c -0.09,0.91 -0.53,1.37 -1.48,1.28 a 0.85,0.85 0 0 0 -1,0.82 c -0.13,0.88 -0.5,1.46 -1.64,1.24 z m -13.64,-12.46 a 2.51,2.51 0 0 0 -1,2.61 c 0.24,0.94 0.56,1.86 0.85,2.79 1,3.14 1.91,6.29 2.87,9.43 0.37,1.22 0.88,1.39 1.92,0.68 a 9.67,9.67 0 0 0 4.42,-9.6 44.71,44.71 0 0 0 -1.56,-6.53 2.06,2.06 0 0 0 -2.35,-1.56 19.06,19.06 0 0 0 -5.15,2.18 z"
         class="cls-17" />
      <path
         style="fill:#ffffff"
         inkscape:connector-curvature="0"
         id="path86"
         d="m 458.77,1204.75 a 16.85,16.85 0 0 1 -1.91,1.53 c -1.54,0.92 -3.84,0.39 -5.34,-1.15 -1.5,-1.54 -2.08,-3.89 -1.06,-5.48 a 21.85,21.85 0 0 1 2.14,-2.69 q 10.57,-11.83 21.18,-23.62 a 17.23,17.23 0 0 0 4.39,-11.2 c 0,-1.07 0.21,-2.12 0.26,-3.19 0.14,-3 2,-4.39 4.74,-4.79 a 14.9,14.9 0 0 1 7,1 2.87,2.87 0 0 1 0.54,0.26 c 0.89,0.55 1,1.11 0.27,1.5 a 35.3,35.3 0 0 1 -3.71,1.73 1.4,1.4 0 0 0 -1.07,1.87 c 0.12,0.55 -0.06,1.1 0.09,1.64 a 3.2,3.2 0 0 0 0.86,1.47 c 0.24,0.21 0.87,0.1 1.22,0 1.69,-0.73 3.33,-1.53 5,-2.26 a 4.58,4.58 0 0 1 1.3,-0.13 c 0.08,0.51 0.34,1.12 0.2,1.5 -0.8,2.19 -1.7,4.33 -2.58,6.47 -0.17,0.41 -0.48,0.74 -0.63,1.16 a 1.3,1.3 0 0 0 0,1 c 0.43,0.79 0.12,1.1 -0.46,1.29 -1.27,0.41 -2.5,0.89 -3.81,1.2 a 14.92,14.92 0 0 0 -8.21,5.67 q -9.14,11.35 -18.33,22.66 c -0.7,0.87 -1.44,1.71 -2.16,2.56 z m -3.09,-3.86 c -1.06,-1.06 -2.42,-1.25 -3.22,-0.44 -0.8,0.81 -0.72,2.44 0.42,3.56 1.14,1.12 2.54,1.27 3.32,0.47 0.78,-0.8 0.62,-2.48 -0.52,-3.59 z m 24.59,-33.84 c 0,0.26 -0.22,0.56 -0.12,0.73 0.86,1.45 1.76,2.88 2.67,4.31 0.08,0.13 0.34,0.17 0.43,0.22 l -0.3,-1.26 -0.76,-0.34 0.18,-0.75 c -0.67,-0.17 -1.12,-0.44 -0.65,-1.15 -1.43,-0.05 -0.48,-1.27 -1.45,-1.76 z"
         class="cls-17" />
      <path
         style="fill:#ffffff"
         inkscape:connector-curvature="0"
         id="path88"
         d="m 474.48,1278.35 -1.08,1.08 c -3.85,3.87 -7.79,7.65 -11.53,11.63 -2,2.15 -3.54,4.75 -5.53,6.91 a 38.57,38.57 0 0 1 -4.9,4 c -0.15,0.12 -0.53,0 -0.77,-0.09 a 1.78,1.78 0 0 1 -0.49,-0.38 c -2.64,-2.25 -2.58,-2.21 -0.71,-5.07 a 15.9,15.9 0 0 1 4.72,-4.55 c 4.09,-2.68 7.1,-6.53 10.55,-9.9 2.23,-2.18 4.42,-4.41 6.62,-6.61 -0.45,-0.69 -0.77,-1.16 -1.07,-1.65 a 2.08,2.08 0 0 1 1.39,-3.3 c 3.14,-0.72 5.24,-2.41 5.74,-5.76 a 2.57,2.57 0 0 1 0.77,-1.23 q 5.64,-5.76 11.32,-11.48 c 0.41,-0.41 0.84,-0.81 1.24,-1.23 a 2.39,2.39 0 0 1 3,-0.5 10.54,10.54 0 0 1 5,5 2.68,2.68 0 0 1 -0.57,3.31 c -4.13,4.24 -8.22,8.51 -12.36,12.75 a 2.93,2.93 0 0 1 -1.38,0.74 6.35,6.35 0 0 0 -5.21,5.36 c -0.44,2.2 -1.92,2.81 -3.8,1.57 z"
         class="cls-17" />
      <g
         id="g94"
         clip-path="url(#clip-path)"
         class="cls-18">
        <path
           style="fill:#a7a9ac"
           inkscape:connector-curvature="0"
           id="path90"
           d="m 234.26,1083.44 c 0,0 188.66,131.6 264.36,299.3 154.89,-354 446,-712.73 533.38,-701.09 C 816.56,567.52 797.92,599 797.92,599 c 0,0 -267.86,271.35 -299.3,591.61 C 364.69,930.88 364.69,889 364.69,889 Z"
           class="cls-19" />
        <path
           style="fill:#fefefe"
           inkscape:connector-curvature="0"
           id="path92"
           d="m 232,1099.2 c 0,0 188.66,131.6 264.36,299.3 154.89,-354 446,-712.73 533.38,-701.09 -215.45,-114.13 -234.08,-82.69 -234.08,-82.69 0,0 -267.86,271.35 -299.3,591.61 C 362.41,946.64 362.41,904.71 362.41,904.71 Z"
           class="cls-20" />
      </g>
    </g>
  </g>
</svg>
