<?xml version="1.0" encoding="UTF-8" standalone="no"?>
<svg
   xmlns:dc="http://purl.org/dc/elements/1.1/"
   xmlns:cc="http://creativecommons.org/ns#"
   xmlns:rdf="http://www.w3.org/1999/02/22-rdf-syntax-ns#"
   xmlns:svg="http://www.w3.org/2000/svg"
   xmlns="http://www.w3.org/2000/svg"
   xmlns:xlink="http://www.w3.org/1999/xlink"
   xmlns:sodipodi="http://sodipodi.sourceforge.net/DTD/sodipodi-0.dtd"
   xmlns:inkscape="http://www.inkscape.org/namespaces/inkscape"
   viewBox="0 0 1000 1000"
   version="1.1"
   id="svg130"
   sodipodi:docname="slide_01.svg"
   width="1000"
   height="1000"
   inkscape:version="0.92.3 (2405546, 2018-03-11)">
  <metadata
     id="metadata134">
    <rdf:RDF>
      <cc:Work
         rdf:about="">
        <dc:format>image/svg+xml</dc:format>
        <dc:type
           rdf:resource="http://purl.org/dc/dcmitype/StillImage" />
        <dc:title>Welcome screens</dc:title>
      </cc:Work>
    </rdf:RDF>
  </metadata>
  <sodipodi:namedview
     pagecolor="#ffffff"
     bordercolor="#666666"
     borderopacity="1"
     objecttolerance="10"
     gridtolerance="10"
     guidetolerance="10"
     inkscape:pageopacity="0"
     inkscape:pageshadow="2"
     inkscape:window-width="604"
     inkscape:window-height="705"
     id="namedview132"
     showgrid="false"
     inkscape:zoom="0.425"
     inkscape:cx="500"
     inkscape:cy="500"
     inkscape:window-x="0"
     inkscape:window-y="30"
     inkscape:window-maximized="0"
     inkscape:current-layer="svg130" />
  <defs
     id="defs42">
    <style
       id="style2">.cls-1{fill:none;}.cls-2{fill:#e8840e;}.cls-3{fill:#f7b341;}.cls-10,.cls-4,.cls-5,.cls-6,.cls-7,.cls-8,.cls-9{opacity:0.62;}.cls-4{fill:url(#Degradado_sin_nombre_7);}.cls-5{fill:url(#Degradado_sin_nombre_50);}.cls-6{fill:url(#Degradado_sin_nombre_64);}.cls-7{fill:url(#Degradado_sin_nombre_6);}.cls-8{fill:url(#Degradado_sin_nombre_6-2);}.cls-9{fill:url(#Degradado_sin_nombre_6-3);}.cls-10{fill:url(#Degradado_sin_nombre_6-4);}.cls-11{clip-path:url(#clip-path);}.cls-12,.cls-19,.cls-20,.cls-21,.cls-22,.cls-23,.cls-24{fill:#fff;}.cls-13{fill:#f5f8f6;}.cls-14{fill:#c8c8ca;}.cls-15{fill:#f7f7f7;}.cls-16{fill:#00b6d0;}.cls-17{fill:#14aa4f;}.cls-18{fill:#fba300;}.cls-19{opacity:0.8;}.cls-20{opacity:0.57;}.cls-21{opacity:0.3;}.cls-22{opacity:0.67;}.cls-23{opacity:0.52;}.cls-24{opacity:0.53;}</style>
    <linearGradient
       id="Degradado_sin_nombre_7"
       x1="-4.1799998"
       y1="757.32001"
       x2="542.01001"
       y2="757.32001"
       gradientUnits="userSpaceOnUse">
      <stop
         offset="0.3"
         stop-color="#fff"
         stop-opacity="0"
         id="stop4" />
      <stop
         offset="1"
         stop-color="#fff"
         id="stop6" />
    </linearGradient>
    <linearGradient
       id="Degradado_sin_nombre_50"
       x1="186.44"
       y1="356.92001"
       x2="529.02002"
       y2="823.56"
       gradientUnits="userSpaceOnUse">
      <stop
         offset="0.35"
         stop-color="#fff"
         stop-opacity="0"
         id="stop9" />
      <stop
         offset="1"
         stop-color="#fff"
         id="stop11" />
    </linearGradient>
    <linearGradient
       id="Degradado_sin_nombre_64"
       x1="564.84003"
       y1="473.41"
       x2="564.84003"
       y2="1027.92"
       gradientUnits="userSpaceOnUse">
      <stop
         offset="0"
         stop-color="#fff"
         stop-opacity="0"
         id="stop14" />
      <stop
         offset="0.15"
         stop-color="#fff"
         stop-opacity="0.23"
         id="stop16" />
      <stop
         offset="0.32"
         stop-color="#fff"
         stop-opacity="0.46"
         id="stop18" />
      <stop
         offset="0.49"
         stop-color="#fff"
         stop-opacity="0.66"
         id="stop20" />
      <stop
         offset="0.64"
         stop-color="#fff"
         stop-opacity="0.81"
         id="stop22" />
      <stop
         offset="0.78"
         stop-color="#fff"
         stop-opacity="0.91"
         id="stop24" />
      <stop
         offset="0.91"
         stop-color="#fff"
         stop-opacity="0.98"
         id="stop26" />
      <stop
         offset="1"
         stop-color="#fff"
         id="stop28" />
    </linearGradient>
    <linearGradient
       id="Degradado_sin_nombre_6"
       x1="809.12"
       y1="553"
       x2="591.96002"
       y2="902.09998"
       gradientUnits="userSpaceOnUse">
      <stop
         offset="0"
         stop-color="#fff"
         stop-opacity="0"
         id="stop31" />
      <stop
         offset="1"
         stop-color="#fff"
         id="stop33" />
    </linearGradient>
    <linearGradient
       id="Degradado_sin_nombre_6-2"
       x1="870.65997"
       y1="759.59998"
       x2="439.45999"
       y2="1017.55"
       xlink:href="#Degradado_sin_nombre_6" />
    <linearGradient
       id="Degradado_sin_nombre_6-3"
       x1="950.57001"
       y1="958.96002"
       x2="458.45999"
       y2="947.77002"
       xlink:href="#Degradado_sin_nombre_6" />
    <linearGradient
       id="Degradado_sin_nombre_6-4"
       x1="130.75999"
       y1="958.35999"
       x2="626.83002"
       y2="958.35999"
       xlink:href="#Degradado_sin_nombre_6" />
    <clipPath
       id="clip-path">
      <path
         class="cls-1"
         d="M 803.92,899.92 C 803.92,1072.11 541,1381 541,1381 368.81,1381 180.37,1072.11 180.37,899.92 180.37,727.73 320,588.15 492.14,588.15 c 172.14,0 311.78,139.59 311.78,311.77 z"
         id="path39"
         inkscape:connector-curvature="0"
         style="fill:none" />
    </clipPath>
    <linearGradient
       inkscape:collect="always"
       xlink:href="#Degradado_sin_nombre_6"
       id="linearGradient3841"
       gradientUnits="userSpaceOnUse"
       x1="809.12"
       y1="553"
       x2="591.96002"
       y2="902.09998" />
  </defs>
  <title
     id="title44">Welcome screens</title>
  <g
     id="g3925"
     transform="matrix(1.048409,0,0,1.048409,162.00197,49.958209)">
    <g
       transform="translate(-211.52542,-636.98305)"
       data-name="Capa 1"
       id="Capa_1">
      <ellipse
         style="fill:#e8840e"
         id="ellipse46"
         ry="27"
         rx="201.5"
         cy="1450"
         cx="552.5"
         class="cls-2" />
    </g>
    <path
       class="cls-3"
       d="m 599.17458,302.21695 c 0,149.51 -270.7,466.38 -270.7,460.72 0,-0.38 -270.7,-311.22 -270.7,-460.72 0,-149.5 121.19,-270.7 270.7,-270.7 149.51,0 270.7,121.2 270.7,270.7 z"
       id="path49"
       inkscape:connector-curvature="0"
       style="fill:#f7b341" />
    <path
       class="cls-2"
       d="m 580.70458,302.21695 c 0,139.3 -252.23,442.25 -252.23,442.25 0,0 -252.23,-302.95 -252.23,-442.25 0,-139.3 112.93,-252.2 252.23,-252.2 139.3,0 252.23,112.9 252.23,252.2 z"
       id="path51"
       inkscape:connector-curvature="0"
       style="fill:#e8840e" />
    <polygon
       transform="translate(-211.52542,-636.98305)"
       class="cls-4"
       points="542.01,953.52 503.79,975.89 -4.18,737.28 -0.45,538.75 "
       id="polygon53"
       style="opacity:0.62000002;fill:url(#Degradado_sin_nombre_7)" />
    <polygon
       transform="translate(-211.52542,-636.98305)"
       class="cls-5"
       points="491.68,847.26 453.46,869.63 62,358.87 241.89,261 "
       id="polygon55"
       style="opacity:0.62000002;fill:url(#Degradado_sin_nombre_50)" />
    <polygon
       transform="translate(-211.52542,-636.98305)"
       class="cls-6"
       points="578.36,969.36 527.1,985.21 486.08,308.54 643.6,325.31 "
       id="polygon57"
       style="opacity:0.62000002;fill:url(#Degradado_sin_nombre_64)" />
    <polygon
       transform="translate(-211.52542,-636.98305)"
       class="cls-7"
       points="569.89,935.66 518.63,951.51 816.03,426.91 904.58,514.52 "
       id="polygon59"
       style="opacity:0.62000002;fill:url(#linearGradient3841)" />
    <polygon
       transform="translate(-211.52542,-636.98305)"
       class="cls-8"
       points="531.76,1001.99 512.49,972.75 966.09,623.57 969.82,779.22 "
       id="polygon61"
       style="opacity:0.62000002;fill:url(#Degradado_sin_nombre_6-2)" />
    <polygon
       transform="translate(-211.52542,-636.98305)"
       class="cls-9"
       points="586.61,990.26 567.35,961.03 1167.42,905.05 1198.18,1023.42 "
       id="polygon63"
       style="opacity:0.62000002;fill:url(#Degradado_sin_nombre_6-3)" />
    <polygon
       transform="translate(-211.52542,-636.98305)"
       class="cls-10"
       points="521.81,938.22 541.08,967.45 75.77,1017.54 45.01,899.17 "
       id="polygon65"
       style="opacity:0.62000002;fill:url(#Degradado_sin_nombre_6-4)" />
    <g
       transform="translate(-211.52542,-636.98305)"
       class="cls-11"
       clip-path="url(#clip-path)"
       id="g105">
      <path
         class="cls-12"
         d="M 729.35,1193.06 V 762.45 c 0,-69.9 -21.44,-76.43 -47.53,-76.43 H 445.07 c -76.43,0 -68,70.84 -68,70.84 V 790 l -0.27,0.09 v 430.61 c 0,69.9 21.44,76.43 47.53,76.43 H 661 c 76.43,0 68,-70.84 68,-70.84 v -33.19 z"
         id="path67"
         inkscape:connector-curvature="0"
         style="fill:#ffffff" />
      <circle
         class="cls-13"
         cx="498.67001"
         cy="730.28998"
         r="6.52"
         id="circle69"
         style="fill:#f5f8f6" />
      <circle
         class="cls-13"
         cx="555.98999"
         cy="707.46002"
         r="4.6599998"
         id="circle71"
         style="fill:#f5f8f6" />
      <rect
         class="cls-14"
         x="527.56"
         y="730.28998"
         width="55.919998"
         height="3.73"
         id="rect73"
         style="fill:#c8c8ca" />
      <rect
         class="cls-15"
         x="399.39999"
         y="769.90002"
         width="315.04001"
         height="418.48999"
         id="rect75"
         style="fill:#f7f7f7" />
      <rect
         class="cls-12"
         x="442.28"
         y="816.51001"
         width="56.860001"
         height="53.130001"
         id="rect77"
         style="fill:#ffffff" />
      <rect
         class="cls-12"
         x="527.09998"
         y="816.51001"
         width="56.860001"
         height="53.130001"
         id="rect79"
         style="fill:#ffffff" />
      <rect
         class="cls-12"
         x="614.71002"
         y="816.51001"
         width="56.860001"
         height="53.130001"
         id="rect81"
         style="fill:#ffffff" />
      <rect
         class="cls-12"
         x="411.51999"
         y="916.23999"
         width="287.07001"
         height="73.629997"
         rx="12"
         ry="12"
         id="rect83"
         style="fill:#ffffff" />
      <rect
         class="cls-12"
         x="411.51999"
         y="1012.24"
         width="287.07001"
         height="73.629997"
         rx="12"
         ry="12"
         id="rect85"
         style="fill:#ffffff" />
      <rect
         class="cls-12"
         x="411.51999"
         y="1101.72"
         width="287.07001"
         height="73.629997"
         rx="12"
         ry="12"
         id="rect87"
         style="fill:#ffffff" />
      <rect
         class="cls-16"
         x="416.07001"
         y="1015.97"
         width="65.459999"
         height="68.040001"
         rx="12"
         ry="12"
         id="rect89"
         style="fill:#00b6d0" />
      <rect
         class="cls-17"
         x="416.07001"
         y="1106.38"
         width="65.459999"
         height="68.040001"
         rx="12"
         ry="12"
         id="rect91"
         style="fill:#14aa4f" />
      <rect
         class="cls-18"
         x="416.07001"
         y="919.03003"
         width="65.459999"
         height="68.040001"
         rx="12"
         ry="12"
         id="rect93"
         style="fill:#fba300" />
      <rect
         class="cls-15"
         x="503.79001"
         y="930.21997"
         width="75.5"
         height="26.1"
         id="rect95"
         style="fill:#f7f7f7" />
      <rect
         class="cls-15"
         x="503.79001"
         y="961.90997"
         width="167.77"
         height="13.98"
         id="rect97"
         style="fill:#f7f7f7" />
      <rect
         class="cls-15"
         x="503.79001"
         y="1035.54"
         width="75.5"
         height="27.959999"
         id="rect99"
         style="fill:#f7f7f7" />
      <rect
         class="cls-15"
         x="519.64001"
         y="1114.76"
         width="64.309998"
         height="20.51"
         id="rect101"
         style="fill:#f7f7f7" />
      <rect
         class="cls-15"
         x="499.13"
         y="1138.0699"
         width="164.03999"
         height="14.91"
         id="rect103"
         style="fill:#f7f7f7" />
    </g>
    <path
       class="cls-19"
       d="m 190.96458,244.59695 a 91.86,91.86 0 0 0 -13.24,-2 q -5,-0.42 -10.09,-0.51 c -0.08,-3.95 -0.23,-7.89 -0.47,-11.84 a 167.15,167.15 0 0 0 -2,-17.89 167.15,167.15 0 0 0 -2,17.89 c -0.24,3.94 -0.39,7.88 -0.47,11.83 -3.84,0 -7.68,0.2 -11.52,0.52 a 93,93 0 0 0 -13.24,2 93,93 0 0 0 13.24,2 c 3.82,0.32 7.64,0.48 11.46,0.52 0,0.36 0,0.73 0,1.09 q 0,8.95 0.53,17.89 a 165.2,165.2 0 0 0 2,17.89 165.2,165.2 0 0 0 2,-17.89 q 0.55,-8.95 0.53,-17.89 c 0,-0.37 0,-0.74 0,-1.1 q 5,-0.09 10,-0.51 a 91.86,91.86 0 0 0 13.27,-2 z"
       id="path107"
       inkscape:connector-curvature="0"
       style="opacity:0.8;fill:#ffffff" />
    <path
       class="cls-20"
       d="m 414.39458,149.51695 a 79.91,79.91 0 0 0 -11.52,-1.71 q -4.39,-0.37 -8.78,-0.44 c -0.07,-3.43 -0.2,-6.87 -0.41,-10.3 a 145.42,145.42 0 0 0 -1.71,-15.57 145.42,145.42 0 0 0 -1.7,15.52 c -0.21,3.43 -0.34,6.86 -0.41,10.29 -3.34,0 -6.68,0.18 -10,0.46 a 80.87,80.87 0 0 0 -11.52,1.71 80.87,80.87 0 0 0 11.52,1.71 c 3.32,0.28 6.65,0.42 10,0.45 0,0.32 0,0.63 0,1 q 0,7.78 0.47,15.57 a 143.72,143.72 0 0 0 1.71,15.57 143.72,143.72 0 0 0 1.71,-15.57 q 0.48,-7.78 0.47,-15.57 c 0,-0.32 0,-0.64 0,-1 q 4.36,-0.08 8.73,-0.44 a 79.91,79.91 0 0 0 11.44,-1.68 z"
       id="path109"
       inkscape:connector-curvature="0"
       style="opacity:0.56999966;fill:#ffffff" />
    <path
       class="cls-21"
       d="m 522.77458,544.14695 a 90.94,90.94 0 0 0 -13.11,-1.95 q -5,-0.42 -10,-0.5 c -0.08,-3.91 -0.23,-7.81 -0.47,-11.72 a 165.48,165.48 0 0 0 -1.94,-17.71 165.48,165.48 0 0 0 -1.94,17.71 c -0.24,3.9 -0.39,7.81 -0.47,11.71 -3.8,0 -7.6,0.2 -11.41,0.52 a 92,92 0 0 0 -13.11,1.94 92,92 0 0 0 13.11,1.94 c 3.78,0.31 7.56,0.48 11.35,0.52 0,0.36 0,0.72 0,1.08 q 0,8.86 0.53,17.71 a 163.55,163.55 0 0 0 1.95,17.71 163.55,163.55 0 0 0 1.95,-17.71 q 0.55,-8.86 0.53,-17.71 c 0,-0.36 0,-0.73 0,-1.09 q 5,-0.09 9.93,-0.5 a 90.94,90.94 0 0 0 13.1,-1.95 z"
       id="path111"
       inkscape:connector-curvature="0"
       style="opacity:0.3;fill:#ffffff" />
    <path
       class="cls-22"
       d="m 541.42458,445.55695 a 58.79,58.79 0 0 0 -8.47,-1.26 q -3.23,-0.27 -6.46,-0.32 c -0.05,-2.53 -0.15,-5.05 -0.3,-7.58 a 107,107 0 0 0 -1.26,-11.45 107,107 0 0 0 -1.26,11.45 c -0.16,2.52 -0.25,5 -0.3,7.57 -2.46,0 -4.92,0.13 -7.37,0.34 a 59.49,59.49 0 0 0 -8.47,1.26 59.49,59.49 0 0 0 8.47,1.26 c 2.44,0.2 4.89,0.31 7.33,0.33 0,0.23 0,0.47 0,0.7 q 0,5.73 0.34,11.45 a 105.73,105.73 0 0 0 1.26,11.45 105.73,105.73 0 0 0 1.26,-11.45 q 0.35,-5.73 0.34,-11.45 c 0,-0.24 0,-0.47 0,-0.71 q 3.21,-0.06 6.42,-0.32 a 58.79,58.79 0 0 0 8.47,-1.27 z"
       id="path113"
       inkscape:connector-curvature="0"
       style="opacity:0.67000002;fill:#ffffff" />
    <path
       class="cls-20"
       d="m 542.47458,259.73695 a 79.91,79.91 0 0 0 -11.49,-1.72 q -4.39,-0.37 -8.78,-0.44 c -0.07,-3.43 -0.2,-6.87 -0.41,-10.3 a 145.42,145.42 0 0 0 -1.71,-15.57 145.42,145.42 0 0 0 -1.71,15.57 c -0.21,3.43 -0.34,6.86 -0.41,10.29 -3.34,0 -6.68,0.18 -10,0.46 a 80.87,80.87 0 0 0 -11.49,1.71 80.87,80.87 0 0 0 11.52,1.71 c 3.32,0.28 6.65,0.42 10,0.45 0,0.32 0,0.63 0,1 q 0,7.78 0.47,15.57 a 143.72,143.72 0 0 0 1.62,15.55 143.72,143.72 0 0 0 1.71,-15.57 q 0.48,-7.78 0.47,-15.57 c 0,-0.32 0,-0.64 0,-1 q 4.36,-0.08 8.73,-0.44 a 79.91,79.91 0 0 0 11.48,-1.7 z"
       id="path115"
       inkscape:connector-curvature="0"
       style="opacity:0.56999966;fill:#ffffff" />
    <path
       class="cls-20"
       d="m 593.69458,312.01695 a 51.44,51.44 0 0 0 -7.41,-1.1 q -2.83,-0.23 -5.65,-0.28 c 0,-2.21 -0.13,-4.42 -0.26,-6.63 a 93.61,93.61 0 0 0 -1.1,-10 93.6,93.6 0 0 0 -1.1,10 c -0.14,2.21 -0.22,4.42 -0.26,6.62 -2.15,0 -4.3,0.11 -6.45,0.29 a 52.05,52.05 0 0 0 -7.41,1.1 52.05,52.05 0 0 0 7.41,1.1 c 2.14,0.18 4.28,0.27 6.42,0.29 0,0.2 0,0.41 0,0.61 q 0,5 0.3,10 a 92.51,92.51 0 0 0 1.1,10 92.51,92.51 0 0 0 1.1,-10 q 0.31,-5 0.3,-10 c 0,-0.21 0,-0.41 0,-0.62 q 2.81,-0.05 5.62,-0.28 a 51.44,51.44 0 0 0 7.39,-1.1 z"
       id="path117"
       inkscape:connector-curvature="0"
       style="opacity:0.56999966;fill:#ffffff" />
    <path
       class="cls-23"
       d="m 122.63458,284.70695 a 63.38,63.38 0 0 0 -9.14,-1.36 q -3.48,-0.29 -7,-0.35 c -0.05,-2.72 -0.16,-5.45 -0.33,-8.17 a 115.33,115.33 0 0 0 -1.35,-12.35 115.33,115.33 0 0 0 -1.34,12.36 c -0.17,2.72 -0.27,5.44 -0.33,8.16 -2.65,0 -5.3,0.14 -7.95,0.36 a 64.13,64.13 0 0 0 -9.14,1.35 64.13,64.13 0 0 0 9.14,1.35 c 2.64,0.22 5.27,0.33 7.91,0.36 0,0.25 0,0.5 0,0.75 q 0,6.17 0.37,12.35 a 114,114 0 0 0 1.36,12.35 114,114 0 0 0 1.36,-12.35 q 0.38,-6.17 0.37,-12.35 c 0,-0.25 0,-0.51 0,-0.76 q 3.46,-0.06 6.92,-0.35 a 63.38,63.38 0 0 0 9.15,-1.35 z"
       id="path119"
       inkscape:connector-curvature="0"
       style="opacity:0.51999996;fill:#ffffff" />
    <path
       class="cls-24"
       d="m 59.97458,421.01695 a 74.4,74.4 0 0 0 -10.72,-1.6 q -4.09,-0.34 -8.17,-0.41 c -0.06,-3.2 -0.19,-6.39 -0.38,-9.59 a 135.39,135.39 0 0 0 -1.59,-14.49 135.39,135.39 0 0 0 -1.59,14.49 c -0.2,3.19 -0.32,6.39 -0.38,9.58 -3.11,0 -6.22,0.17 -9.33,0.42 a 75.29,75.29 0 0 0 -10.74,1.6 75.29,75.29 0 0 0 10.72,1.59 c 3.09,0.26 6.19,0.39 9.28,0.42 0,0.3 0,0.59 0,0.89 q 0,7.25 0.43,14.49 a 133.81,133.81 0 0 0 1.6,14.49 133.81,133.81 0 0 0 1.6,-14.49 q 0.45,-7.25 0.43,-14.49 c 0,-0.3 0,-0.6 0,-0.89 q 4.06,-0.08 8.12,-0.41 a 74.4,74.4 0 0 0 10.72,-1.6 z"
       id="path121"
       inkscape:connector-curvature="0"
       style="opacity:0.52999998;fill:#ffffff" />
    <path
       class="cls-12"
       d="m 232.63458,325.34695 a 4.45,4.45 0 0 1 -2.22,3.11 c -2.72,2 -5.44,3.9 -8.13,5.89 -2,1.52 -3.82,1.11 -4.78,-1.17 a 65.21,65.21 0 0 1 -4.12,-13.56 6,6 0 0 0 -2,-3.78 c -1.08,-0.89 -0.77,-2.08 0.64,-2.71 3.75,-1.67 7.5,-3.32 11.25,-5 1.41,-0.62 2.78,-1.33 4.21,-1.89 a 7.14,7.14 0 0 1 1.84,-0.24 4,4 0 0 0 1.15,-0.12 q 11.7,-5.21 23.37,-10.46 l 4.42,-2 c 1.72,-0.78 2.45,-0.55 3.32,1.06 0.6,1.11 1.19,2.23 1.79,3.34 a 0.84,0.84 0 0 1 -0.09,1.15 2.45,2.45 0 0 0 -0.47,1.1 c -0.14,0.58 -0.42,0.93 -1,0.89 -0.82,-0.05 -1.3,0.26 -1.37,1.14 a 0.92,0.92 0 0 1 -1.09,0.91 1.09,1.09 0 0 0 -1.31,1.12 0.92,0.92 0 0 1 -1.09,0.92 1,1 0 0 0 -1.3,1 1,1 0 0 1 -1.19,1 1,1 0 0 0 -1.19,1 1,1 0 0 1 -1.17,1 1,1 0 0 0 -1.24,1 1,1 0 0 1 -1.17,1 1,1 0 0 0 -1.18,1 1,1 0 0 1 -1.24,1 1,1 0 0 0 -1.18,1 1.08,1.08 0 0 1 -1.26,1 0.92,0.92 0 0 0 -1.1,0.9 1.13,1.13 0 0 1 -1.34,1.13 0.89,0.89 0 0 0 -1,0.88 1.14,1.14 0 0 1 -1.38,1.15 0.86,0.86 0 0 0 -1,0.89 1.11,1.11 0 0 1 -1.37,1.15 0.81,0.81 0 0 0 -1,0.81 c -0.08,0.86 -0.5,1.29 -1.4,1.21 a 0.8,0.8 0 0 0 -1,0.77 c -0.19,1.08 -0.54,1.61 -1.61,1.41 z m -12.91,-11.79 a 2.37,2.37 0 0 0 -0.92,2.47 c 0.23,0.89 0.53,1.76 0.8,2.64 0.91,3 1.8,6 2.72,8.93 0.35,1.15 0.83,1.32 1.81,0.64 a 9.15,9.15 0 0 0 4.18,-9.09 42.3,42.3 0 0 0 -1.48,-6.17 2,2 0 0 0 -2.23,-1.48 18,18 0 0 0 -4.88,2.06 z"
       id="path123"
       inkscape:connector-curvature="0"
       style="fill:#ffffff" />
    <path
       class="cls-12"
       d="m 222.90458,437.20695 a 16,16 0 0 1 -1.81,1.44 c -1.46,0.87 -3.64,0.36 -5,-1.09 -1.36,-1.45 -2,-3.68 -1,-5.19 a 20.67,20.67 0 0 1 2,-2.55 q 10,-11.19 20,-22.35 a 16.3,16.3 0 0 0 4.15,-10.6 c 0,-1 0.2,-2 0.25,-3 0.14,-2.87 1.89,-4.15 4.49,-4.54 a 14.1,14.1 0 0 1 6.61,1 2.71,2.71 0 0 1 0.51,0.25 c 0.85,0.52 1,1 0.25,1.42 a 33.4,33.4 0 0 1 -3.51,1.63 1.33,1.33 0 0 0 -1,1.77 c 0.12,0.52 -0.06,1 0.09,1.55 a 3,3 0 0 0 0.82,1.39 c 0.23,0.19 0.82,0.09 1.15,0 1.6,-0.69 3.16,-1.45 4.76,-2.14 a 4.33,4.33 0 0 1 1.23,-0.13 c 0.07,0.48 0.32,1.06 0.19,1.42 -0.76,2.07 -1.61,4.09 -2.44,6.12 -0.16,0.39 -0.46,0.7 -0.6,1.1 a 1.23,1.23 0 0 0 0,0.91 c 0.4,0.75 0.12,1 -0.44,1.22 -1.2,0.39 -2.37,0.84 -3.61,1.14 a 14.11,14.11 0 0 0 -7.77,5.37 q -8.65,10.74 -17.34,21.44 c -0.67,0.82 -1.36,1.62 -2,2.42 z m -2.92,-3.65 c -1,-1 -2.29,-1.18 -3,-0.41 -0.71,0.77 -0.68,2.3 0.4,3.36 1.08,1.06 2.4,1.2 3.14,0.44 0.74,-0.76 0.53,-2.32 -0.55,-3.39 z m 23.27,-32 c 0,0.24 -0.21,0.53 -0.11,0.69 0.81,1.37 1.67,2.73 2.53,4.08 0.08,0.12 0.32,0.16 0.41,0.21 l -0.29,-1.19 -0.72,-0.32 0.17,-0.71 c -0.63,-0.16 -1.06,-0.42 -0.62,-1.09 -1.36,-0.08 -0.46,-1.21 -1.38,-1.69 z"
       id="path125"
       inkscape:connector-curvature="0"
       style="fill:#ffffff" />
    <path
       class="cls-12"
       d="m 237.76458,506.84695 -1,1 c -3.65,3.66 -7.37,7.24 -10.91,11 -1.9,2 -3.35,4.49 -5.23,6.54 a 36.5,36.5 0 0 1 -4.63,3.79 c -0.14,0.11 -0.5,0 -0.73,-0.08 a 1.69,1.69 0 0 1 -0.46,-0.36 c -2.5,-2.13 -2.45,-2.09 -0.67,-4.8 a 15,15 0 0 1 4.47,-4.31 c 3.87,-2.54 6.72,-6.18 10,-9.36 2.11,-2.06 4.18,-4.17 6.27,-6.26 -0.42,-0.65 -0.73,-1.09 -1,-1.56 a 2,2 0 0 1 1.32,-3.12 c 3,-0.68 5,-2.28 5.43,-5.45 a 2.43,2.43 0 0 1 0.73,-1.17 q 5.34,-5.45 10.71,-10.86 c 0.39,-0.39 0.79,-0.77 1.18,-1.16 a 2.26,2.26 0 0 1 2.82,-0.47 10,10 0 0 1 4.75,4.76 2.54,2.54 0 0 1 -0.54,3.13 c -3.91,4 -7.78,8.05 -11.69,12.06 a 2.78,2.78 0 0 1 -1.31,0.7 6,6 0 0 0 -4.93,5.07 c -0.42,2.08 -1.82,2.66 -3.59,1.49 z"
       id="path127"
       inkscape:connector-curvature="0"
       style="fill:#ffffff" />
  </g>
</svg>
