<?xml version="1.0" encoding="UTF-8" standalone="no"?>
<svg
   xmlns:dc="http://purl.org/dc/elements/1.1/"
   xmlns:cc="http://creativecommons.org/ns#"
   xmlns:rdf="http://www.w3.org/1999/02/22-rdf-syntax-ns#"
   xmlns:svg="http://www.w3.org/2000/svg"
   xmlns="http://www.w3.org/2000/svg"
   xmlns:sodipodi="http://sodipodi.sourceforge.net/DTD/sodipodi-0.dtd"
   xmlns:inkscape="http://www.inkscape.org/namespaces/inkscape"
   viewBox="0 0 1000 1000"
   version="1.1"
   id="svg280"
   sodipodi:docname="slide_03.svg"
   width="1000"
   height="1000"
   inkscape:version="0.92.3 (2405546, 2018-03-11)">
  <metadata
     id="metadata284">
    <rdf:RDF>
      <cc:Work
         rdf:about="">
        <dc:format>image/svg+xml</dc:format>
        <dc:type
           rdf:resource="http://purl.org/dc/dcmitype/StillImage" />
        <dc:title>Welcome screens</dc:title>
      </cc:Work>
    </rdf:RDF>
  </metadata>
  <sodipodi:namedview
     pagecolor="#ffffff"
     bordercolor="#666666"
     borderopacity="1"
     objecttolerance="10"
     gridtolerance="10"
     guidetolerance="10"
     inkscape:pageopacity="0"
     inkscape:pageshadow="2"
     inkscape:window-width="683"
     inkscape:window-height="705"
     id="namedview282"
     showgrid="false"
     inkscape:zoom="0.504"
     inkscape:cx="500"
     inkscape:cy="500"
     inkscape:window-x="0"
     inkscape:window-y="30"
     inkscape:window-maximized="0"
     inkscape:current-layer="svg280" />
  <defs
     id="defs12">
    <style
       id="style2">.cls-1,.cls-18,.cls-19{fill:none;}.cls-2{fill:#038741;}.cls-3{fill:#4db583;}.cls-4{clip-path:url(#clip-path);}.cls-5{fill:#f2f2f2;}.cls-6{fill:#ccd5d9;}.cls-7{fill:#d0d1d3;}.cls-8{fill:#f1f2f3;}.cls-9{fill:#a1c8eb;}.cls-10{fill:#f3e1c9;}.cls-11{fill:#c9e0a6;}.cls-12{fill:#fefefe;}.cls-13{fill:#139441;}.cls-14{fill:#06aff0;}.cls-15{fill:#c02b32;}.cls-16{fill:#fbf4f3;}.cls-17{fill:#eaf8fd;}.cls-18,.cls-19{stroke:#383838;stroke-miterlimit:10;stroke-width:2px;}.cls-19{stroke-dasharray:11.96 11.96;}.cls-20{fill:#dbf1fd;}.cls-21{fill:#cf2027;}.cls-22{opacity:0.62;fill:url(#Degradado_sin_nombre_7);}</style>
    <clipPath
       id="clip-path">
      <path
         class="cls-1"
         d="m 792.23,938.2 c 0,139.3 -252.23,442.25 -252.23,442.25 0,0 -252.23,-302.95 -252.23,-442.25 C 287.77,798.9 400.7,686 540,686 c 139.3,0 252.23,112.9 252.23,252.2 z"
         id="path4"
         inkscape:connector-curvature="0"
         style="fill:none" />
    </clipPath>
    <linearGradient
       id="Degradado_sin_nombre_7"
       x1="1072"
       y1="1066.5"
       x2="1658"
       y2="1066.5"
       gradientUnits="userSpaceOnUse">
      <stop
         offset="0.3"
         stop-color="#fff"
         stop-opacity="0"
         id="stop7" />
      <stop
         offset="1"
         stop-color="#fff"
         id="stop9" />
    </linearGradient>
  </defs>
  <title
     id="title14">Welcome screens</title>
  <g
     id="g420"
     transform="translate(-40.677966,366.10169)">
    <g
       transform="translate(0,-920)"
       data-name="Capa 1"
       id="Capa_1">
      <ellipse
         style="fill:#038741"
         id="ellipse16"
         ry="27"
         rx="201.5"
         cy="1450"
         cx="552.5"
         class="cls-2" />
    </g>
    <g
       transform="translate(0,-920)"
       data-name="Capa 3"
       id="Capa_3">
      <path
         style="fill:#4db583"
         inkscape:connector-curvature="0"
         id="path19"
         d="m 810.7,939.2 c 0,149.51 -270.7,466.38 -270.7,460.72 0,-0.38 -270.7,-311.22 -270.7,-460.72 0,-149.5 121.19,-270.7 270.7,-270.7 149.51,0 270.7,121.2 270.7,270.7 z"
         class="cls-3" />
      <path
         style="fill:#038741"
         inkscape:connector-curvature="0"
         id="path21"
         d="m 792.23,939.2 c 0,139.3 -252.23,442.25 -252.23,442.25 0,0 -252.23,-302.95 -252.23,-442.25 C 287.77,799.9 400.7,687 540,687 c 139.3,0 252.23,112.9 252.23,252.2 z"
         class="cls-2" />
      <g
         id="g216"
         clip-path="url(#clip-path)"
         class="cls-4">
        <g
           id="HFKVOT.tif">
          <path
             style="fill:#f2f2f2"
             inkscape:connector-curvature="0"
             id="path23"
             d="m 434,679.44 h 12.79 V 681 c 0.43,30.67 -1.47,61.4 2.69,92 1.13,8.31 0.79,8.44 8.77,5.75 28.62,-9.67 54.24,-25.49 80.76,-39.47 3,-1.56 2.76,-3.59 2.15,-6.5 -3.55,-17.07 -6.35,-34.26 -6.3,-51.78 v -1.53 h 28.43 v 1.51 c -0.26,13.71 2.17,27.13 4.4,40.56 0.53,3.21 1.82,5.07 5.77,3.59 16.81,-6.29 33.94,-5.28 50.49,0.2 18.41,6.09 36.3,7.06 54.39,-0.33 5.21,8.2 11.35,15.88 14.14,25.43 a 7.08,7.08 0 0 0 -2.11,0.22 c -23.6,10.27 -47.49,10.53 -71.86,2.78 C 608,750 597.3,747.49 586,751.11 c -7.69,2.47 -7.91,2.63 -3.95,9.88 9.45,17.29 23.51,29.76 39.93,40.21 14.63,9.31 21.9,23.59 22.18,40.59 0.45,27.44 -0.84,54.81 -12.55,80.42 -1.69,3.69 -0.43,4.8 3.1,4.5 7.5,-0.64 15,-1.19 22.49,-2.11 16.58,-2 33.13,-4.3 49.7,-6.47 4.57,3.6 6.08,8.71 7,14.12 -4.48,0.23 -9,0.12 -13.44,0.75 -25.18,3.55 -50.25,8.07 -75.82,8 -1.85,0 -4.26,-0.2 -5.46,0.82 -8.16,7 -16.1,14.34 -16,26.28 0.08,10.61 1.68,21.12 2.61,31.67 2.32,26.35 7.38,52.2 13,78 0.59,2.72 1.13,5.41 3.65,7.4 9.26,7.3 18.36,14.79 27.52,22.21 3.19,5.69 0.65,11.37 0,17.06 -9.09,-4.2 -15.44,-12.25 -24.07,-17.11 l -0.57,-0.29 0.56,0.31 c -0.31,10.17 2.4,20.08 2.76,30.17 0.6,16.8 0.41,16.8 17,19.54 -1.92,5.89 0.17,11 3.07,16 a 39.16,39.16 0 0 1 3.89,8.33 c 1.17,4 0.77,7.12 -4.92,5.64 -5.69,-1.48 -11.45,-2.68 -17.19,-4 -4.18,-0.93 -6.6,-0.25 -8.08,4.83 -7.43,25.37 -21.3,47.77 -33.42,71 -7.31,14 -16.15,27.19 -22,42 -6.89,-16 -19.14,-22.88 -36.35,-21.26 -0.32,-12.48 -5.69,-23.53 -11.46,-33.94 -12.57,-22.68 -17.78,-47.06 -19.75,-72.47 -1.11,-14.27 -1,-14.85 -15,-16.83 -13,-1.84 -26.36,-2.44 -36.17,8.86 -3.41,3.93 -6.63,8.05 -10.49,11.5 -3.86,3.45 -4.31,6.53 -2,11.18 5.36,10.82 12.3,20.18 22.47,26.84 13.87,9.07 17.44,21.72 14.63,37.53 -1.46,8.18 -3.45,16.53 -0.18,25.14 6.34,16.66 18.41,27.67 33.41,36.14 1.61,10.54 7,18.56 16,24.21 -1.42,2.84 -4.33,3.64 -6.9,4.59 -7.07,2.62 -14.17,5.25 -21.43,7.23 -6.06,1.66 -5.52,3.81 -2.28,8.16 4.59,6.17 9.83,12.06 12.11,19.7 h -34.06 c -4.94,-14.69 -9.36,-16.68 -22.48,-10.11 q -5.08,2.54 -10.14,5.12 c -2.1,1.08 -4.43,2 -4.33,5 h -49.76 c 0.64,-3.49 3.87,-4.67 6.19,-6.42 14.71,-11.12 29.71,-21.84 46.44,-29.82 3.23,-1.54 5.47,-3.09 1.86,-6.66 -13.44,-13.27 -26.42,-27 -40.28,-39.86 -14.08,-13 -28.12,-26 -39.92,-41.15 -12.09,-15.55 -21.66,-32.65 -30.76,-50 -3.75,-7.16 -4.58,-7.17 -9,-0.73 -7.47,10.83 -12.17,22.88 -15.57,35.5 -3.68,13.67 -6.33,27.61 -11.1,41 -5.72,16 -12.45,32.49 -26.7,41.77 -21.12,13.75 -26,35.41 -33.24,56.41 H 198 c 0.34,-1.59 0.27,-3.45 1.1,-4.72 7,-10.81 11,-22.88 15.3,-34.9 4.41,-12.43 11.06,-23.37 22.27,-31.08 18.47,-12.7 27.5,-31.08 31.11,-52.62 3.07,-1.2 6.31,-2.09 9.18,-3.66 17.8,-9.77 20.87,-30.2 7.51,-49.19 5.7,-8.36 9.91,-18 17.85,-24.44 5.93,-4.79 5.3,-8.73 2.2,-14.49 -8.08,-15 -17,-29.51 -23.5,-45.3 -1.45,-3.53 -4.08,-3.88 -7.39,-4.11 -19.12,-1.33 -34.94,-9.62 -47.45,-23.9 -10.32,-11.78 -18,-25.37 -25.58,-39 -10.07,-18.21 -21.41,-35.5 -41.65,-43.81 -22.2,-9.12 -43.92,-19.59 -67.42,-25.29 L 90,980.79 q 0,-14.21 0,-28.43 l 1.47,-1.51 c 15.27,6.34 31.17,7.39 47.28,4.87 30.58,-4.79 55.73,-21.22 80.64,-38.14 7.59,-5.16 14.51,-11.34 22.9,-15.3 6.58,4.55 13.7,7.2 21.86,6.72 17.88,-1.06 34.14,-18.79 27.29,-41.51 0.37,-2.61 2.33,-3.82 4.22,-5.34 10.1,-8.14 20,-16.49 29.9,-24.93 10.58,-9.05 19.7,-19.77 31.31,-27.61 3.11,-2.1 2.48,-3.82 0.12,-6.1 -4.08,-3.93 -7.74,-8.25 -11.46,-12.54 -27.9,-32.19 -47,-69 -58,-110 v -1.51 h 14.21 l 1.35,1.4 a 33.53,33.53 0 0 0 0.71,5.58 249.58,249.58 0 0 0 27.39,61.34 c 10.67,17.07 22.61,33.21 37.09,47.32 1.95,1.9 3.41,4.38 7.12,2.55 17.54,-8.65 36.6,-10.94 55.6,-12.97 4.16,-0.44 5.47,-1.34 4.83,-6.08 a 342.54,342.54 0 0 1 -3.21,-48 c 0.13,-16.57 0,-33.14 -0.09,-49.7 z M 320.22,1129 c 2,8.89 7.16,16.28 11.29,24.15 2.32,4.42 13,6.38 17.09,3.61 1,-0.7 1.19,-1.64 0.6,-2.33 -7.75,-9.1 -12.1,-20.65 -21,-28.91 l 9.94,-10.42 c 7.6,7 11.88,16.42 17.55,24.8 10.33,15.28 22.89,26.2 42.69,25.72 7.25,-0.18 13.43,-2 18.4,-7.53 5.4,-5.95 10.53,-12.23 16.55,-17.5 14.81,-13 32.87,-14.8 51.42,-12.92 5.32,0.54 6.54,0.26 4.52,-4.88 -2.02,-5.14 -3.87,-10.67 -5.73,-16 -7.73,-22.32 -13.59,-44.83 -7.3,-68.65 a 6.24,6.24 0 0 0 -0.15,-4.12 c -5,-9.37 -9.54,-19.23 -18,-26.08 -11,-8.94 -24,-7.16 -36.6,-5 -12.81,2.15 -25.62,5.51 -38.56,4.49 -19.51,-1.53 -38.66,-2.42 -57.24,5.33 -3.41,1.42 -7.34,1.71 -11.06,2.29 -2.75,0.43 -4.38,1.67 -4.32,4.58 0.36,17 -4.76,33.09 -8.32,49.44 -12.19,5.3 -20.14,13.91 -21.38,27.64 -1.55,17.29 13.49,37.47 39.61,32.29 z M 557.66,923.94 c -2.52,-0.59 -5.08,-1 -7.54,-1.79 C 532,916.5 513.7,914.4 495.07,919 c -8.14,2 -8.41,3.71 -3.76,10.43 4.54,6.56 11.09,10.79 16.85,16 7,6.28 14.94,11.87 18.69,20.95 5.69,13.79 -0.77,24.69 -9,35 -7.21,9 -15.31,17.26 -21.82,26.88 -3.07,4.54 -2.31,7.38 1.24,11 6.55,6.69 14.6,10.34 23.38,12.6 19.77,5.1 40,2.19 60,2.86 3.69,0.12 4.18,-1.88 3.6,-5.08 -1.42,-7.86 -2.79,-15.74 -3.79,-23.67 -2,-15.86 -4.17,-31.71 -5.39,-47.64 -0.69,-9 -2,-18.39 3.33,-26.77 11.42,3.46 22,1.93 31,-6.09 13.9,-12.28 14,-30.26 0.41,-46.37 5.68,-18.79 6.31,-38.14 5.9,-57.51 -0.16,-7.36 -3.6,-13.47 -10.29,-17.59 -20.91,-12.9 -38.26,-29.43 -49.11,-51.73 -3.42,-7 -6.69,-6.59 -12.51,-3.52 -13,6.82 -25.19,15 -38.91,20.38 -21.16,-12.69 -43,-0.5 -47.44,17.46 -3.87,15.5 2.25,27.23 15.06,36 -0.06,6 3.08,11.28 4.3,17 2.92,13.85 3.34,28 5.16,41.94 0.71,5.41 2.8,6.11 7.43,4.68 18.3,-5.68 36.68,-4.8 55,-0.17 l 15.72,4 z m -127.86,9.31 c -0.35,-3.73 0,-7.45 -0.84,-11.25 -4.07,-18.22 -11,-35.64 -15.37,-53.71 -4,-16.33 -12.17,-28.62 -26.22,-37.86 -4.86,-3.2 -7.68,-3.1 -11.62,0.27 -25.61,21.9 -49.93,45.34 -77.35,65.09 -1.46,1 -2.52,2.36 -2.16,4.15 3,15 2.65,30.45 4.94,45.57 2.53,16.74 5.44,33.43 7.54,50.22 0.63,5 2.46,4.35 5.84,3.41 14.32,-4 28.73,-7.1 43.79,-7.18 16.31,-0.08 31,-4.54 42.13,-17.9 3.53,-4.25 8.61,-7.31 13.26,-10.51 10.67,-7.35 17.19,-16.75 16.06,-30.3 z m 58,116.86 c 0.77,8.78 0,15.7 1.16,22.82 3,19.07 11.51,36.39 16.57,54.78 0.83,3 3.12,3.41 5.94,3.88 27.38,4.52 54.79,9 81.9,14.94 5.58,1.23 7.55,-0.33 7,-5.81 -0.21,-2.11 -0.07,-4.26 -0.3,-6.37 -2.21,-20.15 -6.77,-39.86 -10.86,-59.67 -0.94,-4.55 -2.72,-5.87 -7,-5.81 -12.3,0.16 -24.6,0 -36.9,0.08 -20.53,0.05 -39.82,-3.95 -57.55,-18.84 z m 0.6,271.37 c -4.83,-5.28 -9.45,-10.24 -14,-15.3 -12.28,-13.7 -20.59,-28.69 -16.42,-48.11 0.78,-3.62 0.86,-7.45 1.44,-11.18 1.2,-7.71 -0.46,-15 -7.33,-19.44 a 76.31,76.31 0 0 1 -28.61,-33.39 c -1.59,-3.49 -3.48,-4.2 -7.19,-3 -9.3,3 -18.74,4 -28.54,1.76 -11,-2.48 -22.18,-4.15 -33.28,-6.17 -1.29,-0.23 -2.79,-1.43 -3.79,0.24 -0.84,1.39 0.16,2.74 0.82,4 2,3.73 4.22,7.38 6.18,11.15 a 224.55,224.55 0 0 0 51.2,65.43 c 20,17.63 39.64,35.63 56.43,56.48 1.58,2 3.25,4.32 6.46,3.24 5.68,-1.98 11.4,-3.95 16.59,-5.72 z M 146.73,983.7 c 9.74,6.54 19.92,8.75 29.84,11.4 32.64,8.69 65.53,15.28 99.68,11.49 4.82,-0.53 4.81,-1.92 4.44,-6 -2.47,-26.93 -10,-53.21 -10.24,-80.41 0,-3.59 -1.74,-3.06 -4,-1.41 -11.49,8.25 -22.93,16.58 -34.62,24.55 -22.48,15.32 -45.5,29.62 -72.16,36.76 -4.01,1.1 -7.98,2.24 -12.94,3.62 z m 399,294.71 c 5.53,-10.06 10.28,-18.47 14.82,-27 11.76,-22.06 24.83,-43.48 33.24,-67.19 3,-8.41 2.88,-8.46 -6.17,-10.08 l -65.28,-11.68 c -8.91,-1.6 -9.19,-1.59 -8.73,7.51 1.16,23.29 5.57,45.73 16.84,66.56 6.86,12.64 12.34,25.89 15.32,41.88 z M 282,1027.45 c -0.24,-9.7 -6.23,-7.05 -9.84,-6.43 -8.75,1.52 -17.47,1.31 -26.14,0.51 -15.68,-1.45 -31.43,-2.6 -46.8,-6.41 -1.12,-0.28 -2.5,-0.42 -3.19,0.76 -0.69,1.18 0.44,2.12 1.1,3.07 3.51,5 7.16,10 10.45,15.13 8,12.54 14.25,26.11 23.25,38.05 10,13.24 21.72,23.35 38.94,25.86 4.8,0.7 4.65,-0.51 3.76,-4.14 -3.19,-13 -0.26,-25.7 2.54,-38.37 2.2,-9.88 4.21,-19.8 5.93,-28.03 z m 135.8,-39.07 c 14.81,-1.57 29.11,-3.56 42.41,4.15 9.41,5.46 16.13,13.65 21.58,22.93 1.31,2.24 2.41,4.42 5,1.23 7.34,-8.91 15,-17.56 22,-26.72 8.59,-11.25 7.91,-16.82 -2.3,-26.94 a 134.05,134.05 0 0 0 -10,-8.94 c -6.74,-5.47 -13.67,-10.86 -18.3,-18.51 -4.63,-7.65 -4.7,-7.59 -11.6,-2.17 -1.11,0.87 -2.09,1.92 -3.12,2.89 -16.87,15.82 -27.79,36.85 -45.66,52.08 z m -21.4,-168.5 c 2.2,1.61 3.13,2.34 4.12,3 12.74,8.57 20.58,20.55 24.63,35.21 7,25.25 17.55,49.55 19.6,76.84 6.37,-5.79 11.12,-12.28 18,-16.06 5.54,-3.06 7.74,-6.53 5.58,-12.9 -1.26,-3.7 -1.44,-7.88 -1.52,-11.86 -0.51,-24.23 -7.14,-46.94 -16.8,-68.92 -5.68,-12.93 -5.69,-13.41 -19.58,-12 -10.9,1.14 -21.95,2.08 -34.01,6.69 z"
             class="cls-5" />
          <path
             style="fill:#ccd5d9"
             inkscape:connector-curvature="0"
             id="path25"
             d="m 692.57,750.41 c -2.79,-9.55 -8.93,-17.23 -14.14,-25.43 -1.73,-2.48 -3.49,-4.95 -5.19,-7.46 -8,-11.79 -16.57,-23.18 -21.78,-36.59 h 17.1 c 6.71,13.18 15.19,25.21 24.13,36.93 A 154.42,154.42 0 0 0 707,742.17 c 3.2,6.85 6.46,13.68 9.59,20.56 6.06,13.36 11.51,26.95 15,41.24 A 34,34 0 0 1 728,829.86 c -6.58,11.53 -14.93,21.83 -22,33 -5.62,8.86 -5.83,10.43 0.6,18.57 a 121.11,121.11 0 0 1 13.12,21 c 2.21,4.41 3.72,9.23 7.14,13 0.58,5.65 3.27,10.51 5.77,15.44 7.23,17.49 17.08,33.53 27.06,49.53 8.59,13.78 17.93,27.2 22.78,43 6.44,21 8.84,42.71 12.75,64.18 2.28,12.51 -1.66,22 -11,30 -2.07,1.77 -4.63,3.46 -4.78,6.72 L 765,1120.07 c 1.38,-6.67 6,-11.17 10.72,-15.44 4.72,-4.27 5.82,-9.34 4.57,-15.41 -1.47,-7.13 -2.9,-14.31 -3.76,-21.53 -3.51,-29.6 -13.26,-56.78 -30.62,-81.16 -2.28,-3.2 -3.73,-4.49 -7.63,-1.77 a 55.52,55.52 0 0 1 -16.07,7.32 c -11.73,3.49 -21,10.55 -28.54,20 -4.27,5.34 -7.85,11.28 -12.49,16.24 -8.85,9.45 -12.09,20.5 -11.21,33.08 0.83,11.84 -1.12,23.57 -1.88,35.3 -0.44,6.69 0.17,13.71 -2.13,20.28 0.47,4.79 -2.06,9.55 -0.15,14.36 a 94.33,94.33 0 0 0 -4.4,29.82 c -2.45,2.54 0,4.51 1.07,6.25 4.6,7.74 7.05,15.91 6.17,25 1.64,13.56 7.45,25.69 13,37.89 9.67,21.15 15.49,42.59 10,66.28 -4.82,20.83 -3.08,41.39 6.55,61.05 3.06,6.25 6.29,12.66 7.22,19.79 h -118 c -3.95,-4.68 -7.93,-9.33 -11.84,-14 -7.39,-8.92 -14.56,-18 -18.08,-29.28 9.28,-9.35 12.36,-20.45 9.39,-33.26 5.82,-14.77 14.66,-28 22,-42 12.12,-23.22 26,-45.62 33.42,-71 1.49,-5.08 3.91,-5.75 8.08,-4.83 5.74,1.27 11.5,2.47 17.19,4 5.69,1.53 6.09,-1.67 4.92,-5.64 a 39.16,39.16 0 0 0 -3.89,-8.33 c -2.9,-5 -5,-10.08 -3.07,-16 l 4.36,-32.62 c 0.69,-5.69 3.23,-11.37 0,-17.06 a 8.18,8.18 0 0 0 2.87,-6.23 c 1,-17.16 2.22,-34.31 2.72,-51.49 0.22,-7.65 1.91,-14.44 6.42,-20.53 3.78,-5.11 7.53,-10.24 11.44,-15.25 10.14,-13 19.83,-26.6 36.1,-33 5.71,-2.24 11.26,-4.91 17,-7 5.74,-2.09 5.65,-4.93 3.3,-10.14 -4.85,-10.75 -12.71,-20 -16,-31.47 -0.92,-5.41 -2.43,-10.52 -7,-14.12 0.59,-6.71 -2.72,-11.57 -7.05,-16.29 C 689,890 682.38,875.72 678.53,860.26 c -3,-12.06 -1.18,-24.84 -5.67,-36.82 -4.18,-11.15 -0.69,-19.37 8.93,-26.39 6.33,-4.61 14.14,-5.2 20.76,-8.81 3.29,-1.79 6.63,-4 4.77,-8.15 C 702.85,770 699.09,759.5 692.57,750.41 Z M 693,854.69 c 7.9,-12 14.84,-22.36 21.53,-32.85 3.74,-5.87 2.59,-12.18 1,-18.5 -0.74,-2.86 -2,-3.34 -4.57,-2.25 -6.27,2.71 -12.57,5.39 -18.9,8 -4.53,1.84 -6.15,4.86 -4.42,9.53 4.08,10.95 4.67,22.48 5.36,36.07 z"
             class="cls-6" />
          <path
             style="fill:#d0d1d3"
             inkscape:connector-curvature="0"
             id="path27"
             d="m 1086.44,813.06 v 51.17 a 28.39,28.39 0 0 0 -5.47,1.21 c -31.41,13.72 -62.65,27.81 -93.22,43.33 -11.62,5.9 -16.38,16 -16.53,29.11 -0.23,20.81 2.32,41.53 1.52,62.35 -0.27,6.94 -1.89,13 -7.67,17.41 -6.73,5.15 -13.32,10.4 -21.16,14 -8.57,3.94 -17,8.37 -24.35,14.38 -4,3.24 -6.59,3.41 -9.09,-1.87 -9,-19 -18.73,-37.72 -27.4,-56.9 -5.33,-11.79 -12,-23.09 -14.72,-36 6.07,-20.21 1.4,-32.38 -16.45,-42.9 -1.57,-6.41 -2.85,-12.92 -4.82,-19.21 -1.44,-4.58 -0.39,-6.61 4.15,-8.54 q 32,-13.6 63.59,-28 c 26.61,-12 53.14,-22.44 83.67,-18.67 21.69,2.68 42.39,-4.5 62.62,-12.33 8.28,-3.16 16.13,-7.93 25.33,-8.54 z"
             class="cls-7" />
          <path
             style="fill:#f1f2f3"
             inkscape:connector-curvature="0"
             id="path29"
             d="m 668.67,1192.35 c 0.89,-9 -1.56,-17.22 -6.17,-25 -1,-1.74 -3.52,-3.71 -1.07,-6.25 a 24,24 0 0 1 3.53,0.31 c 59,13.92 117.68,29.29 175.57,47.44 14.19,4.45 28.51,8.49 42.72,12.87 4.7,1.45 6.92,0.53 7.39,-4.86 1,-11.95 2.77,-23.83 3.87,-35.78 1.48,-16.15 8.41,-28.77 22.77,-36.89 l 9.18,11.16 c -7.89,3.66 -14.08,9.31 -16,17.84 -3.59,15.86 -3.72,32.21 -5.92,48.29 -0.47,3.46 0.87,5.24 4.68,5.29 3,0 6,1.13 9.07,1.25 26,1.07 50.82,6.74 74,19 11.32,6 22.77,11.68 33.56,19.46 0.13,-1.41 0.37,-2 0.18,-2.27 -12.65,-21.06 -21,-43.79 -26.12,-67.74 -4.12,-19.41 -14.66,-34.52 -30.05,-46.57 7.6,-11.75 8.83,-23.81 1.72,-36.26 A 212.68,212.68 0 0 0 996,1090 c 5.73,-6.63 11.56,-13.09 18.45,-18.51 21.39,-16.84 47.22,-24.27 72,-33.85 v 15.64 c -7.48,0.66 -13.84,4.59 -20.65,7.17 -20.9,7.92 -41.35,16.72 -56,34.73 a 190.07,190.07 0 0 1 -23.17,23.92 c -3.75,3.25 -4.2,4.14 -0.08,7.54 21,17.33 36.27,38.39 41.59,65.77 a 165.39,165.39 0 0 0 16,46 c 9.29,17.53 19.24,34.74 29.43,51.77 3.89,6.5 6.22,14.2 12.81,18.91 v 58.28 a 26.27,26.27 0 0 1 -1.68,-3 c -7.37,-18.41 -18.41,-32.39 -39.06,-37.68 -16,-4.09 -28.56,-13.76 -34.33,-30.1 -2.65,-7.51 -7.74,-12.15 -14.68,-15.38 -3.42,-1.59 -6.62,-3.66 -10,-5.41 -16.39,-8.61 -33.24,-16.12 -51.93,-17.79 -21.87,-2 -43.63,-4.28 -64.74,-10.77 -4.27,-1.31 -9.13,-4 -12.87,-2.93 -4.6,1.28 -2.84,7.69 -4.17,11.74 -5.54,16.88 -15.44,31.32 -24.85,46 -5.87,9.18 -6.64,18.34 -1.37,28.08 5.27,9.74 14,16.55 21.55,24.33 6.61,6.82 12.78,13.87 16.34,22.84 h -16.95 c -0.93,-4.39 -3.92,-7.44 -6.9,-10.46 -5.49,-5.57 -11.3,-10.84 -16.51,-16.65 -9.19,-10.25 -16,-21.5 -15.1,-36.22 0.59,-9.28 5.32,-16.45 9.91,-23.9 8.53,-13.83 18.23,-27 21.77,-43.48 1.34,-6.22 -0.4,-8.26 -5.94,-9.93 -38.66,-11.66 -77.37,-23.15 -116.6,-32.74 -16.5,-3.92 -32.72,-9.19 -49.6,-11.57 z"
             class="cls-8" />
          <path
             style="fill:#a1c8eb"
             inkscape:connector-curvature="0"
             id="path31"
             d="m 864.69,1377.36 c -3.56,-9 -9.73,-16 -16.34,-22.84 -7.54,-7.78 -16.24,-14.51 -21.55,-24.33 -5.31,-9.82 -4.5,-18.91 1.37,-28.08 9.41,-14.72 19.32,-29.15 24.85,-46 1.33,-4 -0.43,-10.46 4.17,-11.74 3.73,-1 8.6,1.61 12.87,2.93 21.1,6.49 42.87,8.82 64.74,10.77 18.7,1.67 35.54,9.18 51.93,17.79 3.35,1.76 6.54,3.82 10,5.41 6.94,3.23 12,7.87 14.68,15.38 5.77,16.34 18.35,26 34.33,30.1 20.65,5.28 31.69,19.27 39.06,37.68 a 26.27,26.27 0 0 0 1.68,3 c 0,10 0,10 -10,10 z"
             class="cls-9" />
          <path
             style="fill:#f2f2f2"
             inkscape:connector-curvature="0"
             id="path33"
             d="m 1086.44,813.06 c -9.19,0.61 -17,5.38 -25.33,8.59 -20.22,7.82 -40.93,15 -62.62,12.33 -30.52,-3.77 -57.06,6.64 -83.67,18.67 q -31.65,14.31 -63.59,28 c -4.55,1.93 -5.59,4 -4.15,8.54 2,6.29 3.25,12.79 4.82,19.21 -9.13,-2.56 -18.1,-2.47 -26.82,1.66 -5.19,-5 -4.51,-12.11 -6.24,-18.28 -1.39,-4.94 -2.43,-7 -7.43,-3.06 -13.24,10.45 -28,18.47 -43.07,25.91 -1.93,1 -4.5,1.34 -5.58,4.49 9.08,1.34 17.1,4.74 25.16,7.94 6.83,2.71 13.6,5.45 21.09,5.57 l 0.4,14 a 30.57,30.57 0 0 1 -14.56,-2.1 c -20.06,-7.66 -40.1,-15.48 -62.26,-13.64 -2.5,-4.93 -5.18,-9.79 -5.77,-15.44 a 246.55,246.55 0 0 0 82.61,-42.64 c 3.22,-2.51 4.17,-4.77 3.37,-9 -5.68,-29.81 -10.72,-59.81 -16.55,-89.6 -3.62,-18.5 -7.55,-37 -12.73,-55.12 -1.21,-4.23 -2.82,-5.42 -7.4,-4 -12.83,4.09 -25.57,8.36 -38.15,13.2 -10.6,4.08 -19.85,11.08 -31,13.84 a 154.37,154.37 0 0 1 -14.31,-24.29 25.53,25.53 0 0 0 4,-1.38 341.55,341.55 0 0 1 71.72,-28.46 c 5,-1.39 3,-4.29 2.49,-7.09 v -1.5 h 103.77 q 0,1.43 0,2.86 c -2.32,2.55 -5.55,3.57 -8.55,4.83 -15.9,6.64 -32.11,12.47 -48.89,16.45 -6,1.42 -7.47,4.1 -5.93,10 3.86,14.8 7.69,29.63 10.64,44.63 6,30.44 11.54,61 17,91.51 0.76,4.29 1.94,4.36 5.37,2.83 13.58,-6 27.27,-11.82 40.88,-17.78 2.09,-0.92 4.58,-1.54 5.4,-4.18 2.14,1.46 4.2,3.05 6.44,4.34 20.14,11.64 45.53,-2.46 46.26,-25.67 0.45,-14.25 -7,-24.72 -22.11,-31.07 a 228,228 0 0 1 9.77,-62.68 c 3.33,-11.22 7.08,-22.58 6.29,-34.65 v -1.43 h 28.43 l 1.43,1.43 c -2.13,4.66 -1.32,9.76 -2.18,14.64 -3.74,21.35 -12.11,41.63 -14.25,63.38 -1.36,13.87 -1.83,27.66 -0.31,41.49 0.61,5.58 2.75,7.53 9.37,6.27 9.63,-1.83 19.68,-3.44 29.56,-1.82 a 90,90 0 0 0 44,-3.71 c 17.89,-6 35.51,-12.86 53.24,-19.35 z"
             class="cls-5" />
          <path
             style="fill:#d0d1d3"
             inkscape:connector-curvature="0"
             id="path35"
             d="m 668.67,1192.35 c 16.88,2.37 33.1,7.6 49.59,11.63 39.23,9.6 77.94,21.08 116.6,32.74 5.55,1.67 7.28,3.71 5.94,9.93 -3.54,16.48 -13.24,29.65 -21.77,43.48 -4.59,7.45 -9.33,14.62 -9.91,23.9 -0.93,14.72 5.9,26 15.1,36.22 5.21,5.81 11,11.08 16.51,16.65 3,3 6,6.07 6.9,10.46 H 705.49 c -0.93,-7.13 -4.16,-13.54 -7.22,-19.79 -9.63,-19.66 -11.37,-40.22 -6.55,-61.05 5.48,-23.69 -0.35,-45.13 -10,-66.28 -5.59,-12.24 -11.41,-24.33 -13.05,-37.89 z"
             class="cls-7" />
          <path
             style="fill:#d0d1d3"
             inkscape:connector-curvature="0"
             id="path37"
             d="m 267.82,1254.05 c -3.61,21.53 -12.64,39.92 -31.11,52.62 -11.22,7.71 -17.87,18.64 -22.27,31.08 -4.26,12 -8.29,24.09 -15.3,34.9 -0.83,1.27 -0.75,3.13 -1.1,4.72 H 91.44 l 0.36,-76.67 c 7.77,-5.32 16.19,-9.37 24.6,-13.56 9.4,-4.69 14.7,-12.75 16.39,-23.38 2.5,-15.77 0.57,-31.59 1.28,-47.37 0.09,-2 -1.09,-4.69 1.15,-5.84 2.24,-1.15 3.86,1 5.6,2.16 16.47,10.69 34.36,16.16 54.16,15.49 12,-0.4 24.11,0 36.17,0 5.85,19.28 16.03,26.41 36.67,25.85 z"
             class="cls-7" />
          <path
             style="fill:#d0d1d3"
             inkscape:connector-curvature="0"
             id="path39"
             d="m 230.74,1377.36 c 7.26,-21 12.12,-42.66 33.24,-56.41 14.25,-9.28 21,-25.74 26.7,-41.77 4.77,-13.38 7.42,-27.32 11.1,-41 3.4,-12.62 8.1,-24.67 15.57,-35.5 4.43,-6.43 5.26,-6.43 9,0.73 9.1,17.39 18.68,34.49 30.76,50 11.8,15.18 25.84,28.14 39.92,41.15 13.86,12.81 26.84,26.58 40.28,39.86 3.61,3.57 1.37,5.12 -1.86,6.66 -16.73,8 -31.73,18.7 -46.44,29.82 -2.32,1.75 -5.55,2.93 -6.19,6.42 z"
             class="cls-7" />
          <path
             style="fill:#f3e1c9"
             inkscape:connector-curvature="0"
             id="path41"
             d="m 1086.44,781.79 c -17.74,6.48 -35.36,13.31 -53.24,19.35 a 90,90 0 0 1 -44,3.71 c -9.88,-1.62 -19.93,0 -29.56,1.82 -6.63,1.26 -8.76,-0.69 -9.37,-6.27 -1.52,-13.83 -1.05,-27.63 0.31,-41.49 2.14,-21.75 10.5,-42 14.25,-63.38 0.85,-4.87 0,-10 2.18,-14.64 h 119.4 z"
             class="cls-10" />
          <path
             style="fill:#f2f2f2"
             inkscape:connector-curvature="0"
             id="path43"
             d="m 868.35,951.27 c 2.68,12.9 9.4,24.2 14.73,36 8.67,19.18 18.4,37.87 27.4,56.9 2.5,5.29 5.12,5.11 9.09,1.87 7.38,-6 15.78,-10.44 24.35,-14.38 7.84,-3.61 14.42,-8.86 21.16,-14 5.78,-4.42 7.4,-10.47 7.67,-17.41 0.8,-20.82 -1.75,-41.54 -1.52,-62.35 0.15,-13.07 4.91,-23.21 16.53,-29.11 30.56,-15.52 61.81,-29.61 93.22,-43.33 a 28.39,28.39 0 0 1 5.47,-1.21 v 14.21 c -29.57,12.56 -58.33,26.88 -87.59,40.09 -9.77,4.41 -13.37,11.32 -13.44,21.68 -0.16,23.25 3.33,46.41 0.68,70.82 4.49,-2.95 8.1,-5.09 11.45,-7.56 15.64,-11.54 31.87,-22.15 50.24,-28.77 12.6,-4.54 25,-9.94 38.65,-11 v 14.21 a 177.5,177.5 0 0 0 -69.31,28.89 c -14.93,10.39 -29.63,21.31 -46.59,28.1 -15.41,6.17 -27.6,17.09 -41.38,25.63 -5.9,3.66 -5.35,7.16 -1.55,11.93 6.47,8.12 12.68,16.44 20.38,23.5 0.94,0.86 3.64,1.31 1.54,3.61 -10.59,-1.06 -19.6,2.26 -27.11,9.77 -7.07,-5 -11.53,-12.4 -16.39,-19.26 -3.29,-4.63 -5.3,-3.42 -7.76,0.17 -3.07,4.48 -6,9 -9.09,13.51 -10.44,15.11 -22.66,28.27 -39.65,36.27 -19.74,9.29 -39.76,8.27 -59.85,1.59 a 228.56,228.56 0 0 0 -82.85,-11.29 q -20.52,0.91 -41,1 c -1.91,-4.81 0.61,-9.57 0.15,-14.36 15.27,0.24 30.51,-0.08 45.8,-0.75 17.77,-0.78 35.58,1.37 53.26,3.85 l 14.39,4.17 c 6.13,1.68 12.31,3.17 18.37,5.08 29.75,9.4 52.62,-2.21 67.62,-18.17 9.39,-10 16.08,-22.06 24.45,-32.85 3.2,-4.12 3.25,-7.57 0.62,-12.09 -14.5,-24.93 -25.54,-51.59 -38,-77.54 -3.12,-6.5 -7,-12.91 -7.73,-20.39 10.65,-1.82 18.04,-8.15 23.59,-17.03 z"
             class="cls-5" />
          <path
             style="fill:#d0d1d3"
             inkscape:connector-curvature="0"
             id="path45"
             d="m 1086.44,1309.14 c -6.59,-4.71 -8.92,-12.41 -12.81,-18.91 -10.19,-17 -20.14,-34.24 -29.43,-51.77 a 165.39,165.39 0 0 1 -16,-46 c -5.32,-27.38 -20.61,-48.44 -41.59,-65.77 -4.12,-3.4 -3.67,-4.29 0.08,-7.54 a 190.07,190.07 0 0 0 23.17,-23.92 c 14.6,-18 35.06,-26.81 56,-34.73 6.81,-2.58 13.17,-6.51 20.65,-7.17 z"
             class="cls-7" />
          <path
             style="fill:#d0d1d3"
             inkscape:connector-curvature="0"
             id="path47"
             d="m 937.19,680.87 c 0.79,12.07 -3,23.43 -6.29,34.65 a 228,228 0 0 0 -9.77,62.68 c -9.12,-1.78 -17.8,-1.15 -25.89,4.08 -12.76,8.25 -21.09,29.38 -4.7,48.31 -0.82,2.65 -3.3,3.27 -5.4,4.18 -13.61,6 -27.3,11.74 -40.88,17.78 -3.43,1.53 -4.61,1.46 -5.37,-2.83 -5.43,-30.55 -11,-61.08 -17,-91.51 -3,-15 -6.78,-29.83 -10.64,-44.63 -1.54,-5.9 -0.05,-8.58 5.93,-10 16.78,-4 33,-9.81 48.89,-16.45 3,-1.25 6.24,-2.28 8.55,-4.83 1.72,-0.19 2.91,-0.89 2.84,-2.86 h 2.84 c 2.07,2.36 4.85,1.36 7.32,1.37 16.54,0.1 33.05,0.06 49.57,0.06 z"
             class="cls-7" />
          <path
             style="fill:#c9e0a6"
             inkscape:connector-curvature="0"
             id="path49"
             d="m 949.53,1099.6 c 2.1,-2.29 -0.61,-2.75 -1.55,-3.61 -7.69,-7.06 -13.9,-15.38 -20.38,-23.5 -3.8,-4.77 -4.35,-8.28 1.55,-11.93 13.78,-8.54 26,-19.47 41.38,-25.63 17,-6.79 31.66,-17.7 46.59,-28.1 a 177.5,177.5 0 0 1 69.31,-28.89 v 59.7 c -24.81,9.58 -50.64,17 -72,33.85 -6.89,5.42 -12.72,11.88 -18.45,18.51 a 212.89,212.89 0 0 1 -24.35,23.67 32.38,32.38 0 0 0 -22.1,-14.07 z"
             class="cls-11" />
          <path
             style="fill:#f3e1c9"
             inkscape:connector-curvature="0"
             id="path51"
             d="m 1086.44,963.73 c -13.62,1 -26.06,6.45 -38.65,11 -18.37,6.62 -34.6,17.22 -50.24,28.77 -3.36,2.48 -7,4.61 -11.45,7.56 2.65,-24.41 -0.84,-47.58 -0.68,-70.82 0.07,-10.37 3.67,-17.27 13.44,-21.68 29.26,-13.21 58,-27.53 87.59,-40.09 z"
             class="cls-10" />
          <path
             style="fill:#f2f2f2"
             inkscape:connector-curvature="0"
             id="path53"
             d="m 183.83,679.44 h 32.69 v 1.64 c -0.39,2.68 -2,4.71 -3.43,6.91 -4.42,7 -9.09,13.84 -12.15,21.59 -8.07,20.42 -9.37,41.85 -8.38,63.37 0.77,16.75 5.93,31.95 20.09,42.83 6.78,5.21 14.22,9.3 21.32,13.95 8.83,5.79 19.23,9.18 26.56,17.27 -10.73,1 -19.05,6.11 -25.14,14.95 -4.27,-0.26 -7.33,-3.2 -10.79,-5.11 -14.09,-7.76 -28.82,-15.18 -39,-27.83 -6.06,-7.54 -12.07,-7.92 -20.25,-6.87 -24.52,3.14 -48.86,8.08 -73.73,8.05 L 90,830.11 V 815.9 h 1.45 a 138.22,138.22 0 0 0 24,-1.34 c 17,-2.53 34,-4.91 51,-6.94 4.56,-0.54 4.27,-2.44 3,-5.51 -3.78,-9.32 -5.07,-19.3 -5.35,-29.08 -0.93,-32.17 1.78,-63.77 19.6,-92 z"
             class="cls-5" />
          <path
             style="fill:#f2f2f2"
             inkscape:connector-curvature="0"
             id="path55"
             d="m 231.13,1228.25 c -12.06,0 -24.13,-0.45 -36.17,0 -19.8,0.66 -37.68,-4.8 -54.16,-15.49 -1.73,-1.12 -3.48,-3.25 -5.6,-2.16 -2.12,1.09 -1.05,3.84 -1.15,5.84 -0.71,15.78 1.22,31.6 -1.28,47.37 -1.68,10.63 -7,18.69 -16.39,23.38 -8.41,4.19 -16.84,8.25 -24.61,13.56 L 90,1300.66 q 0,-8.53 0,-17.06 h 1.5 c 3.38,-1.69 6.59,-3.93 10.16,-5 14.61,-4.34 18.75,-15 18.2,-28.81 -0.7,-17.66 -0.4,-35.33 -1,-53 -0.86,-26.83 -1.29,-53.69 -3.43,-80.45 -1.54,-19.14 -3.36,-24.85 -24,-28.87 H 90 v -14.21 h 1.58 c 3,0.52 6.08,0.81 9,1.6 16,4.3 26.22,14.81 27.7,28.75 2.67,25.1 4.76,50.28 4.13,75.53 -0.22,8.87 2.43,13.9 10.1,18.66 18,11.16 36.73,17.88 58.22,16.38 10.37,-0.72 20.83,-0.09 31.24,-0.07 z"
             class="cls-5" />
          <path
             style="fill:#d0d1d3"
             inkscape:connector-curvature="0"
             id="path57"
             d="m 503.65,1377.36 c -2.28,-7.64 -7.52,-13.53 -12.11,-19.7 -3.24,-4.35 -3.78,-6.5 2.28,-8.16 7.26,-2 14.36,-4.61 21.43,-7.23 2.57,-1 5.48,-1.76 6.9,-4.59 a 36.18,36.18 0 0 0 22.74,2.89 c 2.75,8.91 8.25,16.25 13.28,23.92 2.94,4.48 8,7.37 9.45,12.88 z"
             class="cls-7" />
          <path
             style="fill:#f2f2f2"
             inkscape:connector-curvature="0"
             id="path59"
             d="m 567.61,1377.36 c -1.46,-5.51 -6.52,-8.4 -9.45,-12.88 -5,-7.67 -10.52,-15 -13.28,-23.92 A 59.07,59.07 0 0 0 557.6,1334 c 3.51,11.31 10.69,20.36 18.08,29.28 3.91,4.71 7.89,9.36 11.84,14 z"
             class="cls-5" />
          <path
             style="fill:#d0d1d3"
             inkscape:connector-curvature="0"
             id="path61"
             d="m 432.58,1377.36 c -0.1,-3 2.23,-3.91 4.33,-5 q 5.06,-2.59 10.14,-5.12 c 13.12,-6.57 17.55,-4.58 22.48,10.11 z"
             class="cls-7" />
          <path
             style="fill:#fefefe"
             inkscape:connector-curvature="0"
             id="path63"
             d="M 91.47,815.89 H 90 c 0,-43.93 0.06,-87.86 -0.1,-131.79 0,-3.79 0.57,-4.83 4.64,-4.79 29.76,0.23 59.52,0.12 89.27,0.12 v 1.54 c -28.34,0 -56.68,0.09 -85,-0.25 -6,-0.07 -7.48,1.85 -7.45,7.63 0.19,42.52 0.1,85.03 0.11,127.54 z"
             class="cls-12" />
          <path
             style="fill:#fefefe"
             inkscape:connector-curvature="0"
             id="path65"
             d="m 770.88,679.44 v 1.5 h -102.32 -17.1 -88.09 v -1.51 z"
             class="cls-12" />
          <path
             style="fill:#fefefe"
             inkscape:connector-curvature="0"
             id="path67"
             d="m 90,1087.39 h 1.5 q 0,98.06 0,196.12 H 90 q 0,-98.04 0,-196.12 z"
             class="cls-12" />
          <path
             style="fill:#fefefe"
             inkscape:connector-curvature="0"
             id="path69"
             d="m 303.16,680.84 -1.35,-1.4 H 434 l -1.47,1.45 z"
             class="cls-12" />
          <path
             style="fill:#fefefe"
             inkscape:connector-curvature="0"
             id="path71"
             d="m 90,830.11 1.68,0.08 q -0.11,60.33 -0.21,120.66 L 90,952.36 q 0,-61.12 0,-122.25 z"
             class="cls-12" />
          <path
             style="fill:#fefefe"
             inkscape:connector-curvature="0"
             id="path73"
             d="M 1086.44,680.86 H 967 l -1.43,-1.43 q 57.57,0 115.14,0.09 c 1.88,0.02 4.45,-1.59 5.73,1.34 z"
             class="cls-12" />
          <path
             style="fill:#fefefe"
             inkscape:connector-curvature="0"
             id="path75"
             d="m 91.59,1073.15 h -1.58 q 0,-46.2 0,-92.39 l 1.56,0.05 q 0.01,46.19 0.02,92.34 z"
             class="cls-12" />
          <path
             style="fill:#fefefe"
             inkscape:connector-curvature="0"
             id="path77"
             d="m 446.82,681 v -1.56 h 88.13 v 1.53 z"
             class="cls-12" />
          <path
             style="fill:#fefefe"
             inkscape:connector-curvature="0"
             id="path79"
             d="m 90,1300.61 1.77,0.09 q -0.17,38.33 -0.35,76.67 c -3,-0.56 -1.33,-2.91 -1.33,-4.26 C 90,1348.94 90,1324.77 90,1300.61 Z"
             class="cls-12" />
          <path
             style="fill:#fefefe"
             inkscape:connector-curvature="0"
             id="path81"
             d="m 216.57,681.09 v -1.64 h 71.07 v 1.51 z"
             class="cls-12" />
          <path
             style="fill:#fefefe"
             inkscape:connector-curvature="0"
             id="path83"
             d="m 937.19,680.87 c -16.51,0 -33,0 -49.54,-0.05 -2.47,0 -5.25,1 -7.32,-1.37 h 56.86 z"
             class="cls-12" />
          <path
             style="fill:#fefefe"
             inkscape:connector-curvature="0"
             id="path85"
             d="m 877.49,679.44 c 0.07,2 -1.12,2.67 -2.84,2.86 q 0,-1.43 0,-2.86 z"
             class="cls-12" />
          <path
             style="fill:#d0d1d3"
             inkscape:connector-curvature="0"
             id="path87"
             d="m 91.59,1073.15 q 0,-46.15 0,-92.31 c 23.5,5.7 45.22,16.18 67.42,25.29 20.24,8.31 31.58,25.59 41.65,43.81 7.55,13.66 15.27,27.25 25.58,39 12.51,14.28 28.33,22.57 47.45,23.9 3.3,0.23 5.94,0.58 7.39,4.11 6.48,15.79 15.42,30.33 23.5,45.3 3.11,5.75 3.73,9.7 -2.2,14.49 -7.94,6.41 -12.15,16.08 -17.85,24.44 -5.85,-4.45 -11.84,-8.35 -19.6,-8.77 -16.37,-0.9 -26.6,7.25 -32.9,21.56 -10.42,0 -20.88,-0.65 -31.24,0.07 -21.49,1.5 -40.22,-5.22 -58.22,-16.38 -7.67,-4.75 -10.32,-9.78 -10.1,-18.66 0.63,-25.25 -1.47,-50.43 -4.13,-75.53 -1.48,-13.94 -11.69,-24.45 -27.7,-28.75 -2.97,-0.72 -6.04,-1.05 -9.05,-1.57 z"
             class="cls-7" />
          <path
             style="fill:#a1c8eb"
             inkscape:connector-curvature="0"
             id="path89"
             d="m 302,1069 c 3.56,-16.35 8.68,-32.43 8.32,-49.44 -0.06,-2.91 1.56,-4.15 4.32,-4.58 3.72,-0.59 7.64,-0.87 11.06,-2.29 18.58,-7.75 37.74,-6.86 57.24,-5.33 12.94,1 25.76,-2.34 38.56,-4.49 12.61,-2.12 25.59,-3.9 36.6,5 8.44,6.85 13,16.71 18,26.08 a 6.24,6.24 0 0 1 0.15,4.12 c -6.29,23.82 -0.43,46.34 7.3,68.65 1.86,5.36 3.66,10.75 5.73,16 2.07,5.25 0.8,5.42 -4.52,4.88 -18.55,-1.88 -36.61,-0.06 -51.42,12.92 -6,5.27 -11.15,11.55 -16.55,17.5 -5,5.48 -11.15,7.35 -18.4,7.53 -19.8,0.48 -32.36,-10.44 -42.69,-25.72 -5.67,-8.38 -10,-17.78 -17.55,-24.8 3.21,-6.22 5,-12.74 4.11,-19.82 C 339.92,1076.18 324,1065.78 302,1069 Z"
             class="cls-9" />
          <path
             style="fill:#d0d1d3"
             inkscape:connector-curvature="0"
             id="path91"
             d="m 216.57,681.09 71,-0.14 c 11,41.06 30.08,77.83 58,110 3.72,4.29 7.38,8.61 11.46,12.54 2.36,2.27 3,4 -0.12,6.1 -11.62,7.85 -20.73,18.56 -31.31,27.61 -9.86,8.44 -19.8,16.79 -29.9,24.93 -1.89,1.52 -3.85,2.73 -4.22,5.34 -6,-13.31 -16.18,-20.32 -30.89,-20.49 -7.32,-8.1 -17.72,-11.48 -26.56,-17.27 -7.1,-4.65 -14.54,-8.74 -21.32,-13.95 -14.16,-10.88 -19.32,-26.08 -20.09,-42.83 -1,-21.52 0.3,-42.95 8.38,-63.37 3,-7.73 7.71,-14.56 12.14,-21.56 1.39,-2.21 3.04,-4.23 3.43,-6.91 z"
             class="cls-7" />
          <path
             style="fill:#d0d1d3"
             inkscape:connector-curvature="0"
             id="path93"
             d="m 429.8,933.25 c 1.13,13.55 -5.4,22.95 -16.06,30.29 -4.65,3.2 -9.73,6.26 -13.26,10.51 -11.08,13.37 -25.81,17.82 -42.13,17.9 -15.06,0.08 -29.47,3.17 -43.79,7.18 -3.38,0.95 -5.21,1.62 -5.84,-3.41 -2.1,-16.79 -5,-33.48 -7.54,-50.22 -2.29,-15.12 -1.92,-30.52 -4.94,-45.57 -0.36,-1.79 0.7,-3.1 2.16,-4.15 27.42,-19.75 51.74,-43.19 77.35,-65.09 3.94,-3.37 6.75,-3.46 11.62,-0.27 14.05,9.23 22.27,21.52 26.22,37.86 4.41,18.09 11.31,35.5 15.41,53.72 0.81,3.8 0.46,7.52 0.8,11.25 z"
             class="cls-7" />
          <path
             style="fill:#c9e0a6"
             inkscape:connector-curvature="0"
             id="path95"
             d="m 91.49,950.85 q 0.1,-60.33 0.21,-120.66 c 24.87,0 49.21,-4.91 73.73,-8.05 8.17,-1 14.19,-0.67 20.25,6.87 10.16,12.65 24.89,20.07 39,27.83 3.46,1.91 6.52,4.85 10.79,5.11 -7.43,16.31 -5.61,27 6.88,40.33 -8.39,4 -15.31,10.15 -22.9,15.3 -24.91,16.92 -50.06,33.35 -80.64,38.14 -16.15,2.52 -32.05,1.47 -47.32,-4.87 z"
             class="cls-11" />
          <path
             style="fill:#c9e0a6"
             inkscape:connector-curvature="0"
             id="path97"
             d="m 303.16,680.84 129.37,0.06 c 0,16.57 0.22,33.14 0.09,49.7 a 342.54,342.54 0 0 0 3.21,48 c 0.63,4.75 -0.67,5.64 -4.83,6.08 -19,2 -38.05,4.33 -55.52,12.95 -3.71,1.83 -5.17,-0.65 -7.12,-2.55 -14.48,-14.11 -26.43,-30.25 -37.09,-47.32 a 249.58,249.58 0 0 1 -27.39,-61.34 33.53,33.53 0 0 1 -0.72,-5.58 z"
             class="cls-11" />
          <path
             style="fill:#d0d1d3"
             inkscape:connector-curvature="0"
             id="path99"
             d="m 446.82,681 h 88.08 c 0,17.52 2.75,34.71 6.3,51.78 0.6,2.91 0.81,4.94 -2.15,6.5 -26.52,14 -52.14,29.8 -80.76,39.47 -8,2.7 -7.64,2.56 -8.77,-5.75 -4.17,-30.6 -2.27,-61.33 -2.7,-92 z"
             class="cls-7" />
          <path
             style="fill:#d0d1d3"
             inkscape:connector-curvature="0"
             id="path101"
             d="m 506.11,1313.47 c -15,-8.47 -27.08,-19.48 -33.41,-36.14 -3.28,-8.61 -1.28,-17 0.18,-25.14 2.81,-15.81 -0.76,-28.46 -14.63,-37.53 -10.18,-6.66 -17.11,-16 -22.47,-26.84 -2.3,-4.65 -1.78,-7.8 2,-11.18 3.78,-3.38 7.08,-7.58 10.49,-11.5 9.81,-11.3 23.19,-10.71 36.17,-8.86 14,2 13.88,2.56 15,16.83 2,25.41 7.18,49.8 19.75,72.47 5.77,10.41 11.13,21.45 11.46,33.94 -16.23,5.48 -24.96,16.42 -24.54,33.95 z"
             class="cls-7" />
          <path
             style="fill:#d0d1d3"
             inkscape:connector-curvature="0"
             id="path103"
             d="m 487.76,1050.11 c 17.73,14.94 37,18.88 57.54,18.83 12.3,0 24.6,0.08 36.9,-0.08 4.25,-0.05 6,1.26 7,5.81 4.08,19.81 8.64,39.53 10.86,59.67 0.23,2.11 0.09,4.26 0.3,6.37 0.55,5.48 -1.42,7 -7,5.81 -27.11,-6 -54.52,-10.43 -81.9,-14.94 -2.82,-0.46 -5.11,-0.86 -5.94,-3.88 -5.07,-18.39 -13.53,-35.72 -16.57,-54.78 -1.17,-7.11 -0.42,-14.04 -1.19,-22.81 z"
             class="cls-7" />
          <path
             style="fill:#f3e1c9"
             inkscape:connector-curvature="0"
             id="path105"
             d="m 488.36,1321.47 c -5.19,1.77 -10.9,3.73 -16.62,5.67 -3.21,1.09 -4.88,-1.28 -6.46,-3.24 -16.79,-20.85 -36.39,-38.85 -56.43,-56.48 a 224.55,224.55 0 0 1 -51.2,-65.43 c -2,-3.77 -4.15,-7.41 -6.18,-11.15 -0.66,-1.22 -1.66,-2.57 -0.82,-4 1,-1.67 2.5,-0.47 3.79,-0.24 11.1,2 22.28,3.69 33.28,6.17 9.81,2.21 19.24,1.23 28.54,-1.76 3.71,-1.19 5.6,-0.49 7.19,3 a 76.31,76.31 0 0 0 28.61,33.39 c 6.87,4.42 8.52,11.73 7.33,19.44 -0.58,3.73 -0.66,7.56 -1.44,11.18 -4.17,19.42 4.14,34.41 16.42,48.11 4.53,5.1 9.16,10.07 13.99,15.34 z"
             class="cls-10" />
          <path
             style="fill:#d0d1d3"
             inkscape:connector-curvature="0"
             id="path107"
             d="m 146.73,983.7 c 5,-1.38 8.92,-2.53 12.91,-3.59 26.66,-7.14 49.69,-21.45 72.16,-36.76 11.69,-8 23.13,-16.3 34.62,-24.55 2.29,-1.65 4,-2.17 4,1.41 0.28,27.2 7.77,53.48 10.24,80.41 0.37,4.05 0.38,5.44 -4.44,6 -34.15,3.79 -67,-2.8 -99.68,-11.49 -9.89,-2.67 -20.07,-4.89 -29.81,-11.43 z"
             class="cls-7" />
          <path
             style="fill:#d0d1d3"
             inkscape:connector-curvature="0"
             id="path109"
             d="m 545.77,1278.41 c -3,-16 -8.46,-29.25 -15.29,-41.86 -11.27,-20.83 -15.68,-43.28 -16.84,-66.56 -0.45,-9.1 -0.18,-9.11 8.73,-7.51 l 65.28,11.68 c 9.05,1.62 9.15,1.68 6.17,10.08 -8.4,23.71 -21.48,45.13 -33.24,67.19 -4.53,8.52 -9.28,16.93 -14.81,26.98 z"
             class="cls-7" />
          <path
             style="fill:#d0d1d3"
             inkscape:connector-curvature="0"
             id="path111"
             d="m 563.37,681 h 88.09 c 5.21,13.42 13.83,24.81 21.78,36.6 1.69,2.51 3.46,5 5.19,7.46 -18.09,7.39 -36,6.42 -54.39,0.33 -16.55,-5.48 -33.68,-6.49 -50.49,-0.2 -3.95,1.48 -5.24,-0.39 -5.77,-3.59 -2.25,-13.52 -4.68,-26.94 -4.41,-40.6 z"
             class="cls-7" />
          <path
             style="fill:#f3e1c9"
             inkscape:connector-curvature="0"
             id="path113"
             d="m 282,1027.45 c -1.73,8.23 -3.74,18.15 -5.92,28 -2.8,12.67 -5.73,25.34 -2.54,38.37 0.89,3.63 1,4.84 -3.76,4.14 -17.21,-2.5 -29,-12.62 -38.94,-25.86 -9,-11.94 -15.27,-25.52 -23.25,-38.05 -3.29,-5.17 -6.94,-10.1 -10.45,-15.13 -0.66,-0.94 -1.84,-1.8 -1.1,-3.07 0.74,-1.27 2.06,-1 3.19,-0.76 15.37,3.8 31.12,5 46.8,6.41 8.67,0.8 17.39,1 26.14,-0.51 3.61,-0.59 9.6,-3.23 9.83,6.46 z"
             class="cls-10" />
          <path
             style="fill:#d0d1d3"
             inkscape:connector-curvature="0"
             id="path115"
             d="m 417.81,988.38 c 17.86,-15.22 28.79,-36.26 45.69,-52.08 1,-1 2,-2 3.12,-2.89 6.9,-5.43 7,-5.46 11.6,2.17 4.6,7.63 11.55,13 18.3,18.51 a 134.05,134.05 0 0 1 10,8.94 c 10.2,10.12 10.89,15.69 2.3,26.94 -7,9.16 -14.67,17.82 -22,26.72 -2.63,3.19 -3.73,1 -5,-1.23 -5.45,-9.27 -12.16,-17.47 -21.58,-22.93 -13.32,-7.71 -27.62,-5.72 -42.43,-4.15 z"
             class="cls-7" />
          <path
             style="fill:#d0d1d3"
             inkscape:connector-curvature="0"
             id="path117"
             d="m 396.42,819.88 c 12.06,-4.61 23.11,-5.55 34,-6.67 13.9,-1.43 13.9,-0.95 19.58,12 9.66,22 16.29,44.69 16.8,68.92 0.08,4 0.26,8.16 1.52,11.86 2.16,6.37 0,9.83 -5.58,12.9 -6.85,3.79 -11.59,10.28 -18,16.06 -2,-27.29 -12.63,-51.59 -19.6,-76.84 -4,-14.66 -11.89,-26.64 -24.63,-35.21 -0.96,-0.68 -1.9,-1.41 -4.09,-3.02 z"
             class="cls-7" />
          <path
             style="fill:#139441"
             inkscape:connector-curvature="0"
             id="path119"
             d="m 504.88,789.1 c 10.79,8.6 15.55,19.7 12.23,33.22 -2.95,12 -11,19.55 -23.1,22.62 -7.46,1.9 -14.53,0.08 -21.5,-2.43 -12.81,-8.73 -18.93,-20.46 -15.06,-36 4.48,-17.91 26.27,-30.1 47.43,-17.41 z m -4.64,36.56 c -6.78,-9.39 -5.07,-21.52 -13.17,-29.76 -7.59,8.88 -6.73,20.51 -12.56,30 5.28,0.82 11.86,-1.57 10.56,6.93 -0.17,1.08 0.95,1.44 2,1.49 1.05,0.05 2.35,-0.31 2.19,-1.21 -1.77,-9.28 5.65,-6.11 10.98,-7.45 z"
             class="cls-13" />
          <path
             style="fill:#06aff0"
             inkscape:connector-curvature="0"
             id="path121"
             d="m 232,1214 c 6.3,-14.3 16.54,-22.46 32.9,-21.56 7.76,0.43 13.75,4.32 19.6,8.77 13.36,19 10.29,39.41 -7.51,49.19 -2.87,1.57 -6.11,2.46 -9.18,3.66 -20.64,0.56 -30.77,-6.57 -36.7,-25.8 z m 31.52,26.13 c 15,-3.34 15.15,-3.34 14.88,-17.05 -0.06,-2.94 2.08,-8.23 -1.63,-8.51 -4.23,-0.32 -9.13,2.07 -12.6,5.32 -1,1 -0.6,3.56 -0.63,5.41 -0.06,4.9 -0.01,9.8 -0.01,14.82 z m -3,-0.18 c 0,-5.78 0.08,-11.42 0,-17.06 -0.06,-3 -10.95,-9.78 -13.5,-8.45 -0.61,0.32 -0.93,1.44 -1.11,2.26 -3,14 -0.25,19 13,23.39 a 7.85,7.85 0 0 0 1.62,-0.16 z"
             class="cls-14" />
          <path
             style="fill:#f2f2f2"
             inkscape:connector-curvature="0"
             id="path123"
             d="m 242.32,902.28 c -12.49,-13.31 -14.31,-24 -6.88,-40.33 6.08,-8.84 14.4,-13.92 25.14,-14.95 14.72,0.17 24.9,7.18 30.89,20.49 6.85,22.71 -9.41,40.45 -27.29,41.51 -8.18,0.48 -15.29,-2.17 -21.86,-6.72 z m 19.91,-2.9 c 5.08,-8.45 9.43,-16 12.42,-24.19 2.28,-6.26 0.81,-11.74 -4.5,-15.71 -5,-3.77 -10.63,-3.82 -15.79,-0.25 -5.49,3.81 -7.1,9.36 -4.92,15.58 2.95,8.42 7.22,16.19 12.79,24.57 z"
             class="cls-5" />
          <path
             style="fill:#c02b32"
             inkscape:connector-curvature="0"
             id="path125"
             d="m 506.11,1313.47 c -0.42,-17.53 8.31,-28.44 24.53,-33.95 17.21,-1.62 29.46,5.24 36.35,21.26 3,12.81 -0.11,23.92 -9.39,33.27 a 59.11,59.11 0 0 1 -12.72,6.52 36.18,36.18 0 0 1 -22.74,-2.89 C 513.15,1332 507.73,1324 506.11,1313.47 Z m 31,18 a 119.74,119.74 0 0 0 12.54,-24.22 c 2.33,-6.34 0.72,-11.75 -4.64,-15.67 -5.1,-3.72 -10.73,-3.77 -15.81,0 -5.31,3.91 -7,9.26 -4.66,15.67 a 119.63,119.63 0 0 0 12.6,24.22 z"
             class="cls-15" />
          <path
             style="fill:#c02b32"
             inkscape:connector-curvature="0"
             id="path127"
             d="m 302,1069 c 22,-3.22 37.91,7.18 40.23,26.28 0.86,7.07 -0.9,13.6 -4.11,19.82 l -9.93,10.42 -8,3.48 c -26.12,5.19 -41.16,-15 -39.59,-32.36 1.27,-13.73 9.22,-22.34 21.4,-27.64 z m 9.35,51 a 106.81,106.81 0 0 0 12.49,-23.66 c 2.39,-6.41 1.22,-12.22 -4.56,-16.35 -5.17,-3.69 -10.72,-3.62 -15.8,0.17 -5.64,4.21 -6.85,9.9 -4.35,16.39 3.08,8 7.23,15.39 12.23,23.45 z"
             class="cls-15" />
          <path
             style="fill:#f2f2f2"
             inkscape:connector-curvature="0"
             id="path129"
             d="m 579.64,951.9 c -23.95,-9.85 -36.58,-28.19 -40.07,-53.39 l 4.81,-27 c 24.89,-39.64 57.86,-46.87 96.09,-21.07 26.25,31.17 26.1,66 -0.8,89.72 -17.55,15.47 -37.94,18.44 -60.03,11.74 z M 600.06,936 c 10.75,-16.33 19.74,-31.89 25,-49.3 3.45,-11.34 -0.36,-20.85 -9.7,-27.62 -9.89,-7.15 -20.6,-7.17 -30.52,-0.07 -9.38,6.72 -13.22,16.24 -9.81,27.58 5.25,17.47 14.33,33 25.03,49.41 z"
             class="cls-5" />
          <path
             style="fill:#d0d1d3"
             inkscape:connector-curvature="0"
             id="path131"
             d="m 650,1124.39 -4.39,32.61 c -16.56,-2.74 -16.37,-2.74 -17,-19.54 -0.36,-10.09 -3.06,-20 -2.76,-30.17 v 0 c 8.67,4.85 15.02,12.91 24.15,17.1 z"
             class="cls-7" />
          <path
             style="fill:#d0d1d3"
             inkscape:connector-curvature="0"
             id="path133"
             d="m 320.22,1129 8,-3.48 c 8.9,8.25 13.26,19.81 21,28.91 0.59,0.69 0.42,1.63 -0.6,2.33 -4.05,2.77 -14.77,0.81 -17.09,-3.61 -4.15,-7.87 -9.35,-15.27 -11.31,-24.15 z"
             class="cls-7" />
          <path
             style="fill:#f3e1c9"
             inkscape:connector-curvature="0"
             id="path135"
             d="m 625.88,1107.3 -0.56,-0.31 0.57,0.29 z"
             class="cls-10" />
          <path
             style="fill:#d0d1d3"
             inkscape:connector-curvature="0"
             id="path137"
             d="m 844.76,968.28 c 0.76,7.47 4.61,13.88 7.73,20.39 12.45,26 23.49,52.61 38,77.54 2.63,4.52 2.58,8 -0.62,12.09 -8.37,10.79 -15.06,22.87 -24.45,32.85 -15,16 -37.86,27.56 -67.62,18.17 -6.05,-1.91 -12.24,-3.4 -18.37,-5.08 0.15,-3.26 2.71,-4.95 4.78,-6.72 9.32,-8 13.26,-17.47 11,-30 -3.91,-21.47 -6.31,-43.21 -12.75,-64.18 -4.85,-15.78 -14.19,-29.21 -22.78,-43 -10,-16 -19.83,-32 -27.06,-49.53 22.15,-1.85 42.19,6 62.26,13.64 a 30.57,30.57 0 0 0 14.56,2.1 h -0.14 l 1.23,1.43 c 6.83,14.44 17.87,21.85 34.23,20.3 z"
             class="cls-7" />
          <path
             style="fill:#d0d1d3"
             inkscape:connector-curvature="0"
             id="path139"
             d="m 665.83,1131.33 q 20.51,-0.07 41,-1 a 228.56,228.56 0 0 1 82.85,11.29 c 20.09,6.68 40.11,7.7 59.85,-1.59 17,-8 29.21,-21.15 39.65,-36.27 3.09,-4.46 6,-9 9.09,-13.51 2.46,-3.59 4.47,-4.8 7.76,-0.17 4.87,6.86 9.33,14.22 16.39,19.26 -8.81,10.58 -10,22.28 -5.15,34.87 -14.35,8.12 -21.29,20.74 -22.77,36.89 -1.09,11.94 -2.84,23.83 -3.87,35.78 -0.46,5.38 -2.69,6.31 -7.39,4.86 -14.21,-4.38 -28.53,-8.42 -42.72,-12.87 C 782.64,1190.75 724,1175.38 665,1161.46 a 24,24 0 0 0 -3.53,-0.31 94.34,94.34 0 0 1 4.36,-29.82 z"
             class="cls-7" />
          <path
             style="fill:#d0d1d3"
             inkscape:connector-curvature="0"
             id="path141"
             d="m 707,742.17 c 11.15,-2.76 20.39,-9.76 31,-13.84 12.58,-4.85 25.32,-9.11 38.15,-13.2 4.57,-1.46 6.19,-0.27 7.4,4 5.18,18.16 9.11,36.62 12.73,55.12 5.83,29.8 10.87,59.76 16.56,89.59 0.8,4.21 -0.15,6.46 -3.37,9 a 246.55,246.55 0 0 1 -82.61,42.64 c -3.42,-3.75 -4.93,-8.58 -7.14,-13 a 121.11,121.11 0 0 0 -13.12,-21 c -6.43,-8.14 -6.22,-9.71 -0.6,-18.57 7.08,-11.17 15.43,-21.47 22,-33 A 34,34 0 0 0 731.56,804 c -3.47,-14.29 -8.91,-27.88 -15,-41.24 -3.1,-6.91 -6.37,-13.76 -9.56,-20.59 z"
             class="cls-7" />
          <path
             style="fill:#d0d1d3"
             inkscape:connector-curvature="0"
             id="path143"
             d="m 765,1120.07 c -17.67,-2.47 -35.48,-4.62 -53.26,-3.85 -15.28,0.67 -30.53,1 -45.8,0.75 2.31,-6.58 1.69,-13.6 2.13,-20.29 0.77,-11.74 2.71,-23.47 1.88,-35.3 -0.88,-12.59 2.37,-23.63 11.21,-33.08 4.65,-5 8.23,-10.9 12.49,-16.24 7.54,-9.43 16.82,-16.49 28.54,-20 a 55.52,55.52 0 0 0 16.07,-7.32 c 3.89,-2.72 5.35,-1.44 7.63,1.77 17.37,24.38 27.11,51.55 30.62,81.16 0.86,7.23 2.28,14.4 3.76,21.53 1.25,6.06 0.18,11.13 -4.57,15.41 -4.75,4.28 -9.29,8.8 -10.7,15.46 z m -44.78,-93.68 A 30.93,30.93 0 1 0 751,1057 30.77,30.77 0 0 0 720.25,1026.4 Z"
             class="cls-7" />
          <path
             style="fill:#f3e1c9"
             inkscape:connector-curvature="0"
             id="path145"
             d="m 668.56,681 h 102.31 c 0.48,2.81 2.56,5.7 -2.49,7.09 a 341.55,341.55 0 0 0 -71.7,28.46 25.53,25.53 0 0 1 -4,1.38 C 683.74,706.16 675.27,694.13 668.56,681 Z"
             class="cls-10" />
          <path
             style="fill:#f3e1c9"
             inkscape:connector-curvature="0"
             id="path147"
             d="m 693,854.69 c -0.73,-13.59 -1.33,-25.12 -5.4,-36.11 -1.73,-4.67 -0.11,-7.69 4.42,-9.53 6.33,-2.57 12.62,-5.24 18.9,-8 2.52,-1.09 3.83,-0.62 4.57,2.25 1.63,6.31 2.78,12.62 -1,18.5 -6.61,10.53 -13.55,20.87 -21.49,32.89 z"
             class="cls-10" />
          <path
             style="fill:#06aff0"
             inkscape:connector-curvature="0"
             id="path149"
             d="m 844.76,968.28 c -16.35,1.55 -27.4,-5.87 -34.26,-20.32 l -1.23,-1.43 h 0.14 l -0.4,-14 c 2.5,-9.56 7.55,-17.3 16.08,-22.56 8.72,-4.13 17.69,-4.22 26.82,-1.66 17.85,10.51 22.52,22.68 16.45,42.9 -5.56,8.94 -12.95,15.27 -23.6,17.07 z m -6.18,-23.8 c 0,-1.42 0,-2.83 0,-4.25 0,-6.11 -6.11,-12.61 -12.59,-11.46 -5,0.88 -1.48,6.53 -2.34,9.93 -0.39,1.55 0.12,3.31 -0.1,4.94 -0.57,4.17 1.12,6.21 5.13,7.73 9.99,3.77 9.9,4.02 9.89,-6.89 z m 17.73,-16.71 c -4.1,1.6 -7.37,2.78 -10.56,4.14 -3.19,1.36 -6,19.51 -3.47,21.79 0.16,0.14 0.43,0.14 0.64,0.23 2.64,1.21 13.26,-4.85 13.34,-7.81 0.16,-5.81 0.05,-11.64 0.05,-18.34 z"
             class="cls-14" />
          <path
             style="fill:#d0d1d3"
             inkscape:connector-curvature="0"
             id="path151"
             d="m 969.89,1149.92 c 15.39,12.06 25.94,27.16 30.05,46.57 5.08,24 13.46,46.68 26.12,67.74 0.18,0.3 -0.05,0.86 -0.18,2.27 -10.79,-7.78 -22.24,-13.49 -33.56,-19.46 -23.22,-12.24 -48,-17.91 -74,-19 -3,-0.12 -6,-1.21 -9.07,-1.25 -3.82,0 -5.16,-1.82 -4.68,-5.29 2.2,-16.07 2.34,-32.43 5.92,-48.29 1.93,-8.53 8.12,-14.18 16,-17.84 17.78,9.33 28.46,7.98 43.4,-5.45 z"
             class="cls-7" />
          <path
             style="fill:#c02b32"
             inkscape:connector-curvature="0"
             id="path153"
             d="m 969.89,1149.92 c -14.94,13.43 -25.62,14.78 -43.44,5.48 l -9.18,-11.16 c -4.86,-12.6 -3.66,-24.3 5.15,-34.87 7.5,-7.51 16.51,-10.83 27.11,-9.77 a 32.39,32.39 0 0 1 22.08,14.07 c 7.11,12.44 5.88,24.5 -1.72,36.25 z m -24.5,1.8 c 5.46,-8.9 10.06,-16.62 12.79,-25.21 1.9,-6 0.21,-11.32 -5,-15 -5.21,-3.68 -10.74,-3.61 -15.8,0.21 -5.06,3.82 -6.79,8.89 -4.68,15.06 2.93,8.65 7.45,16.48 12.69,24.94 z"
             class="cls-15" />
          <path
             style="fill:#c02b32"
             inkscape:connector-curvature="0"
             id="path155"
             d="m 890.53,830.59 c -16.39,-18.93 -8.06,-40.06 4.7,-48.31 8.1,-5.24 16.77,-5.86 25.89,-4.08 15.11,6.35 22.56,16.82 22.11,31.07 -0.74,23.2 -26.13,37.3 -46.26,25.67 -2.24,-1.29 -4.3,-2.94 -6.44,-4.35 z m 21.91,-1.23 c 5.3,-8.6 10.16,-16.66 12.94,-25.74 1.79,-5.85 -0.3,-10.84 -5.15,-14.31 C 915.38,785.84 910,785.63 905,789 c -5.17,3.51 -7.49,8.59 -5.55,14.76 2.81,9.02 7.5,17.13 12.99,25.6 z"
             class="cls-15" />
          <path
             style="fill:#d0d1d3"
             inkscape:connector-curvature="0"
             id="path157"
             d="m 825.09,910 c -8.53,5.26 -13.58,13 -16.08,22.56 -7.49,-0.12 -14.26,-2.85 -21.09,-5.57 -8.06,-3.2 -16.08,-6.6 -25.16,-7.94 1.08,-3.15 3.65,-3.53 5.58,-4.49 15.08,-7.44 29.84,-15.46 43.07,-25.91 5,-4 6,-1.88 7.43,3.06 0.87,3.09 1.13,6.41 1.83,9.58 a 16.29,16.29 0 0 0 4.42,8.71 z"
             class="cls-7" />
          <path
             style="fill:#d0d1d3"
             inkscape:connector-curvature="0"
             id="path159"
             d="m 91.47,815.89 c 0,-42.51 0.08,-85 -0.15,-127.54 0,-5.78 1.44,-7.7 7.45,-7.63 28.34,0.34 56.68,0.21 85,0.25 -17.82,28.27 -20.53,59.87 -19.6,92 0.28,9.78 1.57,19.76 5.35,29.08 1.24,3.07 1.53,5 -3,5.51 -17,2 -34.06,4.41 -51,6.94 a 138.22,138.22 0 0 1 -24.05,1.39 z"
             class="cls-7" />
          <path
             style="fill:#f3e1c9"
             inkscape:connector-curvature="0"
             id="path161"
             d="m 91.51,1283.53 q 0,-98.06 0,-196.12 c 20.59,4 22.42,9.73 24,28.87 2.15,26.76 2.57,53.62 3.43,80.45 0.57,17.68 0.27,35.35 1,53 0.55,13.82 -3.59,24.47 -18.2,28.81 -3.63,1.06 -6.85,3.29 -10.23,4.99 z"
             class="cls-10" />
          <path
             style="fill:#fbf4f3"
             inkscape:connector-curvature="0"
             id="path163"
             d="m 500.24,825.66 c -5.33,1.35 -12.75,-1.82 -11,7.47 0.17,0.9 -1.18,1.26 -2.19,1.21 -1.01,-0.05 -2.12,-0.42 -2,-1.49 1.31,-8.5 -5.27,-6.11 -10.56,-6.93 5.83,-9.51 5,-21.13 12.56,-30 8.12,8.22 6.41,20.35 13.19,29.74 z"
             class="cls-16" />
          <path
             style="fill:#eaf8fd"
             inkscape:connector-curvature="0"
             id="path165"
             d="m 263.53,1240.12 c 0,-5 0,-9.92 0,-14.82 0,-1.85 -0.39,-4.46 0.63,-5.41 3.47,-3.25 8.37,-5.64 12.6,-5.32 3.71,0.28 1.57,5.56 1.63,8.51 0.28,13.69 0.14,13.7 -14.86,17.04 z"
             class="cls-17" />
          <path
             style="fill:#fefefe"
             inkscape:connector-curvature="0"
             id="path167"
             d="m 260.53,1239.93 a 7.85,7.85 0 0 1 -1.62,0.14 c -13.28,-4.37 -16.07,-9.37 -13,-23.39 0.18,-0.81 0.5,-1.94 1.11,-2.26 2.56,-1.34 13.44,5.45 13.5,8.45 0.09,5.64 0.01,11.28 0.01,17.06 z"
             class="cls-12" />
          <path
             style="fill:#fbf4f3"
             inkscape:connector-curvature="0"
             id="path169"
             d="m 262.23,899.38 c -5.57,-8.37 -9.84,-16.15 -12.78,-24.56 -2.17,-6.22 -0.57,-11.77 4.92,-15.58 5.16,-3.58 10.75,-3.52 15.79,0.25 5.31,4 6.78,9.45 4.5,15.71 -3,8.2 -7.35,15.73 -12.43,24.18 z M 262,863.09 c -4.21,0.83 -7.16,3 -6.89,7.5 0.27,4.5 3,6.88 7.47,6.61 4.09,-0.25 6.43,-2.81 6.46,-6.89 0.04,-4.56 -2.95,-6.52 -7.04,-7.22 z"
             class="cls-16" />
          <path
             style="fill:#fbf4f3"
             inkscape:connector-curvature="0"
             id="path171"
             d="m 537.14,1331.47 a 119.63,119.63 0 0 1 -12.57,-24.24 c -2.33,-6.41 -0.65,-11.76 4.66,-15.67 5.09,-3.75 10.71,-3.7 15.81,0 5.36,3.92 7,9.33 4.64,15.67 a 119.74,119.74 0 0 1 -12.54,24.24 z m 0.14,-22 c 4.18,-0.43 6.68,-2.7 6.77,-6.84 0.09,-4.57 -2.76,-7.26 -7.09,-7.15 -4.33,0.11 -7,2.94 -6.71,7.5 0.28,4.2 2.93,6.28 7.03,6.52 z"
             class="cls-16" />
          <path
             style="fill:#fbf4f3"
             inkscape:connector-curvature="0"
             id="path173"
             d="m 311.36,1120 c -5,-8.11 -9.16,-15.5 -12.22,-23.45 -2.5,-6.49 -1.29,-12.18 4.35,-16.39 5.08,-3.8 10.62,-3.86 15.8,-0.17 5.79,4.13 7,9.94 4.56,16.35 A 106.81,106.81 0 0 1 311.36,1120 Z m 7.32,-28.74 c -0.5,-4.15 -2.49,-7 -7,-7.1 -4.08,-0.06 -6.69,2.1 -7,6.24 -0.38,4.52 2.23,7.26 6.46,7.59 4.23,0.33 6.73,-2.36 7.54,-6.68 z"
             class="cls-16" />
          <path
             style="fill:#fbf4f3"
             inkscape:connector-curvature="0"
             id="path175"
             d="m 600.06,936 c -10.69,-16.41 -19.77,-31.95 -25,-49.39 -3.4,-11.35 0.43,-20.86 9.81,-27.58 9.92,-7.11 20.63,-7.09 30.52,0.07 9.35,6.76 13.15,16.28 9.7,27.62 -5.3,17.39 -14.29,32.95 -25.03,49.28 z m -0.18,-69.61 c -8.25,1.55 -13.79,5.81 -13.28,14.53 0.51,8.72 6,13.19 14.51,12.66 7.88,-0.49 12.51,-5.46 12.47,-13.37 -0.03,-8.76 -5.76,-12.66 -13.7,-13.82 z"
             class="cls-16" />
          <path
             style="fill:#f2f2f2"
             inkscape:connector-curvature="0"
             id="path177"
             d="m 809.27,946.54 1.23,1.43 z"
             class="cls-5" />
          <path
             style="fill:#d0d1d3"
             inkscape:connector-curvature="0"
             id="path179"
             d="m 720.25,1026.4 a 30.93,30.93 0 1 1 -31,30.37 30.7,30.7 0 0 1 31,-30.37 z m -0.17,12 c -8,8.56 -6.44,20.85 -13,30 10,0.7 10,0.69 10.7,4.8 0.25,1.59 -0.2,3.58 2.19,3.69 3,0.13 2.65,-2.25 2.45,-4 -0.41,-3.69 1.45,-4.33 4.57,-4.18 1.74,0.09 3.69,0.69 6,-1.08 -6.53,-8.63 -4.73,-20.87 -12.9,-29.25 z"
             class="cls-7" />
          <path
             style="fill:#eaf8fd"
             inkscape:connector-curvature="0"
             id="path181"
             d="m 838.57,944.48 c 0,10.9 0.09,10.66 -9.91,6.87 -4,-1.52 -5.7,-3.56 -5.13,-7.73 0.22,-1.62 -0.29,-3.38 0.1,-4.94 0.86,-3.4 -2.65,-9 2.34,-9.93 6.49,-1.14 12.56,5.36 12.59,11.46 0.02,1.44 0.01,2.86 0.01,4.27 z"
             class="cls-17" />
          <path
             style="fill:#fefefe"
             inkscape:connector-curvature="0"
             id="path183"
             d="m 856.31,927.78 c 0,6.7 0.11,12.53 0,18.35 -0.08,3 -10.7,9 -13.34,7.81 -0.21,-0.09 -0.48,-0.09 -0.64,-0.23 -2.55,-2.28 0.28,-20.43 3.47,-21.79 3.19,-1.36 6.41,-2.55 10.51,-4.14 z"
             class="cls-12" />
          <path
             style="fill:#fbf4f3"
             inkscape:connector-curvature="0"
             id="path185"
             d="m 945.39,1151.72 c -5.24,-8.46 -9.77,-16.29 -12.72,-25 -2.1,-6.17 -0.33,-11.27 4.68,-15.06 5.01,-3.79 10.6,-3.88 15.8,-0.21 5.2,3.67 6.93,9 5,15 -2.7,8.65 -7.3,16.37 -12.76,25.27 z m 7.18,-29 c -0.54,-4.09 -2.57,-7 -7.08,-7.07 -4.11,-0.09 -6.7,2.22 -7,6.3 -0.36,4.47 2.26,7.33 6.48,7.64 4.22,0.31 6.79,-2.49 7.6,-6.87 z"
             class="cls-16" />
          <path
             style="fill:#fbf4f3"
             inkscape:connector-curvature="0"
             id="path187"
             d="m 912.44,829.36 c -5.49,-8.47 -10.18,-16.58 -13,-25.58 -1.94,-6.17 0.38,-11.25 5.55,-14.76 5,-3.39 10.39,-3.18 15.25,0.3 4.86,3.48 6.94,8.46 5.15,14.31 -2.79,9.07 -7.66,17.14 -12.95,25.73 z m 0,-36.19 c -4.31,0.53 -7.06,2.84 -7,7.26 0.06,4.42 2.78,6.94 7.22,6.83 4.14,-0.1 6.52,-2.74 6.64,-6.73 0.13,-4.42 -2.55,-6.79 -6.89,-7.36 z"
             class="cls-16" />
          <path
             style="fill:#c02b32"
             inkscape:connector-curvature="0"
             id="path189"
             d="m 262,863.09 c 4.08,0.7 7.08,2.66 7,7.22 0,4.08 -2.37,6.64 -6.46,6.89 -4.47,0.27 -7.2,-2.28 -7.47,-6.61 -0.27,-4.33 2.73,-6.67 6.93,-7.5 z"
             class="cls-15" />
          <path
             style="fill:#c02b32"
             inkscape:connector-curvature="0"
             id="path191"
             d="m 537.28,1309.5 c -4.1,-0.24 -6.75,-2.32 -7,-6.49 -0.31,-4.57 2.38,-7.39 6.71,-7.5 4.33,-0.11 7.18,2.58 7.09,7.15 -0.08,4.14 -2.62,6.41 -6.8,6.84 z"
             class="cls-15" />
          <path
             style="fill:#c02b32"
             inkscape:connector-curvature="0"
             id="path193"
             d="m 318.68,1091.31 c -0.81,4.33 -3.29,7.08 -7.63,6.73 -4.34,-0.35 -6.84,-3.07 -6.46,-7.59 0.35,-4.14 3,-6.3 7,-6.24 4.6,0.06 6.59,2.95 7.09,7.1 z"
             class="cls-15" />
          <path
             style="fill:#c02b32"
             inkscape:connector-curvature="0"
             id="path195"
             d="m 599.88,866.39 c 7.95,1.17 13.67,5.06 13.71,13.82 0,7.91 -4.59,12.88 -12.47,13.37 -8.53,0.53 -14,-4.07 -14.51,-12.66 -0.51,-8.59 5.01,-12.99 13.27,-14.53 z"
             class="cls-15" />
          <path
             style="fill:#d0d1d3"
             inkscape:connector-curvature="0"
             id="path197"
             d="m 720.09,1038.38 c 8.17,8.38 6.37,20.59 12.84,29.27 -2.29,1.77 -4.23,1.17 -6,1.08 -3.12,-0.15 -5,0.49 -4.57,4.18 0.19,1.75 0.53,4.13 -2.45,4 -2.39,-0.11 -1.94,-2.1 -2.19,-3.69 -0.65,-4.11 -0.71,-4.1 -10.7,-4.8 6.63,-9.19 5.09,-21.47 13.07,-30.04 z"
             class="cls-7" />
          <path
             style="fill:#c02b32"
             inkscape:connector-curvature="0"
             id="path199"
             d="m 952.57,1122.72 c -0.82,4.38 -3.33,7.18 -7.63,6.86 -4.3,-0.32 -6.85,-3.16 -6.48,-7.64 0.33,-4.08 2.92,-6.39 7,-6.3 4.54,0.1 6.54,2.99 7.11,7.08 z"
             class="cls-15" />
          <path
             style="fill:#c02b32"
             inkscape:connector-curvature="0"
             id="path201"
             d="m 912.41,793.17 c 4.34,0.57 7,2.94 6.88,7.36 -0.12,4 -2.5,6.62 -6.64,6.73 -4.44,0.11 -7.14,-2.42 -7.22,-6.83 -0.08,-4.41 2.67,-6.73 6.98,-7.26 z"
             class="cls-15" />
          <path
             style="fill:#c9e0a6"
             inkscape:connector-curvature="0"
             id="path203"
             d="m 504.88,789.1 c 13.72,-5.35 26,-13.56 38.91,-20.38 5.83,-3.07 9.09,-3.52 12.51,3.52 10.85,22.31 28.2,38.84 49.11,51.73 6.69,4.13 10.14,10.23 10.29,17.59 0.41,19.38 -0.22,38.73 -5.9,57.51 -19.76,-13.33 -36.8,-9.6 -49.67,10.89 l -15.72,-4 c -18.36,-4.63 -36.74,-5.5 -55,0.17 -4.63,1.44 -6.72,0.74 -7.43,-4.68 -1.82,-14 -2.24,-28.09 -5.16,-41.94 -1.21,-5.75 -4.36,-11 -4.29,-17 7,2.51 14,4.33 21.5,2.43 12.06,-3.07 20.16,-10.62 23.1,-22.62 3.3,-13.51 -1.45,-24.61 -12.25,-33.22 z"
             class="cls-11" />
          <path
             style="fill:#d0d1d3"
             inkscape:connector-curvature="0"
             id="path205"
             d="m 578.37,951.54 a 23.68,23.68 0 0 0 -2.36,4.85 c -2.5,7.07 -1.53,14.64 -1,21.92 1.22,15.92 3.4,31.78 5.39,47.64 1,7.92 2.37,15.81 3.79,23.67 0.58,3.2 0.1,5.21 -3.6,5.08 -20,-0.67 -40.19,2.24 -60,-2.86 -8.78,-2.27 -16.83,-5.92 -23.38,-12.6 -3.55,-3.63 -4.31,-6.46 -1.24,-11 6.51,-9.62 14.61,-17.87 21.82,-26.88 8.22,-10.28 14.69,-21.18 9,-35 -3.75,-9.08 -11.7,-14.67 -18.69,-20.95 -5.76,-5.17 -12.32,-9.41 -16.85,-16 -4.65,-6.72 -4.38,-8.4 3.76,-10.43 18.63,-4.65 37,-2.55 55.05,3.11 2.46,0.77 5,1.2 7.54,1.79 1.86,13.12 8.4,22.57 20.77,27.66 z"
             class="cls-7" />
          <path
             style="fill:#d0d1d3"
             inkscape:connector-curvature="0"
             id="path207"
             d="m 713.91,932.25 c 3.25,11.52 11.1,20.72 16,31.47 2.35,5.21 2.48,8.05 -3.3,10.14 -5.78,2.09 -11.31,4.75 -17,7 -16.27,6.38 -26,19.93 -36.1,33 -3.9,5 -7.65,10.15 -11.44,15.25 -4.52,6.1 -6.2,12.88 -6.42,20.53 -0.5,17.17 -1.77,34.32 -2.72,51.49 a 8.18,8.18 0 0 1 -2.87,6.23 c -9.16,-7.42 -18.27,-14.91 -27.52,-22.21 -2.52,-2 -3.06,-4.68 -3.65,-7.4 -5.64,-25.77 -10.7,-51.63 -13,-78 -0.93,-10.55 -2.53,-21.06 -2.61,-31.67 -0.09,-11.94 7.85,-19.3 16,-26.28 1.19,-1 3.61,-0.83 5.46,-0.82 25.57,0.1 50.64,-4.42 75.82,-8 4.34,-0.6 8.87,-0.5 13.35,-0.73 z"
             class="cls-7" />
          <path
             style="fill:#d0d1d3"
             inkscape:connector-curvature="0"
             id="path209"
             d="m 692.57,750.41 c 6.53,9.09 10.29,19.58 14.76,29.69 1.86,4.19 -1.49,6.35 -4.77,8.15 -6.63,3.61 -14.44,4.2 -20.76,8.81 -9.62,7 -13.12,15.24 -8.93,26.39 4.49,12 2.67,24.76 5.67,36.82 3.85,15.46 10.44,29.72 21.33,41.58 4.34,4.72 7.64,9.58 7.05,16.29 -16.56,2.17 -33.12,4.42 -49.7,6.47 -7.47,0.92 -15,1.47 -22.49,2.11 -3.52,0.3 -4.78,-0.81 -3.1,-4.5 11.71,-25.61 13,-53 12.55,-80.42 -0.28,-17 -7.55,-31.28 -22.18,-40.59 -16.42,-10.45 -30.48,-22.93 -39.93,-40.21 -4,-7.25 -3.74,-7.41 3.95,-9.88 11.29,-3.63 22,-1.07 32.59,2.29 24.36,7.75 48.26,7.49 71.86,-2.78 a 7.08,7.08 0 0 1 2.1,-0.22 z"
             class="cls-7" />
          <circle
             style="fill:#ccd5d9"
             id="circle211"
             r="35.5"
             cy="1310.5"
             cx="538.5"
             class="cls-6" />
          <path
             style="fill:#f2f2f2"
             inkscape:connector-curvature="0"
             id="path213"
             d="m 530.22,1274.4 c 0,0 5.22,41.26 0,45.43 -7.45,-0.66 -24.55,-7.13 -26.89,-8 -2.34,-0.87 7.47,32.06 7.47,32.06 0,0 27.53,-11.58 28.86,-15.24 1.33,-3.66 8.34,19.35 8.34,19.35 l 12,-6.76 c 0,0 -11,-33.24 12,-51.24 a 215.09,215.09 0 0 1 -21.29,-20.53 l -5.71,8.53 -0.69,-6.4 z"
             class="cls-5" />
        </g>
      </g>
    </g>
    <g
       transform="translate(0,-920)"
       data-name="Capa 2"
       id="Capa_2">
      <path
         style="fill:none;stroke:#383838;stroke-width:2px;stroke-miterlimit:10"
         inkscape:connector-curvature="0"
         id="path219"
         d="m 264,872.45 c 0,0 -2.15,0 -6,0.14"
         class="cls-18" />
      <path
         style="fill:none;stroke:#383838;stroke-width:2px;stroke-miterlimit:10;stroke-dasharray:11.96, 11.96"
         inkscape:connector-curvature="0"
         id="path221"
         d="m 246.05,873 c -46.34,2 -167,10.37 -175.05,44.86 -10,42.76 212,58.8 391,50.78 179,-8.02 513,-59.69 519,-114 0,0 35,-65.92 -72,-59.69 -110.92,6.46 -431.66,410.27 -431.66,410.27 0,0 -169.34,165.78 170.66,135.78 130.36,-11.49 33.06,-42.91 -2.43,-52.92"
         class="cls-19" />
      <path
         style="fill:none;stroke:#383838;stroke-width:2px;stroke-miterlimit:10"
         inkscape:connector-curvature="0"
         id="path223"
         d="m 639.8,1286.52 c -3.63,-1 -5.8,-1.52 -5.8,-1.52"
         class="cls-18" />
      <path
         style="fill:#dbf1fd"
         inkscape:connector-curvature="0"
         id="path225"
         d="m 215,792.09 c 0,22.09 -40,90.81 -40,90.81 0,0 -40,-68.72 -40,-90.81 a 40,40 0 0 1 80,0 z"
         class="cls-20" />
      <path
         style="fill:#cf2027"
         inkscape:connector-curvature="0"
         id="path227"
         d="m 212,792 c 0,20.43 -37,84 -37,84 0,0 -37,-63.57 -37,-84 a 37,37 0 0 1 74,0 z"
         class="cls-21" />
      <circle
         style="fill:#f2f2f2"
         id="circle229"
         r="25"
         cy="791"
         cx="175"
         class="cls-5" />
      <path
         style="fill:#dbf1fd"
         inkscape:connector-curvature="0"
         id="path231"
         d="m 972,704.09 c 0,22.09 -40,90.81 -40,90.81 0,0 -40,-68.72 -40,-90.81 a 40,40 0 0 1 80,0 z"
         class="cls-20" />
      <path
         style="fill:#cf2027"
         inkscape:connector-curvature="0"
         id="path233"
         d="m 969,704 c 0,20.43 -37,84 -37,84 0,0 -37,-63.57 -37,-84 a 37,37 0 0 1 74,0 z"
         class="cls-21" />
      <circle
         style="fill:#f2f2f2"
         id="circle235"
         r="25"
         cy="703"
         cx="932"
         class="cls-5" />
      <path
         style="fill:#dbf1fd"
         inkscape:connector-curvature="0"
         id="path237"
         d="m 739,1219.09 c 0,22.09 -40,90.81 -40,90.81 0,0 -40,-68.72 -40,-90.81 a 40,40 0 0 1 80,0 z"
         class="cls-20" />
      <path
         style="fill:#cf2027"
         inkscape:connector-curvature="0"
         id="path239"
         d="m 736,1219 c 0,20.43 -37,84 -37,84 0,0 -37,-63.57 -37,-84 a 37,37 0 0 1 74,0 z"
         class="cls-21" />
      <circle
         style="fill:#f2f2f2"
         id="circle241"
         r="25"
         cy="1218"
         cx="699"
         class="cls-5" />
      <path
         style="fill:#dbf1fd"
         inkscape:connector-curvature="0"
         id="path243"
         d="m 477,1205.09 c 0,22.09 -40,90.81 -40,90.81 0,0 -40,-68.72 -40,-90.81 a 40,40 0 0 1 80,0 z"
         class="cls-20" />
      <path
         style="fill:#cf2027"
         inkscape:connector-curvature="0"
         id="path245"
         d="m 474,1205 c 0,20.43 -37,84 -37,84 0,0 -37,-63.57 -37,-84 a 37,37 0 0 1 74,0 z"
         class="cls-21" />
      <circle
         style="fill:#f2f2f2"
         id="circle247"
         r="25"
         cy="1204"
         cx="437"
         class="cls-5" />
      <path
         style="fill:#dbf1fd"
         inkscape:connector-curvature="0"
         id="path249"
         d="m 592,1017.09 c 0,22.09 -40,90.81 -40,90.81 0,0 -40,-68.72 -40,-90.81 a 40,40 0 1 1 80,0 z"
         class="cls-20" />
      <path
         style="fill:#cf2027"
         inkscape:connector-curvature="0"
         id="path251"
         d="m 589,1017 c 0,20.43 -37,84 -37,84 0,0 -37,-63.57 -37,-84 a 37,37 0 0 1 74,0 z"
         class="cls-21" />
      <circle
         style="fill:#f2f2f2"
         id="circle253"
         r="25"
         cy="1016"
         cx="552"
         class="cls-5" />
      <path
         style="fill:#dbf1fd"
         inkscape:connector-curvature="0"
         id="path255"
         d="m 377,881.09 c 0,22.09 -40,90.81 -40,90.81 0,0 -40,-68.72 -40,-90.81 a 40,40 0 0 1 80,0 z"
         class="cls-20" />
      <path
         style="fill:#cf2027"
         inkscape:connector-curvature="0"
         id="path257"
         d="m 374,881 c 0,20.43 -37,84 -37,84 0,0 -37,-63.57 -37,-84 a 37,37 0 0 1 74,0 z"
         class="cls-21" />
      <circle
         style="fill:#f2f2f2"
         id="circle259"
         r="25"
         cy="880"
         cx="337"
         class="cls-5" />
      <path
         style="fill:#dbf1fd"
         inkscape:connector-curvature="0"
         id="path261"
         d="m 818,839.09 c 0,22.09 -40,90.81 -40,90.81 0,0 -40,-68.72 -40,-90.81 a 40,40 0 0 1 80,0 z"
         class="cls-20" />
      <path
         style="fill:#cf2027"
         inkscape:connector-curvature="0"
         id="path263"
         d="m 815,839 c 0,20.43 -37,84 -37,84 0,0 -37,-63.57 -37,-84 a 37,37 0 0 1 74,0 z"
         class="cls-21" />
      <circle
         style="fill:#f2f2f2"
         id="circle265"
         r="25"
         cy="838"
         cx="778"
         class="cls-5" />
      <path
         style="fill:#d0d1d3"
         inkscape:connector-curvature="0"
         id="path267"
         d="m 539,942 c 1,-5 -28,-18 -28,-18 l -6,16 17,23 5.61,-0.26 z"
         class="cls-7" />
      <path
         style="fill:#c9e0a6"
         inkscape:connector-curvature="0"
         id="path269"
         d="M 550.08,905.17 593.5,923 c 0,0 17.25,-22.79 17.88,-27.89 C 612.01,890.01 575,868 575,868 Z"
         class="cls-11" />
      <polygon
         style="fill:#c9e0a6"
         id="polygon271"
         points="471.8,845 463,804 503,784 547,811 517,868 "
         class="cls-11" />
      <path
         style="fill:#f2f2f2"
         inkscape:connector-curvature="0"
         id="path273"
         d="m 471,845 c 0,0 -31,-34 -26,-51 5,-17 54,-18 54,-18 l 12.4,9.31 c 0,0 -36.4,20.36 -42.4,20 -6,-0.36 3.94,39.69 3.94,39.69 z"
         class="cls-5" />
      <path
         style="fill:#f2f2f2"
         inkscape:connector-curvature="0"
         id="path275"
         d="m 646,718 -17.67,9.67 5.33,26 c 0,0 26.34,-9.67 34.34,-17.67 5,-6 -22,-18 -22,-18 z"
         class="cls-5" />
      <polygon
         style="opacity:0.62000002;fill:url(#Degradado_sin_nombre_7)"
         id="polygon277"
         points="1072,1045 1076,832 1658,1277 1617,1301 "
         class="cls-22" />
    </g>
  </g>
</svg>
