<svg xmlns="http://www.w3.org/2000/svg" width="134.003" height="49.87" viewBox="0 0 134.003 49.87"><defs><style>.a{fill:#219188;}.b{fill:#f49519;}.c{fill:#fff;}.d,.e{fill:#1f9289;}.d{font-size:30px;font-family:Raleway-Black, Raleway;font-weight:800;}.e{font-size:28px;font-family:Raleway-MediumItalic, Raleway;font-weight:500;font-style:italic;}</style></defs><g transform="translate(-140.484 -17.083)"><g transform="translate(140.484 17.083)"><path class="a" d="M37.021,50.236l-.135.135,0,.018c.245.35-.064.564-.242.74-.543.532-1,1.132-1.5,1.7-.083.094-.238.17-.066.334s.245.029.348-.057C36.1,52.542,36.8,52,37.444,51.4c1.111-1.02,2.286-1.963,3.415-2.962,2.79-2.469,5.633-4.88,8.456-7.313.076-.066.134-.188.317-.115V45.57L63.367,32.914v4.157l1.051-.986c2.515-2.361,5.021-4.73,7.546-7.079,2.282-2.122,4.5-4.317,6.822-6.392a3.287,3.287,0,0,1,4.189-.554A6.267,6.267,0,0,1,86.43,26a8.463,8.463,0,0,1,.209.964.58.58,0,0,0,.174.41c.748.7,1.4,1.5,2.09,2.252a.357.357,0,0,0,.545.082A15.542,15.542,0,0,0,94.064,25.4a.315.315,0,0,0-.023-.489c-.682-.709-1.343-1.438-2-2.166a1.039,1.039,0,0,0-.737-.394,3.589,3.589,0,0,1-.986-.253A4.676,4.676,0,0,1,87.16,18.54,6.159,6.159,0,0,0,84.7,14.731c-1.005-.759-1.975-1.568-2.985-2.322a14.183,14.183,0,0,0-6.824-2.82,18.051,18.051,0,0,0-5.171.207,33.5,33.5,0,0,0-7.279,2.1c-.225.091-.264.208-.219.444.053.279.218.237.395.21a26.363,26.363,0,0,1,2.644-.28,19.336,19.336,0,0,1,6.512.535A5.438,5.438,0,0,1,74.4,14.217a1.856,1.856,0,0,1,.145,2.466,9.85,9.85,0,0,1-1.2,1.325c-2.279,2.166-16.9,16.019-20.082,19.03v-4.55c-.608.681-1.14,1.276-1.671,1.873C48.735,37.578,45.88,40.8,43,44.007c-1.23,1.367-2.417,2.773-3.712,4.086-.547.555-1.019,1.194-1.6,1.725v0c-.1.11-.191.228-.3.329s-.173.291-.356.108Z" transform="translate(-33.416 -9.484)"/><path class="a" d="M43.511,36.779c.129-.187.205-.3.285-.411q4.422-6.081,8.848-12.161A4.934,4.934,0,0,1,54.1,22.863c1.068-.64,2.18-1.206,3.2-1.92a3.247,3.247,0,0,0,1.489-2.6c.073-1.246.072-2.493.091-3.74a1.563,1.563,0,0,0-.1-.694.386.386,0,0,0-.3-.262c-.15-.01-.179.151-.234.256-.6,1.169-1.213,2.333-1.8,3.51a2.119,2.119,0,0,1-1.1,1.016,2.839,2.839,0,0,1-2.823-.424,2.329,2.329,0,0,1-.9-3.077c.58-1.179,1.2-2.34,1.8-3.508.2-.381.185-.392-.248-.394a1.761,1.761,0,0,0-1.075.486c-.861.655-1.641,1.405-2.469,2.1a4.912,4.912,0,0,0-1.711,3.85c-.038,1.055.189,2.1.1,3.156a4.055,4.055,0,0,1-.751,2.209Q45.8,24.73,44.315,26.631l-1.944,2.5,3.152-.43L37.356,40.516l3.528-.494a1.876,1.876,0,0,1-.375.651q-2.92,4.544-5.844,9.083c-.5.769-.986,1.539-1.481,2.308-.06.093-.144.182-.025.288a.132.132,0,0,0,.213-.025c.588-.722,1.236-1.39,1.863-2.077a9.245,9.245,0,0,1,1.159-1.255,1.312,1.312,0,0,0,.46-.575,2.157,2.157,0,0,1,.4-.669q4.23-5,8.469-9.983c.381-.45.756-.9,1.218-1.457Z" transform="translate(-32.902 -9.901)"/><path class="b" d="M79.44,35.264c-.964.914-1.866,1.771-2.771,2.626a.371.371,0,0,0-.088.342,19.3,19.3,0,0,1-.234,4.6c-.088.518-.212,1.031-.348,1.539s-.285.984-.459,1.465-.374.984-.594,1.462-.452.919-.705,1.363-.539.9-.835,1.338-.61.857-.939,1.265-.7.755-1.006,1.162c-.289.38-.757.532-1.032.95-.253.383-.747.554-1.081.905s-.821.521-1.173.863c-.326.317-.789.376-1.156.643a5.935,5.935,0,0,1-.96.542,18.609,18.609,0,0,1-9.533,1.725,18.219,18.219,0,0,1-8.167-2.674.445.445,0,0,0-.64.066c-.6.538-1.205,1.062-1.811,1.59-.407.354-.411.356.028.643a21.645,21.645,0,0,0,16.956,3.145,19.8,19.8,0,0,0,5.179-1.879A21.88,21.88,0,0,0,77.044,50.3a21.621,21.621,0,0,0,2.783-12.134A18.841,18.841,0,0,0,79.44,35.264Z" transform="translate(-36.277 -16.442)"/><path class="b" d="M34.112,41.014c.658-.95,1.261-1.86,1.907-2.739a1.385,1.385,0,0,0,.307-1.442,3.379,3.379,0,0,1-.126-.818,19.143,19.143,0,0,1,.285-6.443,16.148,16.148,0,0,1,1.441-4.02c.2-.39.45-.8.641-1.2a12.683,12.683,0,0,1,1.313-2,16.3,16.3,0,0,1,4.361-4.107A2,2,0,0,0,45.348,16.6a6.473,6.473,0,0,1,1.325-3.264c-7.5,3.126-11.9,8.787-13.668,16.625A23.98,23.98,0,0,0,34.112,41.014Z" transform="translate(-32.83 -10.523)"/><path class="b" d="M72.226,17.323a.681.681,0,0,0,.123.1A18.342,18.342,0,0,1,77.986,21.1c.164.156.262.121.4-.014.649-.622,1.3-1.242,1.96-1.852.175-.163.118-.262-.026-.4a22.037,22.037,0,0,0-2.092-1.766.717.717,0,0,0-.413-.172A26.1,26.1,0,0,0,72.226,17.323Z" transform="translate(-43.462 -11.482)"/></g><rect class="c" width="14.155" height="18.182" transform="translate(179.462 36.066)"/><g transform="translate(180.526 30.953)"><text class="d" transform="translate(26 28)"><tspan x="-26.475" y="0">Soy</tspan></text><text class="e" transform="translate(71.961 28.494)"><tspan x="-21.322" y="0">Pro</tspan></text></g></g></svg>