<svg xmlns="http://www.w3.org/2000/svg" xmlns:xlink="http://www.w3.org/1999/xlink" width="418" height="418" viewBox="0 0 418 418"><defs><style>.a{fill:#b1e3ff;}.b{fill:none;}.c{clip-path:url(#a);}.d{fill:#fff;}.e{fill:#eaf7ff;}.f{fill:#90d7ff;}.f,.w{opacity:0.5;}.g{clip-path:url(#b);}.h{fill:#bf8035;}.i{fill:#c17729;}.j{fill:#e9b42b;}.k{fill:#494d4d;}.l{fill:#e06f1a;}.m{fill:#f5dd49;}.n{fill:#dcdcdc;}.o,.w{fill:#fbfbfb;}.p{fill:#db4610;}.q{fill:#8d9493;}.r{fill:silver;}.s{fill:#efeaea;}.t{fill:#a0dae0;}.u{fill:#80adb2;}.v{fill:#7f7f7f;}.x{fill:#666;}.y{fill:#f4dab6;}.z{fill:#2d2f2f;}.aa{fill:#e1c9a7;}.ab{fill:#66352b;}.ac{fill:#c8370d;}.ad{fill:#e06f44;}.ae{fill:#c7e2df;}.af{fill:#faf2e6;}.ag{fill:#a4632f;}</style><clipPath id="a"><path class="a" d="M0,0H418V331.956H0Z"/></clipPath><clipPath id="b"><rect class="b" width="418" height="418"/></clipPath></defs><g transform="translate(0 86.044)"><g class="c"><path class="a" d="M0,0,418,48.133V331.956H0Z" transform="translate(0.836)"/><path class="d" d="M-31.764,286.275c23.709-21.222,66.05-8.967,90.807,4.234,23.371,12.462,20.6,27.882,24.745,47.374,20.729,3.679,36.823,22.5,30.374,39.082,10.588-.665,22.025,1.842,27.433,9.736,30.811-9.748,73.133-2.5,95.8,15.611,12.563,10.038,23.147,20.833,28.831,34.308,3.683,8.732,8.847,23.675,6.5,32.785-17.276-5.1-40.322-6.035-58.519-6.787-44.27-1.829-89.946-3.759-133.742-9.638-38.5-5.169-77.145-10.1-115.484-15.851-10.865-1.631-21.4-4.562-31.847-4.47" transform="translate(1.967 -108.354)"/><path class="e" d="M536.342,339.874c-20.976-12.545-70.41-11.6-93.5-1.992-19.626,8.17-34.743,26.109-35.848,43.665-11.45.576-19.619-1.318-24.281,8.186-3.5,7.139-2.473,15.983,1.771,22.854-16.055,4.028-23.264,1.532-26.4,16.76-14.931.422-36.083,1.88-49.371,7.712-15.616,6.854-16.616,20.409-15.451,33.117,11.164.612,22.483-.094,33.68.086,35.631.573,70.892,5.7,106.513,6.8,25.726.791,51.547.361,77.256,1.307,13.991.514,34.111,4.161,45.689,2.911" transform="translate(-48.039 -111.099)"/><path class="f" d="M157.026,245.576S25.621,311.648-20.081,326.7v3.1s144.5-57.981,194.029-66.391" transform="matrix(0.996, -0.087, 0.087, 0.996, -10.487, -110.735)"/></g></g><g class="g"><g transform="translate(-17.454 27.601)"><g transform="translate(0 160.02)"><path class="h" d="M283.383,227.54l23.939,29.6-42.918,32.126L255.957,277.8l-22.424-4.6L155.357,324.8l-8.531-12.445-20.993-6.806L-2.121,380.717l-5.716,30.82L362.331,266.254l22.888-30.978-21.478-10.849Z" transform="translate(18.739 -224.427)"/><path class="i" d="M396.163,294.726l36.822,20.526-4.4-40.793Z" transform="translate(-47.517 -232.632)"/><path class="j" d="M327.257,258.763l-58.343,41.651-15.1-20.483L162,339.734l-17.31-25.256L-9.976,413.665l-10.9,57.766,154.893-100,15.927,19.644L241.449,332.9l14.866,18.065,91.393-62.209,16.882,20.419L383.08,237.4l-72.648,2.553Z" transform="translate(20.878 -226.555)"/></g><g transform="translate(137.576)"><path class="k" d="M338,109.419c-5.488-.423-44.639,28.358-44.639,28.358s.852,5.1,5.365,4.223,33.9-23.655,36.829-23.654,5.25,14.192,4.609,16.279c4.818.3,5.373.25,5.373.25S343.491,109.842,338,109.419Z" transform="translate(-168.234 -45.545)"/><path class="k" d="M296.685,86.71l.466,6.509c20.214-3.977,48.23-31.861,48.23-31.861a35.259,35.259,0,0,0-5.105-7.157C330.082,66.145,296.685,86.71,296.685,86.71Z" transform="translate(-168.779 -36.49)"/><g transform="translate(0 69.698)"><path class="l" d="M217.968,232.73l-.038-.039-.016-.054-.023.013-5.25-5.423s-21.52-9.3-45.21,19.9c-18.923,23.324-22.729,28.018-23.495,28.962l-.249.145.152-.027-.1.12.248-.145,36.739-6.415c37.041-6.475,39.4-29.8,39.4-29.8l-2.18-7.227Z" transform="translate(-143.687 -134.334)"/><path class="j" d="M219.875,234.714l-.029-.034-.016-.041-.013.008-3.982-4.491s-15.448-8.543-29.818,12.172L171.766,262.87l-.161.1.1-.011c-.059.084-.059.085-.059.085l.161-.1c.812-.079,4.844-.474,24.884-2.444,25.088-2.461,25.151-20.115,25.151-20.115l-1.985-5.665Z" transform="translate(-148.266 -134.759)"/><path class="m" d="M222.6,235.869l.007-.005-.019-.026-.014-.032-.007.005-2.832-3.658s-9.952-7.877-15.843,5.146c-4.707,10.4-5.653,12.494-5.844,12.915l-.083.048.059,0-.023.053.081-.047c.461.038,2.75.231,14.127,1.185,14.242,1.2,12.207-11.333,12.207-11.333Z" transform="translate(-152.588 -134.986)"/><g transform="translate(46.375)"><g transform="translate(14.261 74.338)"><path class="n" d="M216.219,219.807l15.143,25.781,22.2-6.179-23.754-34.1Z" transform="translate(-216.219 -205.308)"/><path class="o" d="M221.734,229.707l2.794,4.756,17.909-10.278-4.443-6.377Z" transform="translate(-217.124 -207.358)"/><path class="o" d="M226.8,238.587l1.353,2.3,18.156-10.666-1.53-2.2Z" transform="translate(-217.954 -209.034)"/></g><path class="p" d="M256.883,239.386s6.283,7.131-11.727,28.523C302.426,271.26,298.205,220,298.205,220A131.445,131.445,0,0,0,256.883,239.386Z" transform="translate(-206.703 -133.38)"/><path class="p" d="M233.142,203.754a1.219,1.219,0,0,0-1.661-.453l-5.32,3.125a1.22,1.22,0,0,0-.415,1.673l21.137,35.983a1.217,1.217,0,0,0,1.661.452l5.321-3.125a1.218,1.218,0,0,0,.414-1.672Z" transform="translate(-203.492 -130.615)"/><path class="n" d="M228.642,189.861l23.5,40.008s99.7-21.044,146.41-113.4C398.551,116.471,297.054,110.925,228.642,189.861Z" transform="translate(-203.995 -116.387)"/><path class="p" d="M377.794,120.481c6.2,7.248,15.453,19.568,20.566,33.594a201.177,201.177,0,0,0,24.652-37.6S404.422,115.456,377.794,120.481Z" transform="translate(-228.456 -116.387)"/><path class="q" d="M228.642,202.154l23.5,40.008s5.325-1.125,14.086-3.992l-27.5-46.821Q233.583,196.472,228.642,202.154Z" transform="translate(-203.995 -128.681)"/><path class="r" d="M245.843,214.985l9.118,15.525s97.4-20.561,144.759-110.212C340.492,192.679,245.843,214.985,245.843,214.985Z" transform="translate(-206.816 -117.029)"/><path class="r" d="M328.353,159.965a16.856,16.856,0,1,0,23.071,6A16.855,16.855,0,0,0,328.353,159.965Z" transform="translate(-218.983 -123.153)"/><path class="s" d="M328.372,157.865a16.856,16.856,0,1,0,23.07,6A16.857,16.857,0,0,0,328.372,157.865Z" transform="translate(-218.986 -122.808)"/><path class="t" d="M331.4,162.433a12.541,12.541,0,1,0,17.166,4.461A12.538,12.538,0,0,0,331.4,162.433Z" transform="translate(-219.832 -123.655)"/><path class="u" d="M331.426,162.433a12.514,12.514,0,0,0-6.083,9.2,12.538,12.538,0,0,1,24.084,6.251,12.538,12.538,0,0,0-18-15.448Z" transform="translate(-219.854 -123.655)"/><path class="v" d="M375.856,124.012a1.022,1.022,0,1,0,1.4.364A1.023,1.023,0,0,0,375.856,124.012Z" transform="translate(-228.056 -117.615)"/><path class="v" d="M248.833,198.625a1.022,1.022,0,1,0,1.4.364A1.022,1.022,0,0,0,248.833,198.625Z" transform="translate(-207.224 -129.851)"/><path class="v" d="M251.691,203.489a1.022,1.022,0,1,0,1.4.364A1.02,1.02,0,0,0,251.691,203.489Z" transform="translate(-207.692 -130.649)"/><path class="v" d="M254.546,208.352a1.022,1.022,0,1,0,1.4.364A1.023,1.023,0,0,0,254.546,208.352Z" transform="translate(-208.161 -131.446)"/><path class="v" d="M257.4,213.216a1.022,1.022,0,1,0,1.4.364A1.024,1.024,0,0,0,257.4,213.216Z" transform="translate(-208.629 -132.244)"/><path class="v" d="M260.26,218.08a1.022,1.022,0,1,0,1.4.363A1.02,1.02,0,0,0,260.26,218.08Z" transform="translate(-209.098 -133.042)"/><path class="v" d="M263.117,222.943a1.022,1.022,0,1,0,1.4.364A1.022,1.022,0,0,0,263.117,222.943Z" transform="translate(-209.566 -133.839)"/><path class="v" d="M265.974,227.806a1.022,1.022,0,1,0,1.4.365A1.022,1.022,0,0,0,265.974,227.806Z" transform="translate(-210.035 -134.637)"/><path class="v" d="M379.334,128.512a1.022,1.022,0,1,0,1.4.364A1.021,1.021,0,0,0,379.334,128.512Z" transform="translate(-228.626 -118.353)"/><path class="v" d="M382.909,133.605a1.022,1.022,0,1,0,1.4.364A1.023,1.023,0,0,0,382.909,133.605Z" transform="translate(-229.212 -119.188)"/><path class="v" d="M386.63,138.518a1.022,1.022,0,1,0,1.4.364A1.024,1.024,0,0,0,386.63,138.518Z" transform="translate(-229.822 -119.994)"/><path class="v" d="M389.958,144.184a1.022,1.022,0,1,0,1.4.364A1.022,1.022,0,0,0,389.958,144.184Z" transform="translate(-230.368 -120.923)"/><path class="v" d="M393.012,149.384a1.022,1.022,0,1,0,1.4.365A1.023,1.023,0,0,0,393.012,149.384Z" transform="translate(-230.869 -121.776)"/><path class="v" d="M395.263,154.638a1.022,1.022,0,1,0,1.4.365A1.023,1.023,0,0,0,395.263,154.638Z" transform="translate(-231.238 -122.637)"/><path class="v" d="M397.793,159.937a1.022,1.022,0,1,0,1.4.364A1.023,1.023,0,0,0,397.793,159.937Z" transform="translate(-231.653 -123.506)"/><path class="r" d="M264.043,235.508c-1.578,2.273-3.2,4.556-4.848,6.82.321,2.911-.449,8.181-6.018,16.683,28.847-11.186,40.837-21.412,45.768-28.42a50.358,50.358,0,0,0,.575-10.59A130.129,130.129,0,0,0,264.043,235.508Z" transform="translate(-208.019 -133.38)"/><path class="p" d="M261.321,231.925c-5.844,12.508-11.124,17.239-24.3,24.281,56.4-21.5,58.018-36.873,58.018-36.873C290.2,218.221,269.277,225.392,261.321,231.925Z" transform="translate(-205.37 -133.252)"/><path class="w" d="M231.852,194.507l3.749,6.381c21.95-23.93,71.665-68.644,147.652-84.048-3.866.242-8.34.624-13.314,1.226C333.587,125.625,276.565,144.992,231.852,194.507Z" transform="translate(-204.521 -116.462)"/><path class="r" d="M249.194,184.145c-10.961,8.837-18.288,17.934-16.364,20.321s12.369-2.845,23.33-11.68,18.288-17.935,16.366-20.321S260.156,175.308,249.194,184.145Z" transform="translate(-204.632 -125.489)"/><path class="p" d="M199.16,192.934c27.453-5.314,30.621,3.647,30.621,3.647a131.5,131.5,0,0,0,37.056-26.653S224.119,141.279,199.16,192.934Z" transform="translate(-199.16 -123.868)"/></g></g><path class="k" d="M308.871,98.284c-.573-10.017-7.706-17.605-9.647-15.795,0,0-27.925,23.023-17.791,63.47,10.251,3,26.568-12.411,29.854-15.929C306.294,116.209,304.5,105.581,308.871,98.284Z" transform="translate(-165.914 -41.086)"/><path class="d" d="M303.561,82.054l4.46,4.685,5.58-4.018-4.52-6.068Z" transform="translate(-169.906 -40.172)"/><path class="d" d="M303.149,82.542a43.5,43.5,0,0,1,6.126,23.659c1.154-8.778,1.352-15.488-1.141-19.243Z" transform="translate(-169.839 -41.138)"/><path class="x" d="M303.913,93.211a7.326,7.326,0,0,1,2.573,3.274l-1.514.632a53.48,53.48,0,0,1,4.493,13.194c-.395-10.237-.315-21.035-6.334-28.044C303.13,82.267,304.861,89.372,303.913,93.211Z" transform="translate(-169.836 -41.093)"/><g transform="translate(120.892 57.265)"><path class="y" d="M334.5,114.4a1.72,1.72,0,0,0-.446.14A2.794,2.794,0,0,0,334.5,114.4Z" transform="translate(-295.799 -103.628)"/><path class="y" d="M333.266,110.323c-.089.075-.143.128-.143.128S333.182,110.4,333.266,110.323Z" transform="translate(-295.647 -102.96)"/><path class="y" d="M332.814,113a2.8,2.8,0,0,1-.446.14,1.72,1.72,0,0,1,.446-.14c.747-.3,2.067-1.165.957-3.331-.584-1.141-1.654-.4-2.038-.077-.084.079-.143.128-.143.128s.054-.053.143-.128c.476-.447,1.919-2.026.343-3.469-.992-.907-2.818.726-2.818.726a4.737,4.737,0,0,0-4.162-.332c-2.654.818-.482,7.277-.482,7.277l1.2,2.776a42.443,42.443,0,0,0,5.278.729c2,.067,4-2.611,3.194-3.686A1.44,1.44,0,0,0,332.814,113Z" transform="translate(-294.114 -102.225)"/><path class="d" d="M323.221,115.136l1.879,3.933,1.51-1.214-2.114-3.771Z" transform="translate(-294.023 -103.576)"/><path class="k" d="M323.32,114.306l.006.011C323.416,114.256,323.32,114.306,323.32,114.306Z" transform="translate(-294.039 -103.61)"/><path class="k" d="M305.419,119.4c-13.621,7.959-9.673-17.887-9.673-17.887L288.3,115.162a14.143,14.143,0,0,0,9.921,11.658c9.314,3.163,21.859-9.863,21.859-9.863l-2.493-4.734C317.323,112.4,315.518,113.5,305.419,119.4Z" transform="translate(-288.295 -101.515)"/><path class="z" d="M291.616,125.842c.432,2.036,5.987,15.985,19.708,2.383C311.324,128.225,298.714,139.261,291.616,125.842Z" transform="translate(-288.84 -105.505)"/><path class="z" d="M300.276,120.064c-4.362-1.219-3.644-13.277-3.644-13.277s-1.523,9.876,2.48,13.688,11.991-2.761,11.991-2.761S304.639,121.284,300.276,120.064Z" transform="translate(-289.616 -102.38)"/><path class="aa" d="M325.343,109.906l4.172-2.864s-.728.227-1.917.695A6.287,6.287,0,0,0,325.343,109.906Z" transform="translate(-294.371 -102.421)"/></g><g transform="translate(128.838)"><path class="ab" d="M308.127,76.934l-.288.608S308.653,77.675,308.127,76.934Z" transform="translate(-299.445 -40.219)"/><path class="ab" d="M308.99,44.89c-5.707,4.18-16.417,16.539-8.2,22.1,3.8,2.568,5.237,3.849,5.688,4.486l10.928-23.1S314.7,40.711,308.99,44.89Z" transform="translate(-297.799 -34.759)"/><path class="y" d="M312.393,47.759s-9.11,12.77-6.407,13.939c-1.817-.5-3.545,3.187-2.613,4.482s3.536,1.109,3.536,1.109-1.758,3.888,1.557,8.584c5.75,8.145,19.8,2.88,19.8,2.88l-.938-9.711s1.965.139,3.117-3.3C334.352,50.1,312.393,47.759,312.393,47.759Z" transform="translate(-298.67 -35.434)"/><path class="ac" d="M320.265,73.75c-5.628-2.523-1.544,9.8,10.215,7.275l-.585-6.053A17,17,0,0,1,320.265,73.75Z" transform="translate(-301.074 -39.64)"/><path class="ab" d="M312.224,45.6l-5.919,5.138s-6.455,10.833-2.2,10.319,3.485,4.78,3.485,4.78l.521-.038a48.879,48.879,0,0,0-.366-11.241c5.316-.646,10.456-5.86,10.456-5.86Z" transform="translate(-298.595 -35.079)"/><path class="ad" d="M323.415,78.2a6.528,6.528,0,0,0-3.2,1.058,10.851,10.851,0,0,0,8.389,2.859,2.449,2.449,0,0,0,.091-.833C328.556,79.386,326.194,78,323.415,78.2Z" transform="translate(-301.475 -40.424)"/><path class="ab" d="M318.319,57.182a1.238,1.238,0,1,0,1.323,1.146A1.237,1.237,0,0,0,318.319,57.182Z" transform="translate(-300.976 -36.979)"/><path class="ab" d="M325.146,53.724a1.238,1.238,0,1,0,1.323,1.147A1.239,1.239,0,0,0,325.146,53.724Z" transform="translate(-302.095 -36.412)"/><path class="ab" d="M303.974,44.631c-4.051.85-5,6.2-4.2,10.3.919.329.651.262.237.14l.187.084c.2.063.394.126.591.186,4.088.781,14.5-5.438,16.728-7.426,2.443-2.18,2.826-10.283-.816-14.9C319.116,36.849,311.192,43.117,303.974,44.631Z" transform="translate(-298.08 -33.016)"/><path class="ab" d="M299.81,59.334l-.02-.026C299.294,59.158,298.784,59,299.81,59.334Z" transform="translate(-298.031 -37.3)"/><path class="ab" d="M299.89,59.324l.169.05a1.089,1.089,0,0,1-.237-.14Z" transform="translate(-298.131 -37.316)"/><path class="aa" d="M326.879,70.581c-4.236-.643.9.558,4.081,1.152v-.013s1.965.139,3.117-3.3a14.135,14.135,0,0,0,.432-4.332C334.353,64.579,332.088,71.37,326.879,70.581Z" transform="translate(-302.305 -38.112)"/><path class="aa" d="M307.121,73.6a9.948,9.948,0,0,0,2,6.513c5.75,8.145,19.8,2.88,19.8,2.88l-.025-.265C314.958,86.435,308.8,76.915,307.121,73.6Z" transform="translate(-299.324 -39.671)"/></g><path d="M353.9,61.383l.025-.025a35.259,35.259,0,0,0-5.105-7.157S347.967,60.156,353.9,61.383Z" transform="translate(-177.322 -36.49)"/><path class="ae" d="M351.388,52.9" transform="translate(-177.75 -36.277)"/><path class="y" d="M362.711,53.242a1.705,1.705,0,0,0-.446.14A2.8,2.8,0,0,0,362.711,53.242Z" transform="translate(-179.534 -36.333)"/><path class="y" d="M361.478,49.165c-.09.075-.144.128-.144.128S361.393,49.245,361.478,49.165Z" transform="translate(-179.381 -35.664)"/><path class="y" d="M360.9,51.839a2.8,2.8,0,0,1-.446.14,1.705,1.705,0,0,1,.446-.14c.747-.3,2.067-1.165.957-3.331-.584-1.141-1.653-.4-2.037-.077-.085.08-.144.128-.144.128s.053-.053.144-.128c.476-.447,1.919-2.026.342-3.469-.992-.906-2.818.726-2.818.726a4.736,4.736,0,0,0-4.162-.331c-2.653.818-1.821,6.2-1.821,6.2l2.54,3.854a42.246,42.246,0,0,0,5.279.729c2,.067,4-2.61,3.194-3.686A1.438,1.438,0,0,0,360.9,51.839Z" transform="translate(-177.726 -34.93)"/><g transform="translate(171.455 16.625)"><path d="M348.781,54.733l.314-.233c-.092-.1-.182-.2-.277-.3C348.819,54.2,348.791,54.4,348.781,54.733Z" transform="translate(-348.777 -53.115)"/><path class="d" d="M349.095,54.286l-.314.233a6.621,6.621,0,0,0,2.144,5.279l1.41-1.313,1.736-1.616L350.96,52.9Z" transform="translate(-348.777 -52.902)"/></g><path class="aa" d="M357.847,45.884s1.194,2.042.424,3.156-2.361.693-3.79-.252c.692.894.015,2.409-.188,3.723a2.557,2.557,0,0,0,.594-3.175c.965,1.765,4.054,1.02,4.2-.614A3.647,3.647,0,0,0,357.847,45.884Z" transform="translate(-178.226 -35.126)"/><path class="aa" d="M356.121,50.588c1.3,2,4.028-.813,4.028-.813A4.126,4.126,0,0,1,356.121,50.588Z" transform="translate(-178.526 -35.764)"/><path class="aa" d="M358.275,53.138c-.915-.337.125-1.911.125-1.911s-1.949,1.318-.441,2.179,3.625-.385,3.625-.385A9.553,9.553,0,0,1,358.275,53.138Z" transform="translate(-178.734 -36.003)"/><path class="aa" d="M357.69,55.343c-.562-.8,1.188-1.5,1.188-1.5s-2.352-.022-1.6,1.544,3.2,1.741,3.2,1.741A9.573,9.573,0,0,1,357.69,55.343Z" transform="translate(-178.692 -36.431)"/><path class="af" d="M356.956,48.027c.923,1.65.925,1.587,1.31,1.479,0,0,1.52-.77.127-3.379C358.393,46.127,357.188,46.151,356.956,48.027Z" transform="translate(-178.663 -35.166)"/><path class="af" d="M359.493,51.457l-1.267.329s-.663,1.474.563,1.482,1.1-.648,1.1-.648Z" transform="translate(-178.842 -36.04)"/><path class="af" d="M358.7,54.481a1.035,1.035,0,0,0-.491,1.221c.8.674,1.363.408,1.559-.111S358.918,54.536,358.7,54.481Z" transform="translate(-178.861 -36.536)"/><path class="k" d="M327.82,122.232c-5.488-.423-44.638,28.358-44.638,28.358s.851,5.1,5.365,4.223,33.9-23.655,36.828-23.654,5.25,14.192,4.609,16.279c4.818.3,5.374.25,5.374.25S333.309,122.655,327.82,122.232Z" transform="translate(-166.564 -47.647)"/><path class="k" d="M353.948,147.6c-3.493,2.031-14.783,3.928-14.783,3.928l.807,4.4,6.522.24.416-1.508s13.125-1.043,13.138-2.344S357.441,145.565,353.948,147.6Z" transform="translate(-175.745 -51.734)"/><path class="ac" d="M299.074,84.072s-5.7-5.606-27.091-5.83c-18.322,3.607-.809,6.266-.809,6.266s18.537-4.423,27.122.354S299.074,84.072,299.074,84.072Z" transform="translate(-163.357 -40.433)"/><path class="r" d="M287.112,156.7s-2.505-.348,1.965,1.589,32.958-8.429,38.8-8.714a8.487,8.487,0,0,1,4.615,1.029C321.7,131.491,287.112,156.7,287.112,156.7Z" transform="translate(-167.094 -51.127)"/><path class="r" d="M341.525,152.012c.2.354.393.717.575,1.1C344.029,154.84,343.674,153.221,341.525,152.012Z" transform="translate(-176.132 -52.531)"/></g><path class="ag" d="M251.755,307.733c7.813,1.83,31.521-14.808,40.273-21.217l-5.6-1.149C271.865,295.269,243.276,305.746,251.755,307.733Z" transform="translate(-23.581 -74.402)"/><path class="ag" d="M345.812,230.054l18.863,29.383L320.388,293l2.826,3.834,50.064-38.221s-16.824-24.292-15.89-24.848,65.541.5,63.08-2.656S345.812,230.054,345.812,230.054Z" transform="translate(-35.09 -65.218)"/></g></g></svg>